<svg xmlns="http://www.w3.org/2000/svg" viewBox="0 0 1761.18 973.55"><title>footer-bg_2</title><path d="M1761.18,973.55H0V330.72S193.92,22.45,491,22.45s351.76,237,706.17,237c300,0,564.06-247,564.06-247Z" style="fill:#f6c24c"/><path d="M840.65,326.89C1011.55,338,919,721.57,1123.76,600.23,1247.42,527,1274.9,570.46,1372.23,646c74.5,57.85,129.67,8,145.42-52.67,13.94-53.78,18.51-184.26,89.15-141.47,207.49,125.66,111.42,657.3-566.14,438.41C647.89,763.42,296.26,812.77,0,885.18V408c25.71-45.54,67.85-69.5,166.66-8C719,743.83,584.44,310.21,840.65,326.89Z" style="fill:#fff;opacity:0.2"/><path d="M385.76,801.26c-.1-10.69,2.92-29.71,26-27.72a7.23,7.23,0,0,0,7.36-4.31c5-11.75,20.46-38.51,54.49-23.4,24,10.68,29.2,23,29.08,31.7a7.14,7.14,0,0,0,9.1,6.83c10.79-3,26.85-5.16,41.09,2.58a7.24,7.24,0,0,0,9.45-2.09c7.56-10.81,26-31.41,48.53-15.27a7.26,7.26,0,0,0,7,.95c9.6-3.84,35-11.58,42.74,10.11A7.18,7.18,0,0,0,669.4,785c9.76-2.87,26.63-4.72,31.51,14.41a7.22,7.22,0,0,0,3,4.2l.14.11c5.84,4,2.74,15.3-4.37,15.11,0,0-174.35-14.31-307.12-.08C384.94,819.39,385.79,805.15,385.76,801.26Z" style="fill:#fff;opacity:0.1"/><path d="M1116.49,888.53c2.63.93,5.46-1.14,6.6-3.68,4.63-10.29,22.64-19.55,50.25-5.57,20.77,10.52,22.67,29.05,22.39,36.78a6.32,6.32,0,0,0,7.91,6.23c9.61-2.48,23.85-4,36.28,3.11a6.41,6.41,0,0,0,8.41-1.65c6.9-9.4,23.64-27.25,43.23-12.51a6.45,6.45,0,0,0,6.14,1c8.57-3.2,31.89-29.17,38.27-9.82a6.36,6.36,0,0,0,7.71,4c8.7-2.34,23.66-3.64,27.58,13.39.35,1.53,11.55,2.68,11.36,8.23.73,8.12-3.11,12.86-12,12.23,0,0-130.75,9.24-271.06-31.54C1086.75,904,1098.86,882.21,1116.49,888.53Z" style="fill:#f6f6f7"/><g style="opacity:0.1"><path d="M402.92,786.07c1.45-12.28-6.47-16.32-3.26-24.52,2.49-6.35-19.13,7.39-22.77,15.22s-.37,15.27,5.86,19.17S401.66,796.64,402.92,786.07Z" style="fill:#fff;opacity:0.9"/><path d="M375.14,791.29s8.72,3.89,9.53,21.27c.44,9.41,5.1.39,3.16-9.29-2.17-10.74-9-12.91-11.69-15.64" style="fill:#fff;fill-rule:evenodd"/><path d="M355.57,798.59c-9.51-13.66-2.65-23.5-11.66-31.18-7-6,27.4-3.36,36.68,3.64s10.12,17.91,5.18,26.49S363.76,810.35,355.57,798.59Z" style="fill:#fff"/></g><g style="opacity:0.1"><path d="M154.89,817.47c-1.45-12.28,6.47-16.33,3.26-24.51-2.49-6.36,19.13,7.37,22.77,15.21s.38,15.27-5.86,19.17S156.15,828,154.89,817.47Z" style="fill:#3a307c;opacity:0.9"/><path d="M182.67,822.68S174,826.57,173.14,844c-.44,9.42-5.1.39-3.16-9.28,2.17-10.74,9-12.91,11.69-15.64" style="fill:#ee7335;fill-rule:evenodd"/><path d="M202.23,830c9.52-13.67,2.66-23.51,11.66-31.19,7-6-27.39-3.36-36.67,3.64S167.1,820.36,172,828.94,194.05,841.75,202.23,830Z" style="fill:#ee7335"/></g><path d="M95.93,837.54c1.45-12.28-6.47-16.33-3.26-24.52,2.49-6.36-19.12,7.38-22.77,15.22s-.36,15.26,5.86,19.17S94.68,848.11,95.93,837.54Z" style="fill:#f5f5f5;opacity:0.9"/><path d="M68.15,842.75s8.73,3.89,9.53,21.27c.45,9.42,5.11.39,3.16-9.29-2.17-10.73-9-12.91-11.69-15.64" style="fill:#f5f5f5;fill-rule:evenodd"/><path d="M48.59,850.06c-9.52-13.67-2.66-23.5-11.66-31.19-7-6,27.39-3.35,36.67,3.65s10.12,17.9,5.19,26.49S56.77,861.82,48.59,850.06Z" style="fill:#f5f5f5"/><g style="opacity:0.5"><path d="M89.18,801.71c-2.66-22.42,11.8-29.8,5.95-44.74-4.55-11.61,34.9,13.47,41.55,27.76s.68,27.88-10.71,35C114.74,826.75,91.47,821,89.18,801.71Z" style="fill:#fff;opacity:0.9"/><path d="M139.87,811.22S124,818.32,122.47,850c-.8,17.18-9.31.71-5.75-16.95,4-19.58,16.38-23.55,21.33-28.54" style="fill:#fff;fill-rule:evenodd"/><path d="M175.58,824.57c17.37-25,4.85-42.89,21.27-56.92,12.77-10.9-50-6.12-66.93,6.65s-18.46,32.68-9.46,48.35C129.36,838.11,160.64,846,175.58,824.57Z" style="fill:#fff"/></g><g style="opacity:0.1"><path d="M126.22,835.49c1.14-9.75-5.14-13-2.59-19.46,2-5-15.18,5.86-18.07,12.08s-.29,12.12,4.65,15.21S125.22,843.88,126.22,835.49Z" style="fill:#3a307c;opacity:0.9"/><path d="M104.17,839.62s6.92,3.09,7.56,16.88c.36,7.47,4,.31,2.51-7.37-1.73-8.52-7.13-10.23-9.28-12.41" style="fill:#ee7335;fill-rule:evenodd"/><path d="M88.64,845.42c-7.55-10.84-2.11-18.65-9.25-24.75-5.55-4.73,21.74-2.65,29.1,2.9s8,14.2,4.12,21S95.14,854.75,88.64,845.42Z" style="fill:#ee7335"/></g><g style="opacity:0.1"><path d="M243.22,814.05c1.14-9.75-5.14-13-2.59-19.46,2-5.05-15.18,5.85-18.07,12.07s-.3,12.13,4.65,15.21S242.22,822.44,243.22,814.05Z" style="fill:#fff;opacity:0.9"/><path d="M221.18,818.18s6.91,3.09,7.55,16.88c.35,7.47,4.05.31,2.51-7.37-1.73-8.52-7.13-10.24-9.28-12.41" style="fill:#fff;fill-rule:evenodd"/><path d="M205.64,824c-7.55-10.84-2.11-18.65-9.25-24.75-5.55-4.74,21.74-2.66,29.11,2.9s8,14.2,4.11,21S212.13,833.32,205.64,824Z" style="fill:#fff"/></g><g style="opacity:0.1"><path d="M234.12,785.08c-2.35-19.89,10.48-26.44,5.28-39.69-4-10.3,31,11.94,36.87,24.63s.6,24.73-9.5,31S236.16,802.2,234.12,785.08Z" style="fill:#fff"/><path d="M279.1,793.52S265,799.82,263.66,828c-.71,15.25-8.26.63-5.1-15,3.51-17.37,14.54-20.89,18.92-25.32" style="fill:#fff;fill-rule:evenodd"/><path d="M310.78,805.37c15.41-22.14,4.3-38.07,18.89-50.51,11.33-9.68-44.37-5.43-59.4,5.91s-16.38,29-8.39,42.88C269.78,817.37,297.53,824.41,310.78,805.37Z" style="fill:#fff"/></g><g style="opacity:0.1"><path d="M1652.62,796.77c1.46-12.28-6.47-16.32-3.26-24.52,2.5-6.35-19.12,7.39-22.76,15.22s-.38,15.27,5.86,19.17S1651.37,807.35,1652.62,796.77Z" style="fill:#fff;opacity:0.9"/><path d="M1624.85,802s8.72,3.89,9.53,21.26c.44,9.42,5.1.39,3.15-9.28-2.16-10.73-9-12.91-11.69-15.64" style="fill:#fff;fill-rule:evenodd"/><path d="M1605.28,809.3c-9.52-13.67-2.66-23.51-11.66-31.19-7-6,27.4-3.35,36.68,3.64s10.11,17.91,5.18,26.49S1613.46,821.05,1605.28,809.3Z" style="fill:#fff"/></g><g style="opacity:0.1"><path d="M1457.67,903.44c-8.68-10-4.07-18.4-11.85-23.75-6-4.15,21.44-4.94,29.39-.17s9.51,13.35,6.31,20.57S1465.14,912.09,1457.67,903.44Z" style="fill:#fff;opacity:0.9"/><path d="M1485.49,891.37s-5.41,8.71,4.31,24.64c5.28,8.63-4.28,3.41-8.38-6.36-4.53-10.84.22-16.87,1-20.93" style="fill:#fff;fill-rule:evenodd"/><path d="M1507.28,886.1c.24-17.87-11.77-22.49-8.39-34.74,2.62-9.51-26.37,13.5-30.42,25.3s1.78,22,11.33,26.66S1507.08,901.47,1507.28,886.1Z" style="fill:#fff"/></g><g style="opacity:0.4"><path d="M1452,911.63c14.3-16.55,6.71-30.35,19.54-39.17,10-6.84-35.35-8.14-48.46-.26s-15.69,22-10.42,33.9C1417.89,917.84,1439.7,925.88,1452,911.63Z" style="fill:#f6f6f7;opacity:0.9"/><path d="M1406.13,891.73s8.93,14.36-7.11,40.62c-8.7,14.24,7.08,5.63,13.82-10.48,7.47-17.87-.35-27.82-1.62-34.51" style="fill:#f6f6f7;fill-rule:evenodd"/><path d="M1370.21,883c-.39-29.46,19.41-37.09,13.84-57.27-4.33-15.7,43.48,22.26,50.14,41.71s-2.94,36.28-18.68,43.95C1400,919,1370.55,908.39,1370.21,883Z" style="fill:#f6f6f7"/></g><g style="opacity:0.1"><path d="M830.76,766.65c-3.78-32,16.86-42.57,8.49-63.9-6.5-16.58,49.84,19.23,59.34,39.65s1,39.81-15.28,50C867.26,802.41,834,794.21,830.76,766.65Z" style="fill:#fff"/><path d="M903.16,780.24s-22.74,10.13-24.85,55.43c-1.15,24.54-13.3,1-8.22-24.21,5.65-28,23.4-33.64,30.47-40.76" style="fill:#fff;fill-rule:evenodd"/><path d="M954.16,799.29C979,763.66,961.08,738,984.56,718c18.23-15.58-71.43-8.74-95.61,9.5s-26.38,46.68-13.51,69C888.15,818.62,932.82,829.94,954.16,799.29Z" style="fill:#fff"/></g><g style="opacity:0.4"><path d="M992.94,827.91c-8.87-74.84,39.42-99.49,19.83-149.34-15.16-38.75,116.52,44.95,138.7,92.66s2.26,93-35.72,116.77C1078.26,911.46,1000.57,892.32,992.94,827.91Z" style="fill:#f6f6f7;opacity:0.9"/></g><g style="opacity:0.5"><path d="M876.31,803.62c1.85-15.7-8.26-20.86-4.16-31.32,3.18-8.12-24.44,9.43-29.1,19.43s-.47,19.52,7.5,24.49S874.71,817.12,876.31,803.62Z" style="fill:#f6f6f7;opacity:0.9"/><path d="M840.84,810.27s11.13,5,12.16,27.17c.57,12,6.51.5,4-11.85-2.77-13.72-11.47-16.5-14.93-20" style="fill:#f6f6f7;fill-rule:evenodd"/><path d="M815.84,819.61c-12.16-17.45-3.41-30-14.91-39.84-8.93-7.63,35-4.28,46.86,4.66s12.93,22.87,6.62,33.84C848.18,829.08,826.29,834.63,815.84,819.61Z" style="fill:#f6f6f7"/></g><rect width="1761.18" height="973.55" style="fill:none"/></svg>