<svg xmlns="http://www.w3.org/2000/svg" xmlns:xlink="http://www.w3.org/1999/xlink" viewBox="0 0 585.64 1123.94"><defs><clipPath id="a"><rect x="-590.48" y="152.85" width="1893.19" height="1012.43" style="fill:none"/></clipPath></defs><path d="M1170.7,1126.4H-590.48V483.57s193.92-308.26,491-308.26,351.76,237,706.17,237c300,0,564.06-247,564.06-247Z" style="fill:#f6c24c"/><g style="clip-path:url(#a)"><path d="M250.17,479.75c170.91,11.12,78.35,394.67,283.11,273.33C657,679.8,684.43,723.31,781.75,798.88c74.5,57.85,129.67,8,145.42-52.67,14-53.78,18.52-184.25,89.16-141.47,207.49,125.66,111.42,657.3-566.15,438.41-411.34-132.88-777.55-72.47-1082.3,5.29-252,64.3-468.78-330.76-134.43-304.37,220,17.36,93.55-346.37,342.73-191.25C128.56,896.68-6,463.07,250.17,479.75Z" style="fill:#fff;opacity:0.2"/><path d="M-204.72,954.11c-.09-10.69,2.92-29.71,26-27.71a7.25,7.25,0,0,0,7.36-4.32c5-11.75,20.47-38.51,54.49-23.4,24,10.68,29.2,23,29.09,31.71a7.14,7.14,0,0,0,9.1,6.83c10.79-3.05,26.84-5.16,41.08,2.57a7.24,7.24,0,0,0,9.45-2.08c7.56-10.81,26-31.42,48.54-15.27a7.27,7.27,0,0,0,7,.94c9.6-3.84,35-11.58,42.74,10.11a7.2,7.2,0,0,0,8.82,4.38c9.76-2.87,26.63-4.73,31.51,14.4a7.25,7.25,0,0,0,2.95,4.21l.14.1c5.84,4,2.74,15.3-4.36,15.11,0,0-174.35-14.31-307.13-.08C-205.54,972.24-204.69,958-204.72,954.11Z" style="fill:#fff;opacity:0.1"/><path d="M526,1041.38c2.62.94,5.45-1.13,6.6-3.67,4.63-10.29,22.63-19.55,50.25-5.57,20.76,10.51,22.66,29,22.39,36.77a6.32,6.32,0,0,0,7.9,6.24c9.61-2.48,23.85-4,36.29,3.1a6.38,6.38,0,0,0,8.4-1.65c6.9-9.4,23.65-27.25,43.24-12.51a6.42,6.42,0,0,0,6.13,1c8.57-3.2,31.9-29.17,38.28-9.82a6.35,6.35,0,0,0,7.71,4c8.69-2.34,23.65-3.64,27.57,13.38.35,1.53,11.55,2.68,11.36,8.23.73,8.12-3.11,12.86-12,12.23,0,0-130.74,9.24-271-31.54C496.27,1056.88,508.39,1035.07,526,1041.38Z" style="fill:#f6f6f7"/><g style="opacity:0.1"><path d="M240.28,919.5c-3.78-32,16.86-42.57,8.49-63.9-6.5-16.57,49.84,19.24,59.35,39.65s1,39.82-15.29,50C276.78,955.26,243.54,947.06,240.28,919.5Z" style="fill:#fff"/><path d="M312.68,933.09s-22.74,10.14-24.85,55.43c-1.14,24.55-13.3,1-8.22-24.2,5.65-28,23.4-33.64,30.47-40.77" style="fill:#fff;fill-rule:evenodd"/><path d="M363.68,952.14c24.79-35.63,6.93-61.25,30.4-81.29,18.23-15.57-71.42-8.74-95.61,9.5S272.1,927,285,949.39C297.67,971.48,342.34,982.8,363.68,952.14Z" style="fill:#fff"/></g><g style="opacity:0.4"><path d="M402.47,980.77c-8.87-74.85,39.41-99.49,19.82-149.35-15.16-38.75,116.52,45,138.71,92.66s2.25,93-35.72,116.77C487.78,1064.32,410.09,1045.17,402.47,980.77Z" style="fill:#f6f6f7;opacity:0.9"/></g><g style="opacity:0.5"><path d="M285.83,956.47c1.85-15.7-8.26-20.86-4.15-31.31,3.17-8.13-24.45,9.42-29.1,19.42s-.47,19.52,7.49,24.5S284.23,970,285.83,956.47Z" style="fill:#f6f6f7;opacity:0.9"/><path d="M250.36,963.12s11.13,5,12.16,27.17c.57,12,6.52.51,4-11.85-2.78-13.71-11.48-16.5-14.93-20" style="fill:#f6f6f7;fill-rule:evenodd"/><path d="M225.36,972.47c-12.15-17.46-3.41-30-14.9-39.84-8.94-7.63,35-4.29,46.85,4.65s12.93,22.88,6.62,33.84S235.82,987.49,225.36,972.47Z" style="fill:#f6f6f7"/></g></g></svg>