<svg xmlns="http://www.w3.org/2000/svg" xmlns:xlink="http://www.w3.org/1999/xlink" viewBox="0 0 836.25 402.63"><defs><linearGradient id="a" x1="-2797.46" y1="302.16" x2="-2797.46" y2="-30.19" gradientTransform="matrix(-1.05, -0.01, 0.01, 1, -2501.92, 27.41)" gradientUnits="userSpaceOnUse"><stop offset="0" stop-color="#fff"/><stop offset="0.03" stop-color="#fff" stop-opacity="0.93"/><stop offset="0.14" stop-color="#fff" stop-opacity="0.72"/><stop offset="0.26" stop-color="#fff" stop-opacity="0.53"/><stop offset="0.37" stop-color="#fff" stop-opacity="0.36"/><stop offset="0.49" stop-color="#fff" stop-opacity="0.23"/><stop offset="0.61" stop-color="#fff" stop-opacity="0.13"/><stop offset="0.73" stop-color="#fff" stop-opacity="0.06"/><stop offset="0.86" stop-color="#fff" stop-opacity="0.01"/><stop offset="1" stop-color="#fff" stop-opacity="0"/></linearGradient><linearGradient id="b" x1="245.49" y1="64.86" x2="289.07" y2="64.86" gradientUnits="userSpaceOnUse"><stop offset="0" stop-color="#3a2d7e"/><stop offset="0.86" stop-color="#6a3390"/></linearGradient><clipPath id="c"><path d="M277.16,153.17c-6.32,1.16-4.64.78-11.22,1.49-9.39,1-18.47,1.27-18.47,1.27C225.19,166.12,227,205,224.64,226.45c6.75,2.08,12.13,6.19,17.4,10.2,7-11.91,16.19-36.94,25.39-58.9,2.59-5,11.69-8.82,15.3-14.33C284.8,159.92,277.62,156.7,277.16,153.17Z" style="fill:none"/></clipPath></defs><g style="opacity:0.2"><path d="M606,301c-13.64-37,7.88-55.46-8.16-78.43-12.46-17.86,64.75,8.62,81.91,30.18s12.54,47.05-3.84,63.8C659.68,333,617.79,332.78,606,301Z" style="fill:#fff;opacity:0.9"/><path d="M696,296.37s-24.13,18.56-13.65,73c5.64,29.52-15.54,5-16.72-26.41-1.29-34.89,18.21-46.71,24.56-57.2" style="fill:#fff;fill-rule:evenodd"/><path d="M762.09,304.46C781.41,255,752.81,229.62,775,199.08c17.26-23.75-87.4,10.08-111,38.66s-18,63.06,3.72,85.95C689.15,346.32,745.5,347,762.09,304.46Z" style="fill:#fff"/></g><path d="M360.86,45.34c-63.69-3-59.21,132-129.9,78.57-42.7-32.25-40.87-6.53-80,17.37-30,18.3-59.55-3.68-62.84-26.79-2.93-20.48.81-68.93-27.1-56C-21,96.3-55.1,465.09,187.7,393.41c158.35-46.74,353.9-75.43,474-18.83,152,71.63,240-42,115.18-46.14-82.09-2.73-20.19-132-118.82-85C439.43,347.66,456.32,49.83,360.86,45.34Z" style="fill:#fff;opacity:0.2"/><path d="M284.73,169.31h0A132.36,132.36,0,0,1,305,126.42C365.77,41.78,372.89-29.43,477.35,12.26c60.55,24.17,104,109.44,73.59,202.68q-2.48,7.53-5.46,14.72s0,0,0,0l-.23.5C511.48,311.42,432,356.71,367.87,337.26,301.37,317.13,266.43,237.59,284.73,169.31Z" style="fill:#e6e6e6;fill-rule:evenodd;opacity:0.30000000000000004"/><path d="M288.41,190h0a123.67,123.67,0,0,1,15.75-43.18C356.23,59.7,355.72-9.56,465.33,21c63.53,17.72,116.47,95.88,95.86,188.52-1.12,5-2.42,9.89-3.9,14.69,0,0,0,0,0,0l-.18.5c-25.25,81.37-100.33,132.31-167,119.47C321.06,330.93,277.34,257.5,288.41,190Z" style="fill-rule:evenodd;fill:url(#a)"/><path d="M358.81,285.78l100.69,8.69c12.45,1.12,22.45-7.54,23.16-20.05L495.19,52.48c.4-7.2-5.67-14-12.81-14.27l-95.86-4.34c-11.56-.5-20.74,7.46-21.95,19L342.42,266C341.43,275.53,349.19,284.93,358.81,285.78Z" style="fill:#d1cfd0;opacity:0.8"/><path d="M352.65,279.12l105.06,9.09c10.51.94,19-6.37,19.55-16.95L489.86,48.2a9.81,9.81,0,0,0-9-10.06l-100-4.51a17.45,17.45,0,0,0-18.55,16L340,263.79C339.21,271.19,345.23,278.45,352.65,279.12Z" style="fill:#fff"/><polygon points="349.67 242.86 469.79 252.91 481.48 53.12 370.85 47.63 349.67 242.86" style="fill:#d1cfd0;opacity:0.61"/><path d="M402.34,265.07a7.21,7.21,0,0,0,4,8.42,5.4,5.4,0,0,0,7.4-3.71,7.2,7.2,0,0,0-4-8.42A5.4,5.4,0,0,0,402.34,265.07Z" style="fill:#d1cfd0;opacity:0.8"/><polygon points="361.76 47.35 496.03 54.21 497.73 63.8 357.88 56.98 361.76 47.35" style="fill:#efa998"/><path d="M440.21,76c-.49,6.24-7.45,11-15.54,10.6h0c-8.1-.39-14.27-5.76-13.78-12l.55-7L440.77,69Z" style="fill:#bebebe"/><path d="M382.14,66.15l-.55,7c-.49,6.25-7.45,11-15.55,10.61h0c-8.09-.39-14.24-5.75-13.75-12l.55-7Z" style="fill:#bebebe"/><polygon points="442.1 60.75 440.77 68.95 411.44 67.55 414.19 59.42 442.1 60.75" style="fill:#d7d7d7"/><polygon points="358.39 56.77 386.3 58.09 382.14 66.16 352.84 64.76 358.39 56.77" style="fill:#d7d7d7"/><path d="M499.54,72.24l-.56,7c-.49,6.25-7.44,11-15.54,10.61h0c-8.09-.39-14.25-5.75-13.75-12l.55-7Z" style="fill:#bebebe"/><polygon points="469.27 62.3 497.18 63.63 499.54 72.24 470.24 70.84 469.27 62.3" style="fill:#d7d7d7"/><path d="M469.52,77.39c-.5,6.25-7.46,11-15.55,10.6s-14.25-5.75-13.76-12l.56-7,29.31,1.39Z" style="fill:#efa998"/><path d="M410.89,74.6c-.49,6.24-7.45,11-15.53,10.6h0c-8.1-.39-14.26-5.75-13.77-12l.55-7,29.3,1.4Z" style="fill:#efa998"/><g style="opacity:0.9"><polygon points="470.02 62.09 470.08 70.34 440.77 68.95 442.1 60.75 470.02 62.09" style="fill:#f7c4b4"/><polygon points="414.19 59.42 411.44 67.55 382.14 66.16 386.3 58.09 414.19 59.42" style="fill:#f7c4b4"/></g><path d="M468.35,163.51a7.17,7.17,0,0,1-7.6,6.79L376,163.4a7.35,7.35,0,0,1-6.57-7.93l2.82-40.36a7.14,7.14,0,0,1,7.59-6.78l84.8,6.89a7.34,7.34,0,0,1,6.56,7.93Z" style="fill:#336da0;opacity:0.09"/><path d="M463.48,196.12a7.15,7.15,0,0,1-7.6,6.78l-84.36-6.85a7.35,7.35,0,0,1-6.57-7.93l.07-1a7.15,7.15,0,0,1,7.6-6.78L457,187.2a7.33,7.33,0,0,1,6.56,7.93Z" style="fill:#336da0;opacity:0.09"/><path d="M461.39,221.08a7.15,7.15,0,0,1-7.6,6.78L369.43,221a7.35,7.35,0,0,1-6.57-7.93l.07-1a7.15,7.15,0,0,1,7.6-6.78l84.36,6.86a7.35,7.35,0,0,1,6.57,7.93Z" style="fill:#336da0;opacity:0.09"/><path d="M467.74,160.38a7.15,7.15,0,0,1-7.6,6.78l-84.79-6.89a7.34,7.34,0,0,1-6.57-7.93L371.6,112a7.15,7.15,0,0,1,7.6-6.78L464,112.09a7.33,7.33,0,0,1,6.56,7.93Z" style="fill:#f8f8f8"/><path d="M462.87,193a7.15,7.15,0,0,1-7.6,6.78l-84.36-6.86a7.34,7.34,0,0,1-6.57-7.93l.07-1a7.16,7.16,0,0,1,7.6-6.78l84.36,6.86a7.35,7.35,0,0,1,6.57,7.93Z" style="fill:#f8f8f8"/><path d="M460.78,218a7.14,7.14,0,0,1-7.6,6.78l-84.36-6.85a7.35,7.35,0,0,1-6.57-7.94l.07-1a7.15,7.15,0,0,1,7.6-6.78L454.28,209a7.34,7.34,0,0,1,6.57,7.93Z" style="fill:#f8f8f8"/><path d="M421.16,227.12a13.18,13.18,0,0,0-19.91-12h0c-.23.13-.45.27-.66.41l-.07.06-.52.38-.14.11c-.16.12-.31.25-.47.36a.46.46,0,0,1-.12.12l-.52.48v0l-.55.53-.07.11c-.14.15-.27.3-.4.46a1.67,1.67,0,0,1-.12.16c-.11.15-.23.29-.33.45a1.67,1.67,0,0,1-.12.16,6,6,0,0,0-.39.59v0a4.21,4.21,0,0,0-.39.64.37.37,0,0,0-.07.16c-.09.17-.18.33-.26.5l-.1.21c-.07.18-.15.34-.21.5a1.8,1.8,0,0,0-.08.21c-.09.23-.16.44-.23.67,0,0,0,0,0,0-.07.25-.13.49-.2.73a1.6,1.6,0,0,0-.05.21l-.12.55a1.57,1.57,0,0,1,0,.25,4.68,4.68,0,0,0-.07.54,1.6,1.6,0,0,0,0,.23,6.65,6.65,0,0,0-.07.78A13.19,13.19,0,0,0,407.3,239.6c.23,0,.46,0,.69,0h.71a.76.76,0,0,1,.16,0l.53,0,.14,0,.54-.07.1,0,.59-.12h.05a6.45,6.45,0,0,0,.63-.16h0l.64-.18h0l.63-.22h0A13.24,13.24,0,0,0,421.16,227.12Z" style="fill-rule:evenodd;opacity:0.08"/><path d="M423.17,223.92a13.19,13.19,0,1,1-12.48-13.87A13.21,13.21,0,0,1,423.17,223.92Z" style="fill:#afd3dc;fill-rule:evenodd"/><path d="M410,215.81h0Z" style="fill:#999"/><path d="M416.79,226.74h0A7.55,7.55,0,0,0,417,224c-.67-6.08,1-9.92-5.52-10.8-3.79-.5-8.47,2.6-9.6,8.24-.06.31-.11.61-.14.91h0v0c-.61,5.12,2.15,9.72,6,10.58S415.76,230.76,416.79,226.74Z" style="fill:#fff;fill-rule:evenodd;opacity:0.4"/><path d="M413.9,224.73c-.06,3.2-2.95,6.48-5.14,6.42s-4.94-3.49-4.88-6.68a5.07,5.07,0,0,1,5.13-5.24A5.13,5.13,0,0,1,413.9,224.73Z" style="fill:#fff;opacity:0.4"/><g style="opacity:0.47000000000000003"><path d="M410.34,225.58c0,1.11-.8,1.92-1.48,1.9a1.86,1.86,0,0,1-1.47-2c0-1.1.67-1.73,1.51-1.71S410.36,224.48,410.34,225.58Z" style="fill:#fff"/></g><path d="M409.6,223.23a21.16,21.16,0,0,0-.14-10c-3.28.57-6.65,3.5-7.59,8.17-.06.31-.11.61-.14.91h0v0c-.61,5.12,2.15,9.72,6,10.58a6.7,6.7,0,0,0,2.89,0A16.26,16.26,0,0,1,409.6,223.23Z" style="fill:#fff;fill-rule:evenodd;opacity:0.12"/><g style="opacity:0.2"><path d="M152.09,127.71c.59-6.56-3.67-8.6-2.08-13,1.23-3.41-10.06,4.2-11.89,8.42a7.77,7.77,0,0,0,3.38,10.11C144.83,135.2,151.57,133.35,152.09,127.71Z" style="fill:#fff;opacity:0.9"/><path d="M137.39,130.87s4.69,1.94,5.37,11.18c.37,5,2.72.13,1.55-5-1.31-5.68-5-6.74-6.44-8.16" style="fill:#fff;fill-rule:evenodd"/><path d="M127.09,135c-5.25-7.14-1.75-12.46-6.64-16.43C116.64,115.54,135,116.45,140,120s5.64,9.37,3.13,14S131.61,141.17,127.09,135Z" style="fill:#fff"/></g><g style="opacity:0.2"><path d="M106.89,135.31c-1.27-5,1.78-7.1,0-10.31-1.38-2.49,8.3,2,10.24,5.05a6.1,6.1,0,0,1-1.37,8.24C113.43,140.22,108,139.61,106.89,135.31Z" style="fill:#fff;opacity:0.9"/><path d="M118.66,136s-3.39,2.08-2.78,9.31c.33,3.91-2.09.44-1.81-3.66.31-4.56,3-5.83,4-7.11" style="fill:#fff;fill-rule:evenodd"/><path d="M127.14,137.9c3.19-6.17-.18-9.86,3.12-13.53,2.56-2.85-11.51.12-15,3.52a8.19,8.19,0,0,0-.69,11.22C117.08,142.35,124.4,143.21,127.14,137.9Z" style="fill:#fff"/></g><path d="M351.16,106.09a3.71,3.71,0,0,0-1.5-.06c-1.62.17-6.07,0-12.28,5-2.83,2.26-5.59,4.61-8.39,6.92l.34,1.49,3.06.32S344.8,108.75,351.16,106.09Z" style="fill:#f7c3b3"/><path d="M337.38,111c1.1-.91,1.16.64,2.46,0,1.47-.69,4.16-3.38,5.78-3.58,5.12-.63-4.87,2.46-3.45,4.62.73,1.35,6-.46,6.44.47,1.16,1.79-4.19,2.71-6.59,3.67-2,.79-9.08,3.25-11,4.06" style="fill:#f7c3b3"/><path d="M325.75,136.33a47.11,47.11,0,0,0,7.65-2.39c2-.79,5.58-3,6.25-1.14.43,1-5.3,3.38-2.63,3.1,3-.53,7.15-1.25,9.13-2.9.9-.76,2.61-1.54,2.76-.57s-1.07,2.21-1.86,2.87a24.41,24.41,0,0,1-4.7,3.24,14.91,14.91,0,0,1-4.47,1.94c-1.39.29-18.69.12-17.76.61" style="fill:#f0b293"/><path d="M389.54,183.1a11.29,11.29,0,0,0-14.64-13.49h0l-.63.24-.07,0-.5.23-.14.07c-.15.07-.29.15-.43.23l-.14.07-.52.32h0c-.19.11-.36.25-.54.36l-.09.08-.4.31-.14.11-.36.33a1.14,1.14,0,0,0-.11.11c-.15.14-.3.28-.44.43h0c-.16.16-.3.32-.44.49l-.1.11-.29.39a.57.57,0,0,0-.11.16,4.28,4.28,0,0,0-.26.38s-.08.11-.12.15l-.31.54h0c-.1.2-.21.38-.3.58l-.08.18c-.06.14-.13.28-.18.42a.9.9,0,0,0-.08.21c-.07.14-.11.29-.17.44a1.06,1.06,0,0,1-.06.19c-.06.22-.13.42-.19.64a11.29,11.29,0,0,0,8.1,13.76l.58.13.14,0,.45.08.14,0,.46,0,.1,0,.49,0h.63a5.12,5.12,0,0,0,.56,0h0l.56,0h0l.56-.08h0A11.31,11.31,0,0,0,389.54,183.1Z" style="fill-rule:evenodd;opacity:0.08"/><path d="M393.57,179.54a11.3,11.3,0,1,1-8.1-13.76A11.28,11.28,0,0,1,393.57,179.54Z" style="fill:#ae9eb9;fill-rule:evenodd;opacity:0.7000000000000001"/><path d="M384.51,187.84l-.31-.36a12.82,12.82,0,0,1-2.74-10.17c.85-5.35-.36-8.94-2.53-11.26a11.28,11.28,0,0,0,.87,21.58A10.94,10.94,0,0,0,384.51,187.84Z" style="fill:#f7f7f8;fill-rule:evenodd;opacity:0.15"/><text transform="matrix(1, 0.02, -0.02, 1, 378.51, 180.95)" style="font-size:13.705069541931152px;fill:#fff;font-family:Nunito-Bold, Nunito Bold;font-weight:700;letter-spacing:0.05002140798356001em">$</text><path d="M526.34,137.91l-10,5.41c-19.77,9.24-42.29,3-56.27,1.85-13.26-1.13-27.06,4-35.83,14s-11.95,24.81-7.4,37.31c2.94,8.11,8.8,14.93,11.62,23.09s.36,17.69-6.85,22.42c-3.11,2-15.52,4.95-23.7-1.12" style="fill:none;stroke:#a1a1a1;stroke-miterlimit:10;stroke-width:0.48017899999999997px;stroke-dasharray:4.033480167388916"/><path d="M405.31,141.09a14.82,14.82,0,0,0-22.19-13.79h0c-.25.15-.5.29-.74.45a.31.31,0,0,0-.09.07l-.59.41-.16.13a6.4,6.4,0,0,0-.51.4l-.16.13c-.2.17-.39.36-.59.54h0c-.2.2-.4.4-.59.61l-.11.12c-.15.16-.29.33-.43.5s-.11.12-.15.18-.26.33-.38.5a1.92,1.92,0,0,0-.13.17c-.16.22-.3.44-.45.66l0,0c-.15.24-.28.48-.42.73a1.51,1.51,0,0,0-.1.17,5.1,5.1,0,0,0-.29.57,1.33,1.33,0,0,0-.11.24c-.08.18-.17.37-.24.55s-.06.15-.1.22c-.09.26-.19.51-.28.76v0c-.09.26-.17.54-.24.81,0,.09,0,.16-.06.24s-.09.4-.14.6a2.93,2.93,0,0,0,0,.29c0,.2-.07.4-.1.6a1.15,1.15,0,0,0,0,.26q-.06.44-.09.87a14.82,14.82,0,0,0,13.82,15.75l.78,0h.79l.18,0,.6,0,.16,0c.2,0,.42,0,.62-.08h.11l.66-.12h0l.7-.16h0l.72-.2h0c.25-.07.48-.16.71-.24h0A14.81,14.81,0,0,0,405.31,141.09Z" style="fill-rule:evenodd;opacity:0.08"/><path d="M409.62,135.51a14.81,14.81,0,1,1-13.82-15.74A14.8,14.8,0,0,1,409.62,135.51Z" style="fill:#ae9eb9;fill-rule:evenodd"/><path d="M400,148.43c-.31-.23-.49-.39-.49-.39a16.82,16.82,0,0,1-6-12.43c-.23-7.1-2.67-11.43-6-13.89A14.81,14.81,0,0,0,400,148.43Z" style="fill:#f7f7f8;fill-rule:evenodd;opacity:0.15"/><text transform="translate(386.17 139.29) rotate(3.63)" style="font-size:17.988420486450195px;fill:#fff;font-family:Nunito-Bold, Nunito Bold;font-weight:700;letter-spacing:0.04999961298311239em">%</text><path d="M275.37,119.84c15.52,20.23,57.29,3.09,57.52,0l-1.47-3.75s-.28-.5-.69-.45c-40.15,4.86-52.91-17.14-54.07-19.79" style="fill:#f2a41e"/><path d="M228.49,221.72c-.92,1.56-8.93,3.34-16.18,6.25-12.33,4.95-30.68,25.26-37.16,31.83a4.4,4.4,0,0,0,2.75,4.52c2.07.9,13.25-5.7,33.12-13.67,5-2,20.14-7.1,25.81-10.34,1-.59,4.14-2.94,5.35-3.8-3.16-5.83-8.35-10.2-13.65-14.86Z" style="fill:#371880"/><path d="M277.16,153.17c-6.32,1.16-4.64.78-11.22,1.49-9.39,1-18.47,1.27-18.47,1.27C225.19,166.12,227,205,224.64,226.45c6.75,2.08,12.13,6.19,17.4,10.2,7-11.91,16.19-36.94,25.39-58.9,2.59-5,11.69-8.82,15.3-14.33C284.8,159.92,277.62,156.7,277.16,153.17Z" style="fill:#371880"/><path d="M176.62,269.08c.84.09,3.73.77,2.44,4.83s-3.82,8.41-3.54,11.1c.32,3.11-2.32,4.12-3.11,1.46-1.12-3.75-5.59-19.31-5.59-19.31s-1.1-3.8,2-4.67a3,3,0,0,1,3.95,2.62A4.23,4.23,0,0,0,176.62,269.08Z" style="fill:#371880"/><path d="M259.85,291.86c.8-.29,3.71-.9,4.27,3.33s.12,9.24,1.52,11.56c1.62,2.68-.34,4.71-2.19,2.64-2.61-2.91-13.28-15.09-13.28-15.09s-2.61-3-.17-5.09a3,3,0,0,1,4.7.69A4.2,4.2,0,0,0,259.85,291.86Z" style="fill:#371880"/><path d="M274.35,86.3c1.13,1.18,5.61.5,6.51-.76,0,0,4.27-8.75,1-27.76-.9-5.22,1.11-2.43-10.18-3.76-10.41-1.23-10.44,19.54-12.18,17.73l1.17,2.72-1.32-2.91a1.81,1.81,0,0,0,.15.19c-.47-1.07-.7-1.54-.48-.93h0s-2.53-2.17-4.18-.64,3.46,5.45,6.39,5.61c1.7,4,3.71,8.83,3.71,8.83L261.55,99,277,102.79S273.66,85.59,274.35,86.3Z" style="fill:#f0b293"/><path d="M274.49,71.91a.84.84,0,0,1-1.67,0,.84.84,0,1,1,1.67,0Z" style="opacity:0.21"/><path d="M281,71.58a.84.84,0,0,1-1.68,0,.84.84,0,0,1,1.68,0Z" style="opacity:0.21"/><path d="M263.09,78c4.52-8.91-.78-12.47,1.6-15.71,3.5-4.78,1.83,4.08,12,4C296.92,66,288,44.91,280.53,46.54c-8.23,1.78-10.62-6.44-20.14-2.26-8.28,3.63-4.11,9.41-10.1,11.29-5.69,1.79-6.87,15.35-.53,21.11C273.48,98.27,263.09,78,263.09,78Z" style="fill:url(#b)"/><g style="clip-path:url(#c)"><path d="M234.87,162.49s2.36-2.37,8.54-8.33c23.53,6.46,46.1,26.49,43.27,48.84-2.38,18.81-23.9,34.1-43,37.2,2-5.56,3.26-15.48,3.26-15.48A29.79,29.79,0,0,0,238.27,201C222.36,184.43,226.05,171.08,234.87,162.49Z" style="fill:#e6e6e6;fill-rule:evenodd;opacity:0.1"/></g><path d="M274.33,86.93c-.05-.21.14-.45,0-.63s-.88-.45-1.25-.6a9.86,9.86,0,0,1-3.17-2.12c0,.81.7,1.42,1.31,2a9.71,9.71,0,0,1,2.82,4.69,4.44,4.44,0,0,0,1,2.35,12.4,12.4,0,0,0-.24-2.72A21.25,21.25,0,0,0,274.33,86.93Z" style="fill:#e3a48a"/><path d="M277.31,140.2c-4.73,4.36-3.52,3.13-8.7,7.25-7.43,5.82-15,10.92-15,10.92-13.42,20.5,7.62,47,17,66.46,6.82-1.83,14.82,4.15,21.42,4.73-.44-13.79-1-41.51-4.93-65-.48-5.62.2-12.08.33-18.66C287.37,141.85,279.58,143,277.31,140.2Z" style="fill:#371880"/><path d="M283.7,176.07a1.89,1.89,0,0,0-3.23-.57,19.24,19.24,0,0,1-2.47,2.27,5.08,5.08,0,0,1-4.29.86c-7.93-1.81-10,3.68-10.51,5.4a6.77,6.77,0,0,0,4.71,7.79,12.16,12.16,0,0,0,15.79-15.75Z" style="fill:#e6e6e6;opacity:0.30000000000000004"/><path d="M274.86,93.33c-2.24,0-11.22-.11-11.36-3.06,0,0-4.51,2.13-8.05,3.45-19.3,7.15-11.31,59.83-24.69,69.71s70.15,32.07,62,3.88c-3.52-12.09,2-15.49-2.22-29.16-3.22-10.5-2.36-5.52-4.79-18-3.23-16.56-8.8-25-10.11-26.56A1,1,0,0,0,274.86,93.33Z" style="fill:#f6c24c"/><path d="M270.67,224.83c.38,1.77-3.19,11.48-6.54,18.53-5.7,12-7.45,33.09-7.74,42.32a4.39,4.39,0,0,0,5.09,1.45c2.12-.74,7.92-6.9,17.1-26.24,2.29-4.84,10-18.88,11.92-25.11.36-1.13,1.73-4.87,1.59-6.29-6.28-2.13-13.63-12.83-20.7-12.65C271.4,216.87,270.66,224.81,270.67,224.83Z" style="fill:#371880"/><g style="opacity:0.2"><path d="M295.17,151.53c-14.07,3.45-11.8,5.07-31.78,5.13-22.76.07-23.19-27.38-18.25-45.44,3.15-11.52,6.27-5.53,11.64-14.07,1-1.57,1.18-1,2.84-.18A3.74,3.74,0,0,1,261,98.29c2.31,3.28-5.77,2.35-5.28,6.34.79,6.42-1,13.08.75,19.31,1.65,6,6.26,10.65,11,14.63,4.32,3.61,9.08,7,14.58,8.17,4.93,1.08,10.13.14,13.32,4" style="fill:#f17329"/></g><g style="opacity:0.2"><path d="M290.5,138.15a17.11,17.11,0,0,0-7.76-5c-2.48-.75-5-1.26-7.41-2.17-9.42-3.53-3.28-20.18-7.8-20.67-.95-.09-5.82,5.18-6.77,5.25-1.83.16-3,2.27-2.76,4.1a9.43,9.43,0,0,0,2.64,4.76A47.15,47.15,0,0,0,273.17,135,28.35,28.35,0,0,0,289,138.76" style="fill:#f17329"/></g><path d="M366.23,104.1A28.82,28.82,0,1,1,333.38,80,28.79,28.79,0,0,1,366.23,104.1Z" style="fill:#371880;fill-rule:evenodd"/><path d="M353.35,132.69c-.68-.32-1.08-.54-1.08-.54-7-4-13.92-10.12-16.69-21.07-3.4-13.41-9.84-20.62-17.27-23.88a28.81,28.81,0,0,0,35,45.49Z" style="fill:#f7f7f8;fill-rule:evenodd;opacity:0.15"/><path d="M353.25,112.4h0a15.78,15.78,0,0,0-1.19-5.48c-4.76-11.37-3.68-19.77-16.82-17.75-7.63,1.18-14.91,9.84-13.89,21.4.06.62.14,1.24.24,1.84h0v.07c1.73,10.26,9.68,17.6,17.59,17.06C347.4,129,353.55,120.76,353.25,112.4Z" style="fill:#f8f8f8;fill-rule:evenodd;opacity:0.2"/><path d="M346.53,110.16c1.68,6.22-2,14.21-6.31,15.35s-11.55-4-13.23-10.16,1.64-11.65,6.94-13S344.85,104,346.53,110.16Z" style="fill:#f8f8f8;opacity:0.5"/><g style="opacity:0.7000000000000001"><path d="M340.11,113.83c.58,2.15-.45,4.16-1.77,4.51s-3.4-.84-4-3,.33-3.73,2-4.17S339.53,111.69,340.11,113.83Z" style="fill:#f8f8f8;opacity:0.4"/></g><path d="M337.13,139.83c-1.76.95,2.91-4.48-.12-4-2.66.29,2.19-2.09,2.27-3.07.06-1.93-4.18.36-6.15,1.15a51.27,51.27,0,0,1-13,3.34l2.4,3.31" style="fill:#f0b293"/><path d="M260,92.26c-12.38,2.52-17.23,23.28-14.49,33.88a47,47,0,0,0,13.81,23.47c15.35,14,63.6-7.71,63.82-8.46,0,0-.24-4.23-1.88-4.09-28.69,2.54-45.27-1-47.24-2.3-6.74-4.43-7-19-5.39-24.88" style="fill:#f6c24c"/><path d="M279.77,80.78l-6.28-.11S277.06,83,279.77,80.78Z" style="opacity:0.21"/><path d="M155.08,281.18c10.13,7.14,19.37,18.68,17.35,21.54s-16-2-26.12-9.09-14.15-14-11.65-17.53S145,274.05,155.08,281.18Z" style="fill:#371880;opacity:0.2"/><path d="M515,119.84c-15.53,20.23-57.29,3.09-57.53,0l1.48-3.75s.27-.5.68-.45c40.15,4.86,52.91-17.14,54.07-19.79" style="fill:#246799"/><path d="M561.88,221.72c.92,1.56,8.93,3.34,16.17,6.25,12.34,4.95,30.68,25.26,37.16,31.83a4.4,4.4,0,0,1-2.75,4.52c-2.07.9-13.25-5.7-33.12-13.67-5-2-20.14-7.1-25.8-10.34-1-.59-4.14-2.94-5.35-3.8,3.16-5.83,8.34-10.2,13.64-14.86Z" style="fill:#686175"/><path d="M513.2,153.17c6.32,1.16,4.64.78,11.22,1.49,9.39,1,18.47,1.27,18.47,1.27,22.28,10.19,20.43,49.09,22.84,70.52-6.76,2.08-12.14,6.19-17.41,10.2-7-11.91-16.19-36.94-25.39-58.9-2.59-5-11.69-8.82-15.3-14.33C505.56,159.92,512.74,156.7,513.2,153.17Z" style="fill:#686175"/><path d="M613.74,269.08c-.83.09-3.73.77-2.44,4.83s3.82,8.41,3.54,11.1c-.32,3.11,2.32,4.12,3.12,1.46,1.12-3.75,5.58-19.31,5.58-19.31s1.1-3.8-2-4.67a3,3,0,0,0-3.95,2.62A4.23,4.23,0,0,1,613.74,269.08Z" style="fill:#686175"/><path d="M530.51,291.86c-.8-.29-3.7-.9-4.27,3.33s-.12,9.24-1.52,11.56c-1.62,2.68.34,4.71,2.2,2.64,2.6-2.91,13.28-15.09,13.28-15.09s2.61-3,.16-5.09a3,3,0,0,0-4.7.69A4.2,4.2,0,0,1,530.51,291.86Z" style="fill:#686175"/><path d="M516,86.3c-1.12,1.18-5.61.5-6.51-.76,0,0-4.27-8.75-1-27.76.9-5.22-1.1-2.43,10.18-3.76,10.41-1.23,10.45,19.54,12.18,17.73-.3.7-.71,1.65-1.16,2.72L531,71.56a1,1,0,0,1-.15.19c.47-1.07.7-1.54.48-.93h0s2.53-2.17,4.18-.64-3.46,5.45-6.39,5.61c-1.69,4-3.71,8.83-3.71,8.83L528.81,99l-15.48,3.84S516.7,85.59,516,86.3Z" style="fill:#f0b293"/><path d="M515.87,71.91a.83.83,0,0,0,.82.84.84.84,0,0,0,.86-.81.87.87,0,0,0-.82-.86A.85.85,0,0,0,515.87,71.91Z" style="opacity:0.21"/><path d="M509.39,71.58a.84.84,0,0,0,1.68,0,.85.85,0,0,0-.82-.86A.87.87,0,0,0,509.39,71.58Z" style="opacity:0.21"/><path d="M527.28,78c-4.53-8.91.77-12.47-1.61-15.71-3.5-4.78-1.83,4.08-12,4-20.26-.22-11.35-21.35-3.88-19.72,8.23,1.78,10.62-6.44,20.15-2.26,8.28,3.63,4.1,9.41,10.09,11.29,5.69,1.79,6.87,15.35.53,21.11C516.88,98.27,527.28,78,527.28,78Z" style="fill:#ef6a45"/><path d="M516,86.93c.05-.21-.15-.45,0-.63s.88-.45,1.25-.6a9.86,9.86,0,0,0,3.17-2.12c0,.81-.7,1.42-1.3,2a9.73,9.73,0,0,0-2.83,4.69,4.44,4.44,0,0,1-1,2.35,13,13,0,0,1,.24-2.72A21.28,21.28,0,0,1,516,86.93Z" style="fill:#e3a48a"/><path d="M513.06,140.2c4.72,4.36,3.51,3.13,8.69,7.25,7.43,5.82,15,10.92,15,10.92,13.43,20.5-7.62,47-17,66.46-6.82-1.83-14.83,4.15-21.43,4.73.45-13.79,1-41.51,4.94-65,.47-5.62-.21-12.08-.33-18.66C503,141.85,510.79,143,513.06,140.2Z" style="fill:#686175"/><path d="M515.5,93.33c2.25,0,11.22-.11,11.36-3.06,0,0,4.51,2.13,8,3.45,19.3,7.15,11.32,59.83,24.69,69.71s-70.15,32.07-62,3.88c3.51-12.09-2-15.49,2.21-29.16,3.23-10.5,2.36-5.52,4.8-18,3.23-16.56,8.79-25,10.11-26.56A.92.92,0,0,1,515.5,93.33Z" style="fill:#5f90b5"/><path d="M519.7,224.83c-.39,1.77,3.19,11.48,6.53,18.53,5.7,12,7.45,33.09,7.75,42.32a4.4,4.4,0,0,1-5.09,1.45c-2.12-.74-7.92-6.9-17.1-26.24-2.3-4.84-10-18.88-11.93-25.11-.36-1.13-1.72-4.87-1.58-6.29,6.28-2.13,13.63-12.83,20.69-12.65C519,216.87,519.7,224.81,519.7,224.83Z" style="fill:#686175"/><path d="M495.19,151.53C509.26,155,507,156.6,527,156.66c22.77.07,23.19-27.38,18.26-45.44-3.16-11.52-6.27-5.53-11.65-14.07-1-1.57-1.18-1-2.84-.18a3.64,3.64,0,0,0-1.35,1.32c-2.32,3.28,5.76,2.35,5.27,6.34-.78,6.42,1,13.08-.75,19.31-1.65,6-6.25,10.65-11,14.63-4.32,3.61-9.08,7-14.58,8.17-4.93,1.08-10.13.14-13.32,4" style="fill:#246799"/><path d="M499.86,138.15a17.09,17.09,0,0,1,7.77-5c2.47-.75,5-1.26,7.4-2.17,9.42-3.53,3.28-20.18,7.81-20.67.94-.09,5.81,5.18,6.76,5.25,1.84.16,3,2.27,2.76,4.1a9.48,9.48,0,0,1-2.63,4.76A47,47,0,0,1,517.19,135a28.31,28.31,0,0,1-15.81,3.73" style="fill:#246799"/><path d="M424.13,104.1A28.82,28.82,0,1,0,457,80,28.79,28.79,0,0,0,424.13,104.1Z" style="fill:#5f90b5;fill-rule:evenodd"/><path d="M444.52,103.37a4.31,4.31,0,0,0,4,3.42,4.35,4.35,0,0,0,4.27-3.42,4.31,4.31,0,0,0,4,3.42,4.36,4.36,0,0,0,4.27-3.42,4.31,4.31,0,0,0,4,3.42V118c0,3.62-3.93,8.29-12.41,8.29s-12.2-4.67-12.2-8.29V106.77A4.37,4.37,0,0,0,444.52,103.37Z" style="fill:#f8f8f8;opacity:0.7000000000000001"/><path d="M440.25,106.79a4.36,4.36,0,0,0,4.27-3.42,4.31,4.31,0,0,0,4,3.42,4.35,4.35,0,0,0,4.27-3.42,4.31,4.31,0,0,0,4,3.42,4.36,4.36,0,0,0,4.27-3.42,4.31,4.31,0,0,0,4,3.42,4.54,4.54,0,0,0,4.47-4.75c0-.42-4-6.87-4.05-7.3H440.1c-.08.36-4.05,6.75-4.07,7.11C436,104.72,437.89,106.73,440.25,106.79Z" style="fill:#f8f8f8;opacity:0.7000000000000001"/><path d="M436,101.85c-.07,2.87,1.86,4.88,4.22,4.94a4.36,4.36,0,0,0,4.27-3.42,4.31,4.31,0,0,0,4,3.42,4.35,4.35,0,0,0,4.27-3.42,4.31,4.31,0,0,0,4,3.42,4.36,4.36,0,0,0,4.27-3.42,4.31,4.31,0,0,0,4,3.42,4.54,4.54,0,0,0,4.47-4.75" style="fill:#fff;opacity:0.7000000000000001"/><path d="M437,132.69c.68-.32,1.08-.54,1.08-.54,7.05-4,13.92-10.12,16.69-21.07,3.41-13.41,9.85-20.62,17.28-23.88A28.82,28.82,0,0,1,437,132.69Z" style="fill:#f7f7f8;fill-rule:evenodd;opacity:0.15"/><path d="M453.23,139.83c1.76.95-2.91-4.48.12-4,2.66.29-2.19-2.09-2.27-3.07-.06-1.93,4.18.36,6.15,1.15a51.27,51.27,0,0,0,13,3.34l-2.4,3.31" style="fill:#f0b293"/><path d="M530.33,92.26c12.39,2.52,17.24,23.28,14.5,33.88A47,47,0,0,1,531,149.61c-15.35,14-63.6-7.71-63.82-8.46,0,0,.24-4.23,1.89-4.09,28.69,2.54,45.26-1,47.23-2.3,6.75-4.43,7-19,5.39-24.88" style="fill:#5f90b5"/><path d="M510.6,80.78l6.28-.11S513.31,83,510.6,80.78Z" style="opacity:0.21"/><path d="M635.28,281.18c-10.12,7.14-19.36,18.68-17.35,21.54s16-2,26.12-9.09,14.15-14,11.65-17.53S645.4,274.05,635.28,281.18Z" style="fill:#371880;opacity:0.2"/><path d="M627.83,81.75c-.51.36-.38.79-.8.94s.92.47,1.33.34a.74.74,0,0,0,.52-.87A.69.69,0,0,0,627.83,81.75Z" style="fill:#afd3dc;opacity:0.58"/><path d="M626.1,80.53c-.17.6-.61.63-.62,1.08s-.75-.72-.77-1.15a.74.74,0,0,1,.65-.78A.7.7,0,0,1,626.1,80.53Z" style="fill:#afd3dc;opacity:0.58"/><path d="M608.73,86.26c-1.1-6.87,3.26-9.32,1.28-13.85-1.55-3.52,10.91,3.72,13.14,8a8.24,8.24,0,0,1-2.86,10.91C616.91,93.67,609.67,92.18,608.73,86.26Z" style="fill:#afd3dc;opacity:0.58"/><path d="M628.21,100c6.85-1.29,7.68-6.23,12.62-5.88,3.83.26-7.19-9-12-9.66a8.23,8.23,0,0,0-9.3,6.38C618.49,94.77,622.33,101.09,628.21,100Z" style="fill:#afd3dc;opacity:0.58"/><path d="M626,97.48c-1.35,4.76-4.91,5-5,8.56-.06,2.75-5.94-5.67-6.08-9.13a5.85,5.85,0,0,1,5.12-6.18C623,90.25,627.18,93.38,626,97.48Z" style="fill:#afd3dc;opacity:0.58"/><path d="M611,86.88c-4,2.89-3.09,6.33-6.38,7.59-2.56,1,7.34,3.67,10.64,2.63a5.86,5.86,0,0,0,4.1-6.9C618.8,87.33,614.43,84.4,611,86.88Z" style="fill:#afd3dc;opacity:0.58"/><path d="M710.32,56.09c-.4.29-.3.63-.63.76s.73.37,1.06.26a.58.58,0,0,0,.42-.69A.57.57,0,0,0,710.32,56.09Z" style="fill:#afd3dc;opacity:0.58"/><path d="M708.94,55.11c-.13.49-.49.51-.5.87s-.59-.57-.61-.92a.59.59,0,0,1,.52-.62A.55.55,0,0,1,708.94,55.11Z" style="fill:#afd3dc;opacity:0.58"/><path d="M695,59.7c-.87-5.49,2.62-7.45,1-11.08-1.24-2.81,8.73,3,10.51,6.43a6.58,6.58,0,0,1-2.29,8.73C701.59,65.63,695.8,64.44,695,59.7Z" style="fill:#afd3dc;opacity:0.58"/><path d="M710.63,70.68c5.48-1,6.14-5,10.09-4.71,3.07.21-5.74-7.22-9.6-7.73a6.59,6.59,0,0,0-7.44,5.11C702.85,66.51,705.93,71.56,710.63,70.68Z" style="fill:#afd3dc;opacity:0.58"/><path d="M708.88,68.67c-1.09,3.82-3.93,4-4,6.86,0,2.19-4.75-4.54-4.86-7.31a4.69,4.69,0,0,1,4.09-4.95C706.42,62.89,709.81,65.39,708.88,68.67Z" style="fill:#afd3dc;opacity:0.58"/><path d="M696.83,60.2c-3.23,2.31-2.48,5.06-5.11,6.07-2,.78,5.88,2.94,8.52,2.1a4.68,4.68,0,0,0,3.28-5.52C703.1,60.56,699.6,58.21,696.83,60.2Z" style="fill:#afd3dc;opacity:0.58"/></svg>