<svg xmlns="http://www.w3.org/2000/svg" xmlns:xlink="http://www.w3.org/1999/xlink" viewBox="0 0 1177.65 366.89"><defs><linearGradient id="a" x1="65.55" y1="199.26" x2="341.3" y2="199.26" gradientUnits="userSpaceOnUse"><stop offset="0" stop-color="#fff"/><stop offset="0.03" stop-color="#fff" stop-opacity="0.93"/><stop offset="0.14" stop-color="#fff" stop-opacity="0.72"/><stop offset="0.26" stop-color="#fff" stop-opacity="0.53"/><stop offset="0.37" stop-color="#fff" stop-opacity="0.36"/><stop offset="0.49" stop-color="#fff" stop-opacity="0.23"/><stop offset="0.61" stop-color="#fff" stop-opacity="0.13"/><stop offset="0.73" stop-color="#fff" stop-opacity="0.06"/><stop offset="0.86" stop-color="#fff" stop-opacity="0.01"/><stop offset="1" stop-color="#fff" stop-opacity="0"/></linearGradient><linearGradient id="b" x1="902.26" y1="199.49" x2="1160.07" y2="199.49" xlink:href="#a"/><clipPath id="c"><path d="M1094.14,190.45l-12.61-2.4s-22.18,52.69-18.83,81.91c1.25,10.88,22,53.79,23.59,54.25s5.35.08,6.14-4.7c.59-3.51-2-32.69-8.69-41.58-2.78-3.7,14.84-36.2,12.31-53.12C1092.52,201.1,1094.14,190.45,1094.14,190.45Z" style="fill:none"/></clipPath><linearGradient id="d" x1="3566.17" y1="660.26" x2="3682.45" y2="677.63" gradientTransform="translate(-2565.42 -26.74) rotate(-7.86)" gradientUnits="userSpaceOnUse"><stop offset="0.13" stop-color="#39317b"/><stop offset="1" stop-color="#813690"/></linearGradient><clipPath id="e"><path d="M1064.07,135s-.88-14.85,15.83-12c16.56,2.81,18.74,4.22,27.45-10.9,6.38-11.06,31.21-18.44,42.62,4.38,8,16,11.94,15.22,18.27,18.23,12.07,5.76,10.25,21.32,3.07,29.92-12.72,15.25-28.22,11.3-32.54,10.73-19.94-2.61-19.07-16.16-45.65-2.79-28.52,14.37-29.44-1.52-18.51-13.17,5.06-5.39,5.23-19.78,2.19-18-5.12,3-7.73-4.73-9.69-3.47S1064.25,137.34,1064.07,135Z" style="fill:none"/></clipPath><linearGradient id="f" x1="191.53" y1="153" x2="175.6" y2="89.28" gradientUnits="userSpaceOnUse"><stop offset="0.25" stop-color="#0080b0"/><stop offset="0.41" stop-color="#097bac"/><stop offset="0.66" stop-color="#226ea1"/><stop offset="0.99" stop-color="#4b598f"/><stop offset="1" stop-color="#4d588e"/></linearGradient><clipPath id="g"><path d="M189.36,191.26a79.31,79.31,0,0,1-9.65,2.66c-8.11,2-11.85,2.93-11.85,2.93-17.88.26-17.75,38.19-15.68,64.93a49.94,49.94,0,0,1,16.61,6.32c4.68-11.27,9.59-33.79,15-54.14,1.67-4.7,9.18-9.13,11.68-14.38C196.86,196.26,190.18,194.3,189.36,191.26Z" style="fill:none"/></clipPath><clipPath id="h"><path d="M596,189.46a79.78,79.78,0,0,1-9,4.44c-7.59,3.45-11.09,5.09-11.09,5.09-17.51,3.62-10.27,40.85-3.22,66.72a50.06,50.06,0,0,1,17.5,3.09c2.48-11.95,3.08-35,4.58-56,.76-4.93,7.3-10.69,8.77-16.32C604.3,193,597.37,192.3,596,189.46Z" style="fill:none"/></clipPath><linearGradient id="i" x1="607.66" y1="152" x2="591.73" y2="88.28" xlink:href="#f"/><clipPath id="j"><polygon points="656.85 242.9 680.33 189.16 641.14 177.81 617.89 222.97 656.85 242.9" style="fill:none"/></clipPath><clipPath id="k"><path d="M943.31,197.09a78.36,78.36,0,0,1-8.91,4.56c-7.54,3.57-11,5.26-11,5.26-17.47,3.87-9.69,41-2.26,66.76a49.78,49.78,0,0,1,17.54,2.84c2.31-12,2.58-35,3.77-56,.69-5,7.15-10.8,8.54-16.45C951.67,200.48,944.73,199.91,943.31,197.09Z" style="fill:none"/></clipPath><linearGradient id="l" x1="950.89" y1="155.87" x2="934.96" y2="92.15" xlink:href="#f"/><clipPath id="m"><path d="M978.3,144.77s1.5,39.67,2.11,41.95,50.08-.18,51,0-.45-40.84-.45-40.84Z" style="fill:none"/></clipPath><linearGradient id="n" x1="997.89" y1="173.1" x2="1016.29" y2="154.71" gradientUnits="userSpaceOnUse"><stop offset="0.3" stop-color="#803790"/><stop offset="0.51" stop-color="#7d378f"/><stop offset="0.65" stop-color="#74368c"/><stop offset="0.77" stop-color="#653488"/><stop offset="0.88" stop-color="#503181"/><stop offset="0.98" stop-color="#342e78"/><stop offset="1" stop-color="#2d2d76"/></linearGradient><linearGradient id="o" x1="997.95" y1="178.03" x2="1015.75" y2="163.1" gradientUnits="userSpaceOnUse"><stop offset="0.24" stop-color="#f07330"/><stop offset="0.37" stop-color="#ea6f36"/><stop offset="0.55" stop-color="#d86448"/><stop offset="0.75" stop-color="#bb5264"/><stop offset="0.98" stop-color="#93398c"/><stop offset="1" stop-color="#8f3690"/></linearGradient><linearGradient id="p" x1="1001.88" y1="174.75" x2="1012.67" y2="165.69" gradientUnits="userSpaceOnUse"><stop offset="0.11" stop-color="#f8a831"/><stop offset="0.37" stop-color="#f7a431"/><stop offset="0.6" stop-color="#f69931"/><stop offset="0.83" stop-color="#f38730"/><stop offset="1" stop-color="#f07330"/></linearGradient></defs><g style="isolation:isolate"><path d="M339.61,209.24h0a122.13,122.13,0,0,0-15.57-42.67C272.59,80.44,273.08,12,164.76,42.21,102,59.72,49.65,137,70,228.53q1.65,7.38,3.85,14.52h0l.18.5C99,324,173.18,374.32,239.07,361.63,307.34,348.49,350.56,275.93,339.61,209.24Z" style="fill-rule:evenodd;fill:url(#a)"/><g style="opacity:0.12"><path d="M1166,224.44h0a126.53,126.53,0,0,0-9.59-44.17c-38.32-91.63-29.6-159.25-135.57-143C959.46,46.74,900.79,116.56,909,209.68c.47,5,1.11,10,1.91,14.83,0,0,0,0,0,0l.09.53c13.94,82.66,78,141.75,141.73,137.5C1118.83,358.11,1168.35,291.75,1166,224.44Z" style="fill:#3573a1;fill-rule:evenodd;opacity:0.25"/></g><path d="M1160,225.11h0a126.53,126.53,0,0,0-9.59-44.17c-38.32-91.63-29.6-159.26-135.57-143C953.46,47.4,894.79,117.23,903,210.35c.47,5,1.11,10,1.91,14.82,0,0,0,0,0,0l.09.52c13.94,82.66,78,141.76,141.73,137.5C1112.83,358.78,1162.35,292.42,1160,225.11Z" style="fill-rule:evenodd;opacity:0.25;fill:url(#b)"/><path d="M353,280.15c-3.8-6.56-.34-10.76-4.13-14.58-2.95-3,12.55-.51,16.5,3a9,9,0,0,1,1.37,12.2C364.23,284.44,356.3,285.79,353,280.15Z" style="fill:#bfd3e1;opacity:0.9"/><path d="M369.9,276.31s-3.95,4.31-.17,14.27c2,5.41-2.77,1.47-4-4.44-1.39-6.57,1.91-9.44,2.76-11.65" style="fill:#bfd3e1;fill-rule:evenodd"/><path d="M382.68,275.66c2-10-4.22-13.87-1-20.38,2.48-5.06-16.22,4.79-19.73,11s-1.33,12.52,3.53,16.15S380.94,284.26,382.68,275.66Z" style="fill:#bfd3e1"/><g style="opacity:0.4"><path d="M350.18,262c-8.82-15.21-.79-25-9.59-33.82-6.84-6.89,29.11-1.18,38.27,7s9.12,19.7,3.19,28.29S357.79,275.1,350.18,262Z" style="fill:#f8f8f9;opacity:0.9"/><path d="M389.34,253.12s-9.16,10-.4,33.1c4.75,12.54-6.43,3.4-9.36-10.31-3.23-15.23,4.42-21.89,6.4-27" style="fill:#f8f8f9;fill-rule:evenodd"/><path d="M419,251.6c4.69-23.2-9.81-32.16-2.4-47.26,5.74-11.74-37.63,11.11-45.77,25.48s-3.09,29.05,8.2,37.47S415,271.56,419,251.6Z" style="fill:#f8f8f9"/></g><path d="M229.66,303.24l89.76,5.35c11.1.7,19.79-7.24,20.13-18.39l5.89-197.69a12.38,12.38,0,0,0-11.72-12.4l-85.37-1.58a18.38,18.38,0,0,0-19.08,17.41L214.61,286C214,294.53,221.08,302.71,229.66,303.24Z" style="fill:#d1cfcf;opacity:0.8"/><path d="M224,297.46l93.66,5.6a15.6,15.6,0,0,0,17-15.54L340.6,88.83a8.72,8.72,0,0,0-8.26-8.74l-89.1-1.65a15.54,15.54,0,0,0-16.12,14.71l-14.73,191A12.83,12.83,0,0,0,224,297.46Z" style="fill:#fff"/><polygon points="220.51 265.28 327.59 271.38 333.26 93.39 234.74 91.13 220.51 265.28" style="fill:#d1cfcf;opacity:0.61"/><path d="M267.88,283.78a6.42,6.42,0,0,0,3.79,7.4,4.8,4.8,0,0,0,6.5-3.47,6.41,6.41,0,0,0-3.79-7.4A4.81,4.81,0,0,0,267.88,283.78Z" style="fill:#d1cfcf;opacity:0.8"/><polygon points="226.64 91.09 346.23 94.03 347.97 102.51 223.41 99.75 226.64 91.09" style="fill:#eea897"/><path d="M297.1,114.72c-.29,5.57-6.37,10-13.58,9.8h0c-7.21-.15-12.83-4.78-12.54-10.35l.33-6.28,26.12.55Z" style="fill:#bfbdbd"/><path d="M245.22,107.35l-.33,6.27c-.29,5.57-6.37,9.95-13.58,9.8h0c-7.2-.15-12.8-4.78-12.52-10.35l.33-6.27Z" style="fill:#bfbdbd"/><polygon points="298.42 101.12 297.43 108.44 271.31 107.89 273.56 100.6 298.42 101.12" style="fill:#d7d7d7"/><polygon points="223.87 99.55 248.72 100.07 245.22 107.34 219.12 106.8 223.87 99.55" style="fill:#d7d7d7"/><path d="M349.78,110l-.33,6.28c-.29,5.56-6.36,9.95-13.57,9.8h0c-7.21-.16-12.81-4.79-12.52-10.35l.32-6.28Z" style="fill:#bfbdbd"/><polygon points="322.62 101.85 347.48 102.37 349.78 109.98 323.68 109.43 322.62 101.85" style="fill:#d7d7d7"/><path d="M323.2,115.27c-.29,5.57-6.38,10-13.58,9.79s-12.81-4.77-12.52-10.34l.33-6.28,26.1.55Z" style="fill:#eea897"/><path d="M271,114.17c-.29,5.57-6.36,10-13.56,9.8h0c-7.21-.15-12.82-4.78-12.53-10.35l.33-6.27,26.09.54Z" style="fill:#eea897"/><g style="opacity:0.9"><polygon points="323.28 101.64 323.52 108.99 297.43 108.44 298.42 101.12 323.28 101.64" style="fill:#f6c3b3"/><polygon points="273.56 100.6 271.31 107.89 245.22 107.34 248.72 100.07 273.56 100.6" style="fill:#f6c3b3"/></g><path d="M324.19,191.9a6.36,6.36,0,0,1-6.6,6.21L242,194a6.52,6.52,0,0,1-6-6.9l1.55-36a6.35,6.35,0,0,1,6.59-6.21L319.71,149a6.53,6.53,0,0,1,6,6.9Z" style="fill:#366e9f;opacity:0.09"/><path d="M320.63,221a6.36,6.36,0,0,1-6.6,6.21l-75.19-4.1a6.55,6.55,0,0,1-6-6.91l0-.88a6.36,6.36,0,0,1,6.59-6.21l75.2,4.1a6.53,6.53,0,0,1,6,6.9Z" style="fill:#366e9f;opacity:0.09"/><path d="M319.36,243.27a6.35,6.35,0,0,1-6.59,6.21l-75.2-4.11a6.54,6.54,0,0,1-6-6.9l0-.88a6.36,6.36,0,0,1,6.6-6.21l75.19,4.1a6.53,6.53,0,0,1,6,6.9Z" style="fill:#366e9f;opacity:0.09"/><path d="M323.58,189.13a6.37,6.37,0,0,1-6.6,6.21l-75.58-4.13a6.53,6.53,0,0,1-6-6.9l1.56-36a6.35,6.35,0,0,1,6.59-6.21l75.58,4.12a6.54,6.54,0,0,1,6,6.9Z" style="fill:#f7f7f7"/><path d="M320,218.25a6.36,6.36,0,0,1-6.6,6.21l-75.2-4.11a6.53,6.53,0,0,1-6-6.89l0-.89a6.36,6.36,0,0,1,6.6-6.21l75.2,4.1a6.53,6.53,0,0,1,6,6.9Z" style="fill:#f7f7f7"/><path d="M318.75,240.5a6.36,6.36,0,0,1-6.6,6.21L237,242.6a6.53,6.53,0,0,1-6-6.9l0-.88a6.36,6.36,0,0,1,6.6-6.21l75.2,4.1a6.54,6.54,0,0,1,6,6.9Z" style="fill:#f7f7f7"/><path d="M283.84,249.32a10.05,10.05,0,0,0-15.42-8.77h0c-.17.1-.34.21-.49.32l-.06.05-.39.3-.1.08-.35.29a.81.81,0,0,1-.09.1l-.39.37v0l-.4.42a.41.41,0,0,1-.05.09l-.3.35a1.46,1.46,0,0,1-.09.13c-.08.11-.17.23-.24.35a.94.94,0,0,1-.09.12,4.34,4.34,0,0,0-.28.46s0,0,0,0a4.91,4.91,0,0,0-.28.5.5.5,0,0,0-.05.13c-.06.12-.13.25-.18.38a.52.52,0,0,0-.07.16,4,4,0,0,0-.16.39,1,1,0,0,0,0,.16,5.08,5.08,0,0,0-.17.51s0,0,0,0c-.05.18-.09.37-.14.56l0,.16c0,.14-.06.28-.08.42s0,.12,0,.19a2.87,2.87,0,0,0-.05.41c0,.06,0,.12,0,.18a5.74,5.74,0,0,0,0,.6,10.08,10.08,0,0,0,9.8,10.32h.66l.41,0,.12,0c.13,0,.26,0,.4,0l.11,0a3.2,3.2,0,0,0,.41-.07h.07l.45-.09,0,0a4.27,4.27,0,0,0,.48-.13h0l.48-.15h0a3.8,3.8,0,0,0,.47-.18h0A10.07,10.07,0,0,0,283.84,249.32Z" style="fill-rule:evenodd;opacity:0.08"/><path d="M285.31,246.84a10.06,10.06,0,1,1-9.8-10.32A10.07,10.07,0,0,1,285.31,246.84Z" style="fill:#aac1d0;fill-rule:evenodd"/><path d="M275.11,240.93h0Z" style="fill:#999"/><g style="opacity:0.7000000000000001"><g style="opacity:0.7000000000000001"><path d="M278.14,245.11l.09-.81a3,3,0,1,0-6-.62l-.09.81a1.74,1.74,0,0,0-1.29,1.48l-.28,2.74a1.79,1.79,0,0,0,1.65,1.93l3.87.41.7.07a1.81,1.81,0,0,0,2-1.54l.28-2.74A1.74,1.74,0,0,0,278.14,245.11Zm-4.54-.61-.52-.05.07-.68a2.1,2.1,0,0,1,4.18.44l-.08.68Z" style="fill:#f7f7f7"/></g></g><path d="M273.87,247.84a.55.55,0,0,1-.47.53.57.57,0,0,1-.39-.62c0-.33.24-.49.49-.47A.46.46,0,0,1,273.87,247.84Z" style="fill:#f7f7f7"/><path d="M275.33,248c0,.32-.27.55-.47.53a.54.54,0,0,1-.38-.62c0-.32.23-.49.48-.47A.45.45,0,0,1,275.33,248Z" style="fill:#f7f7f7"/><path d="M276.81,248.15c0,.32-.29.54-.48.52a.55.55,0,0,1-.39-.61c0-.33.24-.5.49-.47S276.84,247.82,276.81,248.15Z" style="fill:#f7f7f7"/><path d="M279.13,255.87l-.35-.25a11.43,11.43,0,0,1-4.43-8.28c-.34-4.82-2.11-7.7-4.47-9.27a10.07,10.07,0,0,0,9.25,17.8Z" style="fill:#f7f7f8;fill-rule:evenodd;opacity:0.15"/><path d="M315.76,203.34A13.65,13.65,0,0,0,294,193h0c-.21.16-.43.32-.63.5l-.07.06-.5.44-.14.13-.42.43-.13.13-.49.56h0c-.16.21-.33.42-.48.63a.76.76,0,0,0-.08.11c-.13.17-.24.34-.36.52l-.11.17c-.1.17-.21.33-.3.5l-.1.17c-.13.22-.23.43-.34.65l0,0c-.11.23-.21.47-.31.71a1.22,1.22,0,0,0-.07.17,3.62,3.62,0,0,0-.2.55l-.09.22c-.05.18-.11.36-.16.54s0,.14-.07.21c-.05.24-.12.49-.17.72a.08.08,0,0,1,0,0c-.05.25-.09.51-.13.77l0,.22-.06.57c0,.08,0,.18,0,.26l0,.56a1,1,0,0,0,0,.25,7.3,7.3,0,0,0,0,.81,13.66,13.66,0,0,0,14.28,13c.24,0,.48,0,.71-.06l.19,0,.54-.07.16,0,.55-.1.14,0,.56-.13.1,0c.19-.06.4-.11.59-.18l.05,0a6.45,6.45,0,0,0,.62-.21l0,0,.63-.25h0c.22-.09.43-.19.63-.29h0A13.62,13.62,0,0,0,315.76,203.34Z" style="fill-rule:evenodd;opacity:0.08"/><path d="M319.14,197.79a13.65,13.65,0,1,1-14.29-13A13.64,13.64,0,0,1,319.14,197.79Z" style="fill:#aac1d0;fill-rule:evenodd"/><path d="M309.59,193.14c-.22,2.12-2.27,4.27-3.71,4.12s-3-2.68-2.78-4.8a3.27,3.27,0,1,1,6.49.68Z" style="fill:#f7f7f7;opacity:0.7000000000000001"/><path d="M311.07,203.93c-.17,1.67-2.17,3.63-6.18,3.21s-5.65-2.77-5.48-4.43l.17-1.57a3,3,0,0,1,3.34-2.71l5.61.59a3,3,0,0,1,2.7,3.34Z" style="fill:#f7f7f7;opacity:0.7000000000000001"/><path d="M311.66,210.62l-.49-.31a15.49,15.49,0,0,1-6.81-10.76c-.95-6.48-3.62-10.2-7-12.1a13.65,13.65,0,0,0,14.26,23.17Z" style="fill:#f7f7f8;fill-rule:evenodd;opacity:0.15"/><path d="M346.63,260.2a21.57,21.57,0,0,0-34.35-16.33h0c-.34.25-.68.5-1,.78a1.06,1.06,0,0,0-.12.1c-.26.22-.52.45-.78.7l-.22.2c-.22.22-.45.45-.66.68l-.21.2c-.26.29-.52.58-.77.88l0,0c-.26.32-.52.65-.76,1l-.13.18-.56.81-.18.28c-.16.26-.33.52-.47.79l-.16.27c-.2.34-.37.68-.54,1l0,0c-.17.36-.33.74-.49,1.11a1.62,1.62,0,0,0-.11.28,6,6,0,0,0-.32.86,3.82,3.82,0,0,0-.13.36c-.09.28-.18.57-.26.84,0,.12-.06.24-.1.35-.09.38-.2.76-.28,1.13a.11.11,0,0,1,0,.06c-.08.4-.14.81-.21,1.22,0,.12,0,.24,0,.35,0,.3-.07.6-.1.89s0,.29,0,.42c0,.3,0,.6,0,.89a2.54,2.54,0,0,0,0,.39c0,.43,0,.85,0,1.28a21.6,21.6,0,0,0,22.58,20.52c.38,0,.75,0,1.13-.09l.29,0,.85-.11.26-.05c.28,0,.58-.1.86-.16l.22-.05c.3-.07.6-.12.88-.21a.53.53,0,0,0,.16,0l.94-.27s.07,0,.08,0l1-.34s0,0,0,0c.34-.12.68-.27,1-.41h0l1-.46h0A21.54,21.54,0,0,0,346.63,260.2Z" style="fill-rule:evenodd;opacity:0.08"/><path d="M348.13,255.26a21.57,21.57,0,1,1-22.57-20.52A21.55,21.55,0,0,1,348.13,255.26Z" style="fill:#aac1d0;fill-rule:evenodd"/><path d="M334.39,243.69,321,242.29a5.2,5.2,0,0,0-5.57,4.77l-1.5,14.3-.21,2a5.18,5.18,0,0,0,4.45,5.82l13.35,1.41a5.19,5.19,0,0,0,5.57-4.77l1.5-14.31.22-2A5.2,5.2,0,0,0,334.39,243.69Z" style="fill:#f7f7f7;opacity:0.7000000000000001"/><path d="M322.16,251.09a1.64,1.64,0,1,1-1.46-1.81A1.64,1.64,0,0,1,322.16,251.09Z" style="fill:#aac1d0"/><path d="M321.65,256a1.64,1.64,0,1,1-1.46-1.81A1.64,1.64,0,0,1,321.65,256Z" style="fill:#aac1d0"/><path d="M321.14,260.84a1.64,1.64,0,1,1-1.46-1.81A1.65,1.65,0,0,1,321.14,260.84Z" style="fill:#aac1d0"/><path d="M333.59,252.89l-9.16-1a.59.59,0,0,1,.12-1.17l9.16,1a.58.58,0,1,1-.12,1.16Z" style="fill:#aac1d0"/><path d="M333.06,257.84l-9.15-1a.59.59,0,0,1,.12-1.17l9.16,1a.6.6,0,0,1,.52.65A.58.58,0,0,1,333.06,257.84Z" style="fill:#aac1d0"/><path d="M332.55,262.79l-9.16-1a.6.6,0,0,1-.52-.65.58.58,0,0,1,.64-.52l9.16,1a.59.59,0,0,1-.12,1.17Z" style="fill:#aac1d0"/><path d="M336.3,275.53l-.76-.48c-4.93-3.54-9.57-8.63-10.78-17-1.48-10.25-5.71-16.12-11-19.12a21.56,21.56,0,0,0,13.83,38.89A21.3,21.3,0,0,0,336.3,275.53Z" style="fill:#f7f7f8;fill-rule:evenodd;opacity:0.15"/><path d="M345.07,151.9a12,12,0,0,0-19.15-9.1h0c-.19.14-.38.28-.56.43l-.07.06c-.14.13-.29.25-.43.39a1.36,1.36,0,0,0-.12.12,4.31,4.31,0,0,0-.37.37l-.12.11-.43.49v0c-.14.17-.29.35-.42.54l-.08.1-.31.45-.1.16c-.09.15-.18.29-.26.44l-.09.15c-.11.19-.2.38-.3.57,0,0,0,0,0,0-.1.2-.19.41-.28.62a.94.94,0,0,0-.06.15,4.68,4.68,0,0,0-.18.48,1.29,1.29,0,0,0-.07.21c0,.15-.1.31-.14.46s0,.13-.07.2-.1.42-.15.63v0c-.05.22-.08.45-.12.68l0,.19c0,.17,0,.34-.05.5s0,.16,0,.24l0,.49v.22c0,.23,0,.47,0,.71a12,12,0,0,0,12.58,11.44l.63,0,.16,0,.48-.06.14,0a4,4,0,0,0,.48-.09l.12,0,.49-.12s.07,0,.09,0a4.61,4.61,0,0,0,.53-.15l0,0,.55-.19h0l.56-.22h0l.56-.26h0A12,12,0,0,0,345.07,151.9Z" style="fill-rule:evenodd;opacity:0.06"/><path d="M349.22,147.48A12,12,0,1,1,336.64,136,12,12,0,0,1,349.22,147.48Z" style="fill:#aac1d0;fill-rule:evenodd"/><path d="M342.63,158.78l-.43-.27a13.64,13.64,0,0,1-6-9.47c-.83-5.71-3.19-9-6.13-10.66a12,12,0,0,0,12.56,20.4Z" style="fill:#f7f7f8;fill-rule:evenodd;opacity:0.15"/><path d="M342.76,143.5c0,1.67-1.42,3.51-2.55,3.51s-2.55-1.84-2.55-3.51a2.55,2.55,0,1,1,5.1,0Z" style="fill:#f7f7f8;opacity:0.30000000000000004"/><path d="M344.78,151.76c0,1.31-1.38,3-4.53,3s-4.61-1.69-4.61-3v-1.23a2.37,2.37,0,0,1,2.37-2.37h4.4a2.37,2.37,0,0,1,2.37,2.37Z" style="fill:#f7f7f8;opacity:0.30000000000000004"/><path d="M340,143.5c0,1.67-1.41,3.51-2.54,3.51S335,145.17,335,143.5a2.55,2.55,0,1,1,5.09,0Z" style="fill:#f7f7f8;opacity:0.4"/><path d="M342.07,151.76c0,1.31-1.39,3-4.54,3s-4.61-1.69-4.61-3v-1.23a2.37,2.37,0,0,1,2.37-2.37h4.41a2.37,2.37,0,0,1,2.37,2.37Z" style="fill:#f7f7f8;opacity:0.4"/><path d="M337.46,143.5c0,1.66-1.41,3.5-2.55,3.5s-2.54-1.84-2.54-3.5a2.55,2.55,0,1,1,5.09,0Z" style="fill:#f7f7f8;opacity:0.7000000000000001"/><path d="M339.49,151.76c0,1.31-1.39,3-4.54,3s-4.61-1.68-4.61-3v-1.24a2.37,2.37,0,0,1,2.37-2.37h4.41a2.37,2.37,0,0,1,2.37,2.37Z" style="fill:#f7f7f8;opacity:0.7000000000000001"/><path d="M334.91,147h.14a14.25,14.25,0,0,0-1.84-5.57,2.77,2.77,0,0,0-.84,2.08C332.37,145.16,333.78,147,334.91,147Z" style="fill:#f7f7f8;opacity:0.12"/><path d="M335.19,148.15h-2.48a2.37,2.37,0,0,0-2.37,2.37v1.24c0,1.31,1.46,3,4.61,3a6.06,6.06,0,0,0,2.79-.59A11.23,11.23,0,0,1,335.19,148.15Z" style="fill:#f7f7f8;fill-rule:evenodd;opacity:0.08"/><path d="M219.36,152.87c.94-.28,3-.32,3.13,0,.56.86-1.52,1.53-3.13,2A13.62,13.62,0,0,1,219.36,152.87Z" style="fill:#f6c3b3"/><path d="M281.83,191.14c30.66-2.58,24.93-26.94,65.9-22.41,6.4.71,12.75,2.21,19.18,1.94A36,36,0,0,0,390.6,160.3s28.33-30.06,71.13,28.25c0,0,41.38,45.45,105.42-30" style="fill:none;stroke:#246799;stroke-miterlimit:10;stroke-width:0.42724599999999996px;stroke-dasharray:3.588860034942627"/><g style="opacity:0.4"><path d="M404.1,281.2c-.46-3.86,2-5.14,1-7.71-.78-2,6,2.32,7.16,4.78a4.62,4.62,0,0,1-1.84,6C408.51,285.52,404.5,284.53,404.1,281.2Z" style="fill:#bfd3e1;opacity:0.9"/><path d="M412.84,282.84s-2.74,1.22-3,6.69c-.14,3-1.6.12-1-2.92.68-3.38,2.83-4.06,3.68-4.92" style="fill:#bfd3e1;fill-rule:evenodd"/><path d="M419,285.14c3-4.3.84-7.39,3.67-9.81,2.2-1.88-8.62-1.06-11.54,1.15a6.18,6.18,0,0,0-1.63,8.33C411,287.47,416.42,288.84,419,285.14Z" style="fill:#bfd3e1"/></g><g style="opacity:0.7000000000000001"><path d="M413,280.62c-.45-3.87,2-5.15,1-7.72-.78-2,6,2.32,7.17,4.79a4.61,4.61,0,0,1-1.84,6C417.44,284.93,413.42,283.94,413,280.62Z" style="fill:#bfd3e1;opacity:0.9"/><path d="M421.77,282.26s-2.75,1.22-3,6.69c-.14,3-1.61.12-1-2.92.69-3.38,2.83-4.06,3.68-4.92" style="fill:#bfd3e1;fill-rule:evenodd"/><path d="M427.92,284.56c3-4.3.84-7.39,3.67-9.81,2.2-1.89-8.62-1.06-11.54,1.14a6.21,6.21,0,0,0-1.63,8.34C420,286.89,425.35,288.26,427.92,284.56Z" style="fill:#bfd3e1"/></g><path d="M405.7,287.53c2.25-2,1.48-4,3.38-5,1.48-.74-4.64-1.76-6.57-.94a3.56,3.56,0,0,0-2.05,4.41C401,287.73,403.76,289.23,405.7,287.53Z" style="fill:#bfd3e1;opacity:0.9"/><path d="M399.85,284s.94,2.11-1.73,5.38c-1.44,1.77.86.9,2.08-1.16,1.34-2.29.46-3.79.42-4.72" style="fill:#bfd3e1;fill-rule:evenodd"/><path d="M395.13,282.12c.5-4,3.32-4.67,2.95-7.51-.3-2.21,5.48,3.83,6,6.59a4.77,4.77,0,0,1-3.35,5.62C398.5,287.56,394.7,285.57,395.13,282.12Z" style="fill:#bfd3e1"/><g style="opacity:0.7000000000000001"><path d="M505.29,254.55c-9.12-17.32.26-27.81-9.14-38.05-7.29-8,32.43,0,42.27,9.49s9.25,22.34,2.27,31.64S513.17,269.43,505.29,254.55Z" style="fill:#f5f5f5;opacity:0.9"/><path d="M549.26,246.42s-10.66,10.71-2,36.82c4.71,14.16-7.31,3.49-9.95-11.9-2.9-17.09,5.93-24.17,8.37-29.74" style="fill:#f5f5f5;fill-rule:evenodd"/><path d="M582.31,246.09c6.27-25.61-9.45-36.22-.54-52.69,6.93-12.8-42.36,10.65-52.07,26.27s-4.74,32.19,7.43,42C549.14,271.45,576.92,268.1,582.31,246.09Z" style="fill:#f5f5f5"/></g><g style="opacity:0.5"><path d="M781.42,279.72c9.41-10.63,4.58-19.63,13-25.25,6.5-4.37-22.86-5.54-31.42-.54s-10.33,14.16-7,21.92S773.33,288.87,781.42,279.72Z" style="fill:#f5f5f5;opacity:0.6000000000000001"/><path d="M751.83,266.48s5.68,9.37-4.92,26.29c-5.73,9.16,4.56,3.7,9-6.7,5-11.54,0-18-.79-22.39" style="fill:#f5f5f5;fill-rule:evenodd"/><path d="M728.6,260.59c0-19.12,12.85-23.9,9.39-37-2.69-10.21,28,14.74,32.2,27.4s-2.16,23.5-12.43,28.37S728.63,277,728.6,260.59Z" style="fill:#f5f5f5"/></g><g style="opacity:0.5"><path d="M708.2,303.46c2.27-2.85.91-5.09,3-6.64,1.61-1.21-5.93-1.12-8.06.28a4.31,4.31,0,0,0-1.5,5.71C702.56,304.73,706.24,305.92,708.2,303.46Z" style="fill:#f5f5f5;opacity:0.9"/><path d="M700.43,300.46s1.58,2.33-.91,6.81c-1.35,2.42,1.22.89,2.23-1.84,1.12-3-.25-4.63-.5-5.73" style="fill:#f5f5f5;fill-rule:evenodd"/><path d="M694.39,299.26c-.26-4.9,3-6.3,1.92-9.62-.82-2.59,7.38,3.4,8.62,6.6a5.81,5.81,0,0,1-2.8,7.44C699.59,305,694.62,303.47,694.39,299.26Z" style="fill:#f5f5f5"/></g><g style="opacity:0.5"><path d="M940.66,299.39c9.46-33.11-10.52-47.75,1.94-68.82,9.66-16.37-55.83,11.79-69.33,31.7s-7.8,41.81,7.61,55.29C896.08,330.87,932.53,327.9,940.66,299.39Z" style="fill:#f5f5f5;opacity:0.9"/><path d="M847.57,296.77c-8.61-19.25,2.24-29.85-7.13-41.54-7.28-9.08,34.85,2.31,44.74,13.21s8.34,24.65.18,34.16S855,313.33,847.57,296.77Z" style="fill:#f5f5f5"/></g><path d="M249.39,156a3.77,3.77,0,0,0-1.34-.05c-1.44.16-5.4.05-10.92,4.44-2.52,2-5,4.11-7.47,6.16l.3,1.32,2.73.29S243.74,158.36,249.39,156Z" style="fill:#f6c3b3"/><path d="M237.13,160.38c1-.8,1,.57,2.18,0,1.31-.61,3.71-3,5.15-3.19,4.55-.56-4.33,2.19-3.06,4.11.64,1.21,5.29-.4,5.72.43,1,1.58-3.73,2.4-5.86,3.26-1.76.7-8.08,2.9-9.84,3.61" style="fill:#f6c3b3"/><path d="M863.08,295.67c-3.81-6.56-.34-10.77-4.14-14.58-3-3,12.55-.51,16.5,3a9,9,0,0,1,1.38,12.19C874.29,300,866.35,301.3,863.08,295.67Z" style="fill:#bfd3e1;opacity:0.9"/><path d="M880,291.83s-4,4.31-.18,14.27c2.05,5.4-2.77,1.46-4-4.45-1.39-6.56,1.9-9.44,2.76-11.64" style="fill:#bfd3e1;fill-rule:evenodd"/><path d="M892.74,291.17c2-10-4.23-13.86-1-20.37,2.48-5.07-16.22,4.79-19.73,11s-1.33,12.53,3.54,16.15S891,299.77,892.74,291.17Z" style="fill:#bfd3e1"/><path d="M722.14,296.66c1.38.41,2.76-.74,3.28-2.08,2.07-5.42,11-10.7,25.62-4.34,11,4.78,12.49,14.23,12.58,18.2a3.24,3.24,0,0,0,4.24,3c4.85-1.56,12.12-2.77,18.71.52a3.29,3.29,0,0,0,4.26-1.1c3.27-5,11.33-14.68,21.82-7.7a3.3,3.3,0,0,0,3.17.32c4.31-1.9,15.51-15.91,19.36-6.17a3.25,3.25,0,0,0,4.07,1.84c4.39-1.45,12-2.56,14.55,6.06.22.77,6,1,6.07,3.89,1.23,12.33-18,21.43-74.34,16.95-21.34-1.7-47.66-10.79-71.51-18.48C707.34,305.5,712.91,293.94,722.14,296.66Z" style="fill:#f7f7f8"/><path d="M974.74,348.16c1,.26,1.94-.67,2.25-1.71,1.28-4.22,7.47-8.58,18.1-4.21a15.41,15.41,0,0,1,9.66,13.51,2.34,2.34,0,0,0,3.13,2.12c3.41-1.35,8.54-2.53,13.36-.24a2.26,2.26,0,0,0,3-1c2.14-4,7.52-11.64,15.26-6.65a2.23,2.23,0,0,0,2.27.14c3-1.6,10.46-12.73,13.57-5.4a2.29,2.29,0,0,0,3,1.28c3.08-1.27,8.48-2.38,10.6,4.13.19.59,4.32.59,4.48,2.77.14,2.47,0,4-3.9,5.28,0,0-20,8.7-48.5,8.7-18.07,0-34.36-4.06-52-8.95C964.18,356.6,968.05,346.4,974.74,348.16Z" style="fill:#bfd3e1"/><path d="M655.09,101a34.35,34.35,0,0,0,29.67,16.88" style="fill:none;stroke:#246799;stroke-miterlimit:10;stroke-width:0.42724599999999996px;stroke-dasharray:3.588860034942627"/><path d="M608.85,273.79l60.06,9.92c7.43,1.25,15.18-2.48,18-8.64L736.34,165.8c1.6-3.55-.84-7.23-5.16-7.78l-57.93-7.5c-7-.89-14.12,2.54-17,8.19L602.54,263.05C600.12,267.74,603.11,272.83,608.85,273.79Z" style="fill:#d1cfcf;opacity:0.8"/><path d="M606.33,270.14,669,280.51c6.26,1.05,12.82-2.1,15.17-7.31l49.71-109.82c1.13-2.49-.59-5.1-3.64-5.48l-60.46-7.82c-5.9-.76-11.93,2.14-14.39,6.91L601.44,261.84C599.58,265.46,601.9,269.4,606.33,270.14Z" style="fill:#f7f7f8"/><polygon points="611.32 252.01 683.04 263.69 727.82 165.35 661.05 156.46 611.32 252.01" style="fill:#d1cfcf;opacity:0.61"/><path d="M639.42,266a2.81,2.81,0,0,0,.89,4.4,4.42,4.42,0,0,0,5.23-1.42,2.8,2.8,0,0,0-.88-4.4A4.44,4.44,0,0,0,639.42,266Z" style="fill:#cececf;opacity:0.30000000000000004"/><polygon points="655.54 155.82 736.53 166.71 735.77 171.55 651.34 160.37 655.54 155.82" style="fill:#eea897"/><path d="M698.22,174.39c-1.47,3.06-6.64,5-11.52,4.38h0c-4.89-.64-7.66-3.65-6.19-6.71l1.67-3.46,17.71,2.33Z" style="fill:#bfbdbd;opacity:0.5"/><path d="M664.49,166.27l-1.67,3.47c-1.48,3.06-6.63,5-11.52,4.38h0c-4.89-.65-7.65-3.65-6.17-6.71l1.66-3.46Z" style="fill:#bfbdbd;opacity:0.5"/><polygon points="702.25 166.94 699.89 170.93 682.18 168.6 685.39 164.72 702.25 166.94" style="fill:#d7d7d7"/><polygon points="651.7 160.29 668.55 162.51 664.49 166.27 646.79 163.95 651.7 160.29" style="fill:#d7d7d7"/><path d="M735.29,175.84l-1.67,3.46c-1.48,3.06-6.63,5-11.52,4.38h0c-4.89-.64-7.65-3.64-6.17-6.71l1.66-3.46Z" style="fill:#bfbdbd"/><polygon points="718.61 169.22 735.46 171.44 735.28 175.84 717.59 173.51 718.61 169.22" style="fill:#d7d7d7"/><path d="M715.92,176.72c-1.48,3.06-6.64,5-11.53,4.38s-7.64-3.65-6.17-6.71l1.67-3.46,17.7,2.32Z" style="fill:#eea897;opacity:0.5"/><path d="M680.51,172.06c-1.47,3.06-6.63,5-11.51,4.39h0c-4.89-.65-7.66-3.65-6.18-6.71l1.67-3.47,17.69,2.33Z" style="fill:#eea897;opacity:0.5"/><polygon points="719.11 169.15 717.59 173.25 699.89 170.93 702.25 166.94 719.11 169.15" style="fill:#f6c3b3"/><polygon points="685.39 164.72 682.18 168.6 664.49 166.27 668.55 162.51 685.39 164.72" style="fill:#f6c3b3"/><path d="M1082,177.31c-23,8.5-47.26.22-52.78-2.12a.9.9,0,0,1-.55-.9l.55-2.3s.1-.68,1-.53c39.35,6.94,35.84-16.86,43.72-15.35C1077.51,161,1082.83,155.61,1082,177.31Z" style="fill:#efa139;fill-rule:evenodd"/><g style="opacity:0.2"><path d="M1082,177.31c-23,8.5-47.26.22-52.78-2.12a.9.9,0,0,1-.55-.9l.55-2.3s.1-.68,1-.53c39.35,6.94,35.84-16.86,43.72-15.35C1077.51,161,1082.83,155.61,1082,177.31Z" style="fill:#ec733e;fill-rule:evenodd"/></g><path d="M1064.25,175a4.16,4.16,0,0,1,.9-3.88,19.5,19.5,0,0,1,3.11-2.76,21.66,21.66,0,0,0,4.9-5.64c.64-1.07.8-2.8,2-3.16,4.17-1.29.15,4.66,1.39,4.53s4.34-5.8,4.64-4.59a3.7,3.7,0,0,1-.64,2.67c-2.81,4.74-8.57,6.92-12,11.22a9.39,9.39,0,0,1-1.73,1.88,2.15,2.15,0,0,1-2.39.22" style="fill:#f19938;fill-rule:evenodd"/><path d="M1071.72,188.73a5.79,5.79,0,0,0-2.75.35,2,2,0,0,0-1.15,2.28c.35,1,1.58,1.26,2.6,1.26a11.56,11.56,0,0,0,4.35-.83c1.3-.52,2.49-1.28,3.76-1.87,2.34-1.1,4.89-1.66,7.32-2.56a11.75,11.75,0,0,0,6.16-4.47,12.23,12.23,0,0,0,1.41-4.26,16.41,16.41,0,0,0-.28-8.18,8.15,8.15,0,0,0-5.7-5.49,2.48,2.48,0,0,0-1.89.2,2.64,2.64,0,0,0-.83,1,7.83,7.83,0,0,0-.64,5.66c.36,1.35,1.1,2.65,1,4a7,7,0,0,1-1.5,3.35,31.2,31.2,0,0,1-5.26,6.24,12,12,0,0,1-7.42,3.1" style="fill:#f19938;fill-rule:evenodd"/><path d="M1071.72,187.53c-1.58-.05-3.32.06-4.41,1.37a2.8,2.8,0,0,0,.23,4,5.69,5.69,0,0,0,4.29.81,14.19,14.19,0,0,0,4.75-1.47,37.12,37.12,0,0,1,4.38-2.05c1.58-.56,3.2-1,4.78-1.55,2.74-1,5.41-2.39,7.09-4.85a11.84,11.84,0,0,0,1.67-4.45,23.58,23.58,0,0,0,.49-5.1,11.86,11.86,0,0,0-3.17-8.18c-1.9-1.9-5.85-3.79-7.83-1a8.41,8.41,0,0,0-1.35,4.27,12.09,12.09,0,0,0,.93,4.7,3.85,3.85,0,0,1,.22,2.32,7.6,7.6,0,0,1-1.17,2.17,41.67,41.67,0,0,1-3.24,4.24c-2.2,2.42-5.08,4.5-8.47,4.59a1.2,1.2,0,0,0,0,2.39c6-.15,10.15-4.83,13.33-9.38a10.55,10.55,0,0,0,1.91-3.57,7.85,7.85,0,0,0-.65-4.45,7.08,7.08,0,0,1-.38-3.73c.17-.85.52-2.62,1.64-2.56,2.17.1,4,2,4.86,3.82,1.25,2.49,1.14,5.52.69,8.2a12.44,12.44,0,0,1-1.18,3.92,7.57,7.57,0,0,1-2.4,2.57c-2.24,1.53-4.89,2.18-7.44,3a28.76,28.76,0,0,0-4.55,1.9,15.61,15.61,0,0,1-4.54,1.8,7.53,7.53,0,0,1-2.27.12c-.26,0-1-.15-1-.5s.41-.68.66-.79a5,5,0,0,1,2.14-.18c1.54,0,1.54-2.34,0-2.4Z" style="fill:#f19938"/><path d="M953.86,333c30,23.32,66.26,34.14,100.2,27.61,65.78-12.67,107.42-82.59,96.88-146.84h0a117.73,117.73,0,0,0-15-41.11c-49.6-83-49.12-148.95-153.49-119.84-33,9.2-67.07,31.8-82.86,79" style="fill:none;stroke:#246799;stroke-miterlimit:10;stroke-width:0.42724599999999996px;stroke-dasharray:3.588860034942627;fill-rule:evenodd"/><path d="M982,59.52a22.15,22.15,0,0,0-38.57-6.23h0a12.83,12.83,0,0,0-.77,1.05s0,.1-.07.14c-.2.31-.39.6-.58.91l-.15.26-.48.86c0,.08-.07.17-.11.26-.19.35-.36.72-.53,1.08,0,0,0,0,0,0l-.52,1.18a.4.4,0,0,1,0,.21,9.09,9.09,0,0,0-.33,1,2.34,2.34,0,0,0-.09.33,7.64,7.64,0,0,0-.24.91,1.87,1.87,0,0,1-.08.32,9.13,9.13,0,0,0-.24,1.18v0a10.83,10.83,0,0,0-.2,1.25,1.51,1.51,0,0,0,0,.3c0,.31-.07.63-.08,1a2.55,2.55,0,0,0,0,.38c0,.32,0,.62,0,.91a1.61,1.61,0,0,0,0,.38,11.52,11.52,0,0,0,.05,1.18s0,0,0,0c0,.44.09.85.14,1.28l.06.36c.05.31.1.61.17.92,0,.12,0,.27.07.42s.14.59.22.89a1.7,1.7,0,0,0,.1.37c.11.42.24.85.39,1.26a22.16,22.16,0,0,0,28.16,13.75c.37-.13.73-.26,1.1-.41l.26-.12c.27-.1.56-.23.83-.35a2,2,0,0,0,.23-.13,8.52,8.52,0,0,0,.8-.4,1.12,1.12,0,0,1,.22-.11c.24-.14.53-.28.78-.46l.15-.08.85-.55s.06,0,.07,0c.3-.2.61-.41.88-.63,0,0,0,0,0,0,.29-.22.57-.46.87-.7,0,0,0,0,0,0,.3-.24.57-.47.84-.73h0A22.15,22.15,0,0,0,982,59.52Z" style="fill-rule:evenodd;opacity:0.08"/><path d="M982.73,53.6a22.15,22.15,0,1,1-28.15-13.74A22.17,22.17,0,0,1,982.73,53.6Z" style="fill:#87acc7;fill-rule:evenodd"/><path d="M957.14,49.24l.09,0a.13.13,0,0,1,.07,0Z" style="fill:#999"/><path d="M976.92,77l-.91-.24c-5.89-2.09-11.92-5.77-15.51-13.68-4.41-9.68-10.28-14.26-16.35-15.68A22.16,22.16,0,0,0,976.92,77Z" style="fill:#f7f7f8;fill-rule:evenodd;opacity:0.15"/><path d="M971,51.87a.8.8,0,0,0-.67-.14l-19.25,5-1.68-3a.77.77,0,0,0-.87-.38l-3.93,1a.78.78,0,1,0,.39,1.51l3.34-.86L950,58h0l5.91,10.64a.78.78,0,0,0,.88.38l13.9-3.59a.78.78,0,0,0,.59-.76l0-12.16a.76.76,0,0,0-.3-.62ZM959.68,66.64l-2.68.69-1.18-2.13,3.26-.85Zm-1-3.8-3.66.94-1.18-2.13,4.25-1.09Zm-1-3.8-4.65,1.2-1.19-2.14,5.25-1.35Zm7.83,6.09-4.36,1.12L960.6,64,965,62.84Zm-1-3.8-4.36,1.12-.59-2.28L964,59Zm-1-3.8-4.36,1.12-.59-2.28L963,55.24Zm6.15,6.52-2.68.69-.59-2.29,3.27-.84Zm0-4.06-3.67.95-.59-2.29,4.26-1.1Zm0-4.05-4.64,1.19-.6-2.28,5.25-1.35Z" style="fill:#fff"/><path d="M959.36,72.32c-.32-1-.16-3,.85-3.34s2.37,1.13,2.69,2.12a1.83,1.83,0,0,1-1.14,2.35A1.87,1.87,0,0,1,959.36,72.32Z" style="fill:#f3f0f0"/><path d="M966.44,70.5c-.32-1-.15-3,.85-3.35s2.38,1.14,2.69,2.12a1.82,1.82,0,0,1-1.14,2.35A1.87,1.87,0,0,1,966.44,70.5Z" style="fill:#f3f0f0"/><path d="M905.22,154.42a13.1,13.1,0,0,0-22.32-6h0a6.91,6.91,0,0,0-.51.57l-.06.07c-.13.18-.26.33-.39.5s-.07.11-.1.15l-.34.48s0,.09-.08.14c-.13.2-.26.41-.37.61v0c-.12.22-.25.44-.37.67a.41.41,0,0,1,0,.12c-.09.18-.17.36-.25.54s0,.13-.07.19-.14.35-.2.52a.82.82,0,0,1-.06.19,4.75,4.75,0,0,0-.21.67v0c-.08.23-.14.47-.2.72,0,.06,0,.12,0,.18s-.08.36-.1.54a1,1,0,0,0,0,.23c0,.19-.06.36-.07.53a1.79,1.79,0,0,0,0,.23c0,.23,0,.46,0,.69,0,0,0,0,0,0,0,.27,0,.51,0,.77a1.49,1.49,0,0,0,0,.21,5.09,5.09,0,0,0,0,.55c0,.07,0,.17,0,.26s.05.35.08.53a1,1,0,0,0,0,.23,6.8,6.8,0,0,0,.15.76,13.11,13.11,0,0,0,15.75,9.78c.22-.05.44-.1.67-.17l.16-.06.51-.15.14-.06a5.1,5.1,0,0,0,.5-.19l.13-.06c.15-.06.33-.13.49-.21l.09-.05.53-.27.05,0,.56-.32h0c.19-.11.37-.24.56-.36,0,0,0,0,0,0l.54-.38h0A13.11,13.11,0,0,0,905.22,154.42Z" style="fill-rule:evenodd;opacity:0.08"/><path d="M906,151a13.11,13.11,0,1,1-15.74-9.78A13.12,13.12,0,0,1,906,151Z" style="fill:#f7f7f7;fill-rule:evenodd"/><path d="M891.2,146.87h.1Z" style="fill:#999"/><path d="M901.17,164.39l-.52-.2a14.94,14.94,0,0,1-8.3-9c-2-6-5.19-9-8.68-10.2a13.11,13.11,0,0,0,17.5,19.39Z" style="fill:#f7f7f8;fill-rule:evenodd;opacity:0.15"/><text transform="matrix(0.99, -0.15, 0.15, 0.99, 882.84, 159.19)" style="font-size:9.351710319519043px;fill:#87acc7;font-family:Nunito-Bold, Nunito Bold;font-weight:700">24hs</text><path d="M1001.48,343c-.37-6.07,3.63-7.84,2.28-11.94-1-3.18,9.17,4.16,10.74,8.1a7.2,7.2,0,0,1-3.41,9.24C1008,350.13,1001.79,348.24,1001.48,343Z" style="fill:#bfd3e1;opacity:0.9"/><path d="M1015,346.35s-4.38,1.67-5.26,10.16c-.48,4.61-2.52.05-1.29-4.64,1.36-5.2,4.76-6.07,6.16-7.35" style="fill:#bfd3e1;fill-rule:evenodd"/><path d="M1024.34,350.48c5.05-6.43,2-11.45,6.6-15,3.6-2.73-13.34-2.41-18.09.76a9.68,9.68,0,0,0-3.29,12.85C1011.72,353.41,1020,356,1024.34,350.48Z" style="fill:#bfd3e1"/><path d="M1094.14,190.45l-12.61-2.4s-22.18,52.69-18.83,81.91c1.25,10.88,22.82,52.74,23.59,54.25s6,.14,6.14-4.7c.08-2.08-.84-6.34-2.11-14.12-1.63-10-.66-19-6.58-27.46-2.63-3.79,14.84-36.2,12.31-53.12C1092.52,201.1,1094.14,190.45,1094.14,190.45Z" style="fill:#b93f87"/><g style="clip-path:url(#c)"><path d="M1085.42,279s2-.13,7.09-.55c6.35-13.09,6.25-31.07-4.88-38.59-9.36-6.33,3.52-12.59-5.39-5.23-6.26,2.63-13.31,21.13-12.75,27.71C1070.67,276,1078.1,279.6,1085.42,279Z" style="fill:#39317b;fill-rule:evenodd;opacity:0.4"/></g><path d="M1168.24,134.74c-6.33-3-10.29-2.25-18.27-18.23-11.41-22.82-36.24-15.44-42.62-4.38-8.71,15.12-10.89,13.71-27.45,10.9-6.29-1.08-10.08.36-12.38,2.57h0a.22.22,0,0,0,0,.08c-1.13,1.1-3.16,4.85-3.54,5.43-1.37,2.11-2.79,4.38-2.71,6.89.06,1.76.59,3.46.77,5.22.54,5.45-2.94,9.94-3.5,13.45s3.79,9.68,10.33,5.71a14.33,14.33,0,0,1,4.83-1.85c-9.88,11.51-8.17,26,19.48,12.08,26.58-13.37,25.71.18,45.65,2.79,4.32.57,19.82,4.52,32.54-10.73C1178.49,156.06,1180.31,140.5,1168.24,134.74Z" style="fill:url(#d)"/><path d="M1066.81,136s-.85-14.13,15.06-11.43,17.83,4,26.13-10.36c6.06-10.53,29.7-17.55,40.55,4.16,7.6,15.21,11.36,14.49,17.39,17.35,11.49,5.48,9.75,20.29,2.92,28.48-12.11,14.51-26.86,10.75-31,10.21-19-2.48-18.15-15.38-43.44-2.65-27.15,13.67-28-1.45-17.61-12.54,4.81-5.14,5-18.82,2.08-17.15-4.88,2.83-7.35-4.5-9.22-3.3S1067,138.24,1066.81,136Z" style="fill:#40307c;opacity:0.29"/><g style="clip-path:url(#e)"><path d="M1090.56,147.22s-2.52,2.81-8.87,10.14c8.35,24.91,33.07,40.31,57.85,34.92,20.86-4.52,35.58-22.41,38.11-43.53-6.1,2.8-17.1,5.14-17.1,5.14-8.19,1.23-17.59.57-26.87-6.94C1114.42,131.36,1099.72,136.76,1090.56,147.22Z" style="fill:#f7f7f7;fill-rule:evenodd;opacity:0.05"/></g><path d="M1087.67,158.93a11.27,11.27,0,0,0-3.75-2.71c-2.42-1.08-4.82-10-4.61-12.21a17.72,17.72,0,0,1-6.92,4.34s1,6.72-.49,8.2-.14,4.59-1.6,4.36c2.75,5.35,4.46,5.55,10.43,4.14S1088,160.61,1087.67,158.93Z" style="fill:#ecaa83"/><path d="M1088.09,329.26c-.6-.4-2.8-1.46-4.2,2.17s-2.15,8.14-3.8,9.94c-1.9,2.08-.78,4.22,1.18,2.73,2.74-2.11,14.06-11,14.06-11s2.76-2.16,1.26-4.47a2.37,2.37,0,0,0-3.92-.22A3.43,3.43,0,0,1,1088.09,329.26Z" style="fill:#b93f87"/><path d="M1153.54,274.78c-.61.38-2.48,2,.26,4.72s6.53,5.32,7.49,7.55c1.12,2.59,3.53,2.44,3,.05-.8-3.37-4.21-17.33-4.21-17.33s-.84-3.39-3.55-3a2.39,2.39,0,0,0-1.83,3.49A3.4,3.4,0,0,1,1153.54,274.78Z" style="fill:#b93f87"/><path d="M1083.55,229.09c-3.74,17.92-6.39,35.39-4,41.11s2.89,7.54,30.25,9.15c13.71.8,37.14-4.25,38.67-4.84s3.49-5.88-.68-6c-17.68-.41-35.45-14.4-45.2-6.08,0,0,4.54-7.24,11-22.55,2.61-6.15,4.75-12,4.95-18.33C1118.89,212.18,1088.41,205.86,1083.55,229.09Z" style="fill:#b93f87"/><path d="M1097.06,169.35c-6.08-8.87-7.94-11.63-14.76-14.88h0a2.46,2.46,0,0,0-.38.11c-1.4.4-6.05,1.75-9.67,1.45,0,0-14.75,11.55-6.13,32.66,0,2.22-1.37,18-1.71,24.52-.71,13.28-13.58,15.62-11.12,19.09,6.38,9,35.6,16.11,57.56-1.39,12.42-9.89,36.26-8.26,36.3-18.43C1147.19,194.29,1116.28,207.41,1097.06,169.35Z" style="fill:#efa139;fill-rule:evenodd"/><path d="M1074.47,148.85c-.69.29-1.16.06-1.58.67s-.16,2-.06,2.79a1.93,1.93,0,0,0,.21.79c.29.46.41.57.92.41a2.47,2.47,0,0,0,1.21-1c.3-.45.07-1.28.37-1.73.48-.73,2.08-1.81,2.6-2.51a3.46,3.46,0,0,0,.78-1.83c0-.64-.65-.34-1.26.07s-.89,1-1.4,1.36A8.76,8.76,0,0,1,1074.47,148.85Z" style="fill:#d59373"/><path d="M1082,143.64c2.06-5.69.8-5.93.25-6-.93-.14-2,1.81-3.2.42-.58-.69-1.65-5-3.43-3.48-.61.53-6,3.56-10.06,1.56-.53-.26-.42.26-.43.52,0,1.2,0,2.71.11,4.58.33,5.71,2.26,8.77,3.35,9.66S1079.32,150,1082,143.64Z" style="fill:#ecaa83"/><path d="M1072.3,139.37a.76.76,0,1,0,.68-.83A.78.78,0,0,0,1072.3,139.37Z" style="opacity:0.21"/><path d="M1066.47,139.77a.74.74,0,0,0,.82.66.76.76,0,0,0,.69-.81.76.76,0,0,0-1.51.15Z" style="opacity:0.21"/><path d="M1072.71,143.42a2,2,0,0,0,1,2.5,2.08,2.08,0,0,0,2.21-1.61,1.7,1.7,0,0,0-1-2.32A1.72,1.72,0,0,0,1072.71,143.42Z" style="fill:#ec4f66;opacity:0.21"/><path d="M1068.42,146.54a.62.62,0,0,1,.33,0,10.91,10.91,0,0,0,1.33-.07c.44,0,.85-.13,1.34-.21a.57.57,0,0,1,.48.18.56.56,0,0,1,.12.51,2.08,2.08,0,0,1-1.7,1.8l-.17,0a2,2,0,0,1-2-1.49A.54.54,0,0,1,1068.42,146.54Z" style="fill:#f7f7f7"/><path d="M1082.91,201a2.5,2.5,0,0,1,4.35.06,26.5,26.5,0,0,0,2.66,3.57,6.8,6.8,0,0,0,5.39,2.19c10.78-.39,12.18,7.29,12.34,9.64a9,9,0,0,1-8.08,9A16.13,16.13,0,0,1,1082.91,201Z" style="fill:#ec733e;opacity:0.2"/><path d="M884.24,343.63c6,1.11,13.26.38,13.57-1.31s-6.21-5-12.21-6.08-9.81-.16-10.19,1.95S878.24,342.52,884.24,343.63Z" style="fill:#abafc1;opacity:0.43"/><path d="M533.45,339.93c7-.65,14.86-3.72,14.67-5.71s-8.45-3.56-15.47-2.92-10.95,2.9-10.72,5.35S526.43,340.58,533.45,339.93Z" style="fill:#abafc1;opacity:0.43"/><path d="M617,122.42s70.21-99.45,91.77-93,87.69,155.53,119.17,176c32.73,21.23,52.54-14.74,63.25-28.13" style="fill:none;stroke:#246799;stroke-miterlimit:10;stroke-width:0.42724599999999996px;stroke-dasharray:3.588860034942627"/><path d="M641,99.07a10.81,10.81,0,0,0-16.87-8.89h0q-.25.16-.51.36s0,0-.05,0-.28.22-.41.33L623,91l-.34.33a.32.32,0,0,0-.1.1,4.07,4.07,0,0,0-.41.42h0a4.45,4.45,0,0,0-.41.47l-.07.09c-.11.13-.2.26-.3.4a.51.51,0,0,0-.09.13,3.22,3.22,0,0,0-.25.39.64.64,0,0,0-.1.13c-.09.16-.2.33-.28.5h0c-.09.19-.19.37-.27.56s0,.09-.07.14-.12.28-.17.42a1.34,1.34,0,0,0-.07.18c-.05.14-.11.28-.15.42a.52.52,0,0,1-.06.16c-.05.19-.11.38-.16.57,0,0,0,0,0,0-.05.21-.09.41-.13.61a1.13,1.13,0,0,1,0,.18c0,.15,0,.3-.07.44s0,.15,0,.22,0,.29,0,.44l0,.19c0,.21,0,.43,0,.64a10.82,10.82,0,0,0,10.88,10.74h.58l.14,0,.42,0h.14l.44-.06.1,0,.45-.09.08,0,.48-.12h0l.51-.15h0l.51-.19h0l.5-.21h0A10.83,10.83,0,0,0,641,99.07Z" style="fill-rule:evenodd;opacity:0.08"/><path d="M641.41,97.74A10.81,10.81,0,1,1,630.52,87,10.83,10.83,0,0,1,641.41,97.74Z" style="fill:#f7f7f7;fill-rule:evenodd"/><path d="M635.07,107.64l-.38-.25a12.31,12.31,0,0,1-5-8.74c-.52-5.16-2.53-8.19-5.11-9.8a10.82,10.82,0,0,0,6.12,19.77A11,11,0,0,0,635.07,107.64Z" style="fill:#f7f7f8;fill-rule:evenodd;opacity:0.15"/><text transform="translate(623.93 100.34) rotate(0.35)" style="font-size:7.026559829711914px;fill:#aac1d0;font-family:Nunito-Bold, Nunito Bold;font-weight:700;letter-spacing:0.050033374584446386em">2x1</text><path d="M779.54,115.89a14,14,0,0,0-14.47-13.47,13.79,13.79,0,0,0-7.67,2.63h0l-.66.49s0,0-.06.07l-.51.45-.15.12-.44.44-.12.13a6.72,6.72,0,0,0-.51.57,0,0,0,0,0,0,0c-.19.21-.34.41-.51.63a.87.87,0,0,1-.09.11l-.36.53a1.13,1.13,0,0,0-.12.18,3.68,3.68,0,0,0-.3.5,1.55,1.55,0,0,0-.13.17c-.11.22-.24.44-.34.67l0,0c-.11.24-.23.48-.33.72,0,.06-.05.13-.08.18a5.37,5.37,0,0,0-.21.56,2.34,2.34,0,0,1-.09.24c-.05.18-.12.36-.18.54a.6.6,0,0,1-.06.22c-.07.24-.13.48-.19.74v0c-.07.26-.11.52-.16.78a2,2,0,0,1,0,.24c0,.19,0,.38-.07.57s0,.18,0,.28l0,.57a2.11,2.11,0,0,1,0,.25c0,.28,0,.55,0,.82a14,14,0,0,0,14.47,13.47c.26,0,.51,0,.76,0l.17,0a4.63,4.63,0,0,0,.55-.06l.18,0,.56-.1.13,0,.58-.13.1,0,.61-.17.06,0,.64-.22h0l.66-.26v0a4.76,4.76,0,0,0,.65-.29h0A14,14,0,0,0,779.54,115.89Z" style="fill-rule:evenodd;opacity:0.08"/><path d="M780,114.15a14,14,0,1,1-14.48-13.47A14,14,0,0,1,780,114.15Z" style="fill:#eea897;fill-rule:evenodd"/><path d="M772.21,127.2l-.49-.32a15.91,15.91,0,0,1-6.86-11.1c-.87-6.65-3.58-10.49-7-12.47a14,14,0,0,0,14.33,23.89Z" style="fill:#f7f7f8;fill-rule:evenodd;opacity:0.15"/><text transform="matrix(1, -0.02, 0.02, 1, 756.25, 118.32)" style="font-size:9.086009979248047px;fill:#f7f7f8;font-family:Nunito-Bold, Nunito Bold;font-weight:700;letter-spacing:0.04997810518997264em">25%</text><g style="opacity:0.7000000000000001"><path d="M728.38,77a36.13,36.13,0,1,1-39.47-32.44A36.15,36.15,0,0,1,728.38,77Z" style="fill:#f7f7f7;fill-rule:evenodd"/></g><g style="opacity:0.4"><path d="M776.4,62.94a28.64,28.64,0,1,1-31.28-25.71A28.67,28.67,0,0,1,776.4,62.94Z" style="fill:#bdd1e0;fill-rule:evenodd"/></g><g style="opacity:0.4"><path d="M908.14,25.85A28.64,28.64,0,1,1,876.86.14,28.67,28.67,0,0,1,908.14,25.85Z" style="fill:#bdd1e0;fill-rule:evenodd"/></g><g style="opacity:0.25"><path d="M829.38,42.2a20.79,20.79,0,1,1-22.71-18.66A20.81,20.81,0,0,1,829.38,42.2Z" style="fill:#bdd1e0;fill-rule:evenodd"/></g><path d="M753.87,72.35A36.13,36.13,0,0,0,695,47.9h0v0a17.63,17.63,0,0,0-1.61,1.37c-.08.07-.12.14-.18.18-.42.43-.84.81-1.25,1.23-.12.11-.23.26-.33.36-.37.39-.73.8-1.1,1.19l-.28.37c-.43.48-.84,1-1.23,1.51a.16.16,0,0,0,0,.06c-.41.54-.84,1.11-1.26,1.68a1.2,1.2,0,0,1-.13.32c-.32.46-.62.93-.89,1.41a3.87,3.87,0,0,0-.27.48c-.25.45-.52.89-.73,1.36a3.07,3.07,0,0,1-.24.48,13.66,13.66,0,0,0-.82,1.77s0,0,0,.06a17.25,17.25,0,0,0-.78,1.9,4.34,4.34,0,0,0-.14.48c-.16.48-.34,1-.47,1.46a2.69,2.69,0,0,0-.17.61,13.81,13.81,0,0,0-.38,1.43,4.69,4.69,0,0,0-.12.61c-.16.63-.27,1.25-.37,1.89,0,0,0,.08,0,.09-.11.7-.17,1.37-.26,2.07,0,.19,0,.4,0,.6,0,.5-.08,1-.09,1.52,0,.2,0,.46,0,.7,0,.49,0,1,0,1.49a3.4,3.4,0,0,0,0,.63,19.38,19.38,0,0,0,.14,2.14,36.14,36.14,0,0,0,39.49,32.45c.63-.06,1.25-.14,1.89-.25a2.12,2.12,0,0,0,.46-.08c.46-.06,1-.15,1.44-.23.11,0,.27-.08.43-.11.47-.09.92-.22,1.42-.34a2.64,2.64,0,0,1,.38-.11c.44-.13.95-.25,1.42-.42a.86.86,0,0,0,.26-.09c.51-.16,1.05-.36,1.56-.53,0,0,.1,0,.13-.06a16.86,16.86,0,0,0,1.63-.67.09.09,0,0,0,.07,0c.55-.24,1.08-.51,1.64-.77a0,0,0,0,0,0,0c.53-.26,1.07-.54,1.6-.85h0A36.18,36.18,0,0,0,753.87,72.35Z" style="fill-rule:evenodd;opacity:0.08"/><path d="M757.82,74.76A36.13,36.13,0,1,1,725,35.63,36.15,36.15,0,0,1,757.82,74.76Z" style="fill:#5f90b5;fill-rule:evenodd"/><path d="M716.34,89.08c.17-1.69,1.75-4.6,3.47-4.42s2.78,3.26,2.61,4.94a3,3,0,0,1-3.26,2.74A3,3,0,0,1,716.34,89.08Z" style="fill:#f3f0f0"/><path d="M722.57,51.31l.14,0a.45.45,0,0,1,.13,0Z" style="fill:#999"/><path d="M736.59,87.54s-2-.22-2.33-1.48c-1.65-6.14,1.68-8.61,2.14-18.86,0-.54,0-1.07,0-1.57A13.78,13.78,0,0,0,729,53.35a14.55,14.55,0,0,0-3.69-1.51,2.81,2.81,0,0,0-2.48-2.1h0l0,0A2.78,2.78,0,0,0,720,51.38a16.82,16.82,0,0,0-3.92.8A13.83,13.83,0,0,0,706.73,63c-.11.52-.22,1-.28,1.54-1.36,10.2,1.5,13.21-1.19,19-.56,1.19-2.53,1-2.53,1A1.58,1.58,0,0,0,701.05,86a1.56,1.56,0,0,0,1.43,1.7l33.82,3A1.61,1.61,0,0,0,738,89.22,1.58,1.58,0,0,0,736.59,87.54Z" style="fill:#f3f0f0"/><path d="M733.67,105.76l-1.2-1c-7.4-7-13.93-16.49-14-30.67-.16-17.34-5.89-28.06-14-34.19a36.14,36.14,0,0,0,29.24,65.82Z" style="fill:#f7f7f8;fill-rule:evenodd;opacity:0.15"/><path d="M667.26,74.94a12.64,12.64,0,0,0-19.72-10.39h0c-.2.13-.4.28-.6.43l-.06.05-.48.39-.14.12-.4.38a1.31,1.31,0,0,0-.12.11c-.17.16-.32.33-.47.5h0c-.18.18-.32.36-.48.55a.39.39,0,0,1-.08.1l-.34.47a.57.57,0,0,0-.11.16,4.4,4.4,0,0,0-.3.45,1.43,1.43,0,0,0-.11.15c-.11.19-.23.39-.33.59l0,0-.32.64a.59.59,0,0,1-.07.16l-.21.5-.08.21-.18.49a.7.7,0,0,1-.06.19c-.07.22-.13.44-.19.67a0,0,0,0,1,0,0c-.06.23-.11.47-.15.7a2.07,2.07,0,0,1,0,.22c0,.16,0,.34-.08.5a2.06,2.06,0,0,1,0,.26c0,.17,0,.34,0,.52a1.5,1.5,0,0,0,0,.22l0,.75a12.64,12.64,0,0,0,12.72,12.55h.69l.15,0,.5,0,.16,0,.52-.07.11,0,.53-.1.09,0,.56-.14s0,0,0,0l.59-.17h0l.59-.22h0a5.19,5.19,0,0,0,.59-.24h0A12.66,12.66,0,0,0,667.26,74.94Z" style="fill-rule:evenodd;opacity:0.08"/><path d="M667.75,73.39A12.64,12.64,0,1,1,655,60.82,12.63,12.63,0,0,1,667.75,73.39Z" style="fill:#f7f7f7;fill-rule:evenodd"/><path d="M660.33,85l-.43-.3A14.41,14.41,0,0,1,654,74.45c-.61-6-3-9.57-6-11.46a12.64,12.64,0,0,0,7.15,23.11A12.8,12.8,0,0,0,660.33,85Z" style="fill:#f7f7f8;fill-rule:evenodd;opacity:0.15"/><text transform="translate(646.34 76.44) rotate(0.35)" style="font-size:8.21522045135498px;fill:#aac1d0;font-family:Nunito-Bold, Nunito Bold;font-weight:700;letter-spacing:0.05004525623316532em">10%</text><path d="M1027.66,47.54A12.9,12.9,0,0,0,1005.87,41h0a5.38,5.38,0,0,0-.52.55l-.06.07-.41.48-.1.14-.35.46a1,1,0,0,1-.08.14c-.14.19-.27.39-.39.59v0l-.39.64a.53.53,0,0,1,0,.12,5.28,5.28,0,0,0-.27.53,1.42,1.42,0,0,0-.08.18c-.07.17-.15.34-.21.51a1.34,1.34,0,0,1-.07.18,6.4,6.4,0,0,0-.23.66v0a5.79,5.79,0,0,0-.21.71.86.86,0,0,0,0,.17c0,.18-.09.36-.12.54a1,1,0,0,0,0,.22,3.34,3.34,0,0,0-.09.52,1.8,1.8,0,0,0,0,.22,5.36,5.36,0,0,0-.06.69s0,0,0,0c0,.25,0,.5,0,.75,0,.07,0,.14,0,.21s0,.36,0,.54,0,.17,0,.26,0,.34.06.52a1.81,1.81,0,0,0,0,.23,6.54,6.54,0,0,0,.13.75,12.91,12.91,0,0,0,15.2,10.12c.23,0,.45-.09.67-.15l.16-.05c.16,0,.34-.09.51-.13l.14-.06c.16,0,.32-.11.49-.17l.14,0c.15-.06.32-.12.49-.2l.09,0,.53-.25.05,0a5.86,5.86,0,0,0,.55-.3h0L1022,61s0,0,0,0l.54-.36h0A12.93,12.93,0,0,0,1027.66,47.54Z" style="fill-rule:evenodd;opacity:0.08"/><path d="M1028.83,44.46a12.92,12.92,0,1,1-15.2-10.12A12.94,12.94,0,0,1,1028.83,44.46Z" style="fill:#87acc7;fill-rule:evenodd"/><path d="M1016,53.54c-.12-.6.14-1.75.75-1.86s1.28.84,1.39,1.43a1.07,1.07,0,0,1-.84,1.27A1.1,1.1,0,0,1,1016,53.54Z" style="fill:#f3f0f0"/><path d="M1014.38,40h0l0,0Z" style="fill:#999"/><path d="M1022.83,51s-.71.12-1-.28c-1.18-1.93-.29-3.11-1.16-6.67-.05-.2-.11-.38-.16-.55a4.92,4.92,0,0,0-3.77-3.47,5.54,5.54,0,0,0-1.41-.14,1,1,0,0,0-1.07-.47h0a1,1,0,0,0-.77.85,6.11,6.11,0,0,0-1.27.67,5,5,0,0,0-2.13,4.66c0,.19,0,.37.06.56.56,3.63,1.85,4.38,1.5,6.62-.07.47-.76.61-.76.61a.57.57,0,0,0-.44.65.56.56,0,0,0,.66.44l11.9-2.38a.58.58,0,0,0,.45-.66A.57.57,0,0,0,1022.83,51Z" style="fill:#f3f0f0"/><path d="M1023.66,57.52l-.51-.21a14.68,14.68,0,0,1-7.9-9.11c-1.79-5.93-4.84-9-8.24-10.32a12.92,12.92,0,0,0,11.68,21.79A13.24,13.24,0,0,0,1023.66,57.52Z" style="fill:#f7f7f8;fill-rule:evenodd;opacity:0.15"/><path d="M50.75,23.36s-2.91,10.19,5.34,9c4.93-.74,20.2-9.91,23.06-1S71.9,46,53.23,46,22.12,41.47,9.59,43.56c-11.44,1.9-12.4-11.25-4.2-13.92,7.46-2.43,13.72.57,14.68-6.28S24.63,6.63,36.08,7C54.33,7.5,50.75,23.36,50.75,23.36Z" style="fill:#3573a1;opacity:0.12"/><path d="M105.48,336.3c8.14-.76,17.22-4.33,17-6.62s-9.79-4.14-17.93-3.39-12.69,3.35-12.42,6.2S97.35,337.05,105.48,336.3Z" style="fill:#abafc1;opacity:0.43"/><path d="M185.53,168.05c13.74,17.89,50.66,2.73,50.87,0l-1.3-3.31s-.25-.44-.6-.4c-35.51,4.3-46.79-15.15-47.82-17.49" style="fill:#7797a7"/><path d="M276,165.67A21.56,21.56,0,0,0,240.09,153h0c-.3.28-.62.57-.91.87l-.11.12c-.23.25-.47.5-.71.78l-.18.22c-.21.24-.41.49-.6.74l-.18.23c-.23.31-.46.63-.68.95,0,0,0,0,0,0-.23.35-.45.7-.66,1.06l-.11.19c-.17.29-.32.57-.47.86a3,3,0,0,0-.15.31c-.13.26-.27.54-.38.82a2.59,2.59,0,0,0-.14.29c-.16.36-.29.71-.43,1.07,0,0,0,0,0,.05-.14.38-.25.77-.37,1.16,0,.09-.06.2-.09.29-.09.3-.17.59-.23.89a2.33,2.33,0,0,0-.08.38c-.06.28-.13.57-.17.86,0,.12,0,.24-.07.35-.05.39-.11.78-.16,1.16v.06c0,.4-.06.82-.08,1.23,0,.12,0,.24,0,.36v1.32c0,.3,0,.59,0,.88,0,.13,0,.26,0,.39,0,.43.08.84.15,1.27a21.57,21.57,0,0,0,24.6,18l1.11-.2.29-.07c.26-.06.55-.12.83-.2l.25-.07c.29-.07.56-.16.84-.25l.21-.07c.29-.1.59-.19.86-.3l.16-.06c.3-.12.61-.24.9-.37l.08,0c.32-.14.63-.28.93-.44,0,0,0,0,.05,0,.32-.16.64-.34.95-.51h0c.33-.18.64-.38.94-.57h0A21.53,21.53,0,0,0,276,165.67Z" style="fill:#aac1d0;fill-rule:evenodd;opacity:0.30000000000000004;mix-blend-mode:multiply"/><path d="M290.83,160.6a17.39,17.39,0,0,0-28.92-10.2h0c-.24.23-.5.46-.73.71a.76.76,0,0,0-.09.09q-.29.3-.57.63l-.15.18q-.25.3-.48.6l-.15.18c-.18.25-.37.51-.54.77h0c-.18.28-.36.57-.52.85,0,.06-.07.11-.1.16-.13.23-.25.46-.37.69s-.09.16-.12.25-.22.44-.31.67a1.63,1.63,0,0,0-.11.23c-.13.29-.24.57-.35.87a0,0,0,0,1,0,0c-.11.31-.21.62-.31.94a2,2,0,0,0-.06.23,6.38,6.38,0,0,0-.19.72,2.21,2.21,0,0,0-.07.3c-.05.23-.1.47-.13.7a2.8,2.8,0,0,0-.06.28c0,.31-.09.63-.13.94v0q0,.5-.06,1a2.81,2.81,0,0,0,0,.29v1.07c0,.24,0,.47,0,.71s0,.21,0,.31c0,.34.07.68.12,1a17.4,17.4,0,0,0,19.83,14.55l.89-.17.24,0,.67-.16.2-.06.68-.2.17-.06c.23-.08.47-.15.69-.24l.13-.05c.24-.09.49-.19.73-.3l.06,0,.75-.36,0,0c.27-.13.52-.27.77-.41h0c.27-.14.52-.3.76-.45h0A17.36,17.36,0,0,0,290.83,160.6Z" style="fill:#aac1d0;fill-rule:evenodd;opacity:0.30000000000000004;mix-blend-mode:multiply"/><path d="M262.94,154.56a25.64,25.64,0,1,1-29.22-21.46A25.61,25.61,0,0,1,262.94,154.56Z" style="fill:#266797;fill-rule:evenodd"/><path d="M244.81,153.89a3.83,3.83,0,0,1-3.59,3.05,3.88,3.88,0,0,1-3.8-3.05,3.82,3.82,0,0,1-3.59,3.05,3.89,3.89,0,0,1-3.8-3.05,3.82,3.82,0,0,1-3.56,3.05v10c0,3.22,3.49,7.36,11,7.36s10.86-4.14,10.86-7.36v-10A3.91,3.91,0,0,1,244.81,153.89Z" style="fill:#f7f7f7;opacity:0.7000000000000001"/><path d="M248.61,156.94a3.88,3.88,0,0,1-3.8-3.05,3.83,3.83,0,0,1-3.59,3.05,3.88,3.88,0,0,1-3.8-3.05,3.82,3.82,0,0,1-3.59,3.05,3.89,3.89,0,0,1-3.8-3.05,3.83,3.83,0,0,1-3.59,3.05,4,4,0,0,1-4-4.22c0-.37,3.53-6.12,3.6-6.5h22.67c.08.32,3.61,6,3.62,6.33A4,4,0,0,1,248.61,156.94Z" style="fill:#f7f7f7;opacity:0.7000000000000001"/><path d="M252.36,152.55a4,4,0,0,1-3.75,4.39,3.88,3.88,0,0,1-3.8-3.05,3.83,3.83,0,0,1-3.59,3.05,3.88,3.88,0,0,1-3.8-3.05,3.82,3.82,0,0,1-3.59,3.05,3.89,3.89,0,0,1-3.8-3.05,3.83,3.83,0,0,1-3.59,3.05,4,4,0,0,1-4-4.22" style="fill:#fff;opacity:0.7000000000000001"/><path d="M251.49,180l-1-.48c-6.26-3.57-12.38-9-14.85-18.75-3-11.93-8.75-18.34-15.37-21.24A25.64,25.64,0,0,0,251.49,180Z" style="fill:#f7f7f8;fill-rule:evenodd;opacity:0.15"/><path d="M197.66,104.3c.27-1.42,2.34-1.7,3-3s-.73-3-2.23-3.18a8.2,8.2,0,0,0-4.34,1.15c-5.3,2.47-1.5-3-1.06-5.21.63-3.23-4-3.06-8.1,2.9-.67,1,.34-12.8-14,2.41a71.17,71.17,0,0,0-6.14,8.35c-2.11,3.08-4.17,6.76-4.23,10.31.35,5.69,4.1,7.82,6.36,12.2a17.19,17.19,0,0,0,1.88,3.08h0s4.65,3.93,7,2.53,1.08-8.08,1.08-8.08a6,6,0,0,0-.11-1.14c.39-.44.79-.91,1.23-1.4,4.2-4.76,5.31-7.23,4.34-9.49,3.81,1.51,8.4,3,11.16,2.86a5,5,0,0,0,3.68-2.1A9,9,0,0,0,202,111.3C202.86,108.27,200.83,104.38,197.66,104.3Z" style="fill:url(#f)"/><path d="M189.36,191.26a79.31,79.31,0,0,1-9.65,2.66c-8.11,2-14.53,3.32-14.53,3.32-17.51,11.11-13.85,42.6-13.09,62-2.67,1.41-6.75,3.2-10.52,5.35-10.22,5.82-23.84,25.82-28.73,32.36a3.9,3.9,0,0,0,3,3.63c1.91.53,10.92-6.59,27.36-16,4.12-2.34,16.79-8.64,21.36-12.16.8-.61,4.21-4,4.2-4,4.65-11.33,9.69-34.23,15.07-54.47,1.67-4.7,9.18-9.13,11.68-14.38C196.86,196.26,190.18,194.3,189.36,191.26Z" style="fill:#858097"/><g style="clip-path:url(#g)"><path d="M153.44,204.52s1.78-2.36,6.47-8.33c21.39,2.83,43.57,17.66,43.78,37.58.19,16.75-16.82,32.74-33.21,37.76,1.12-5.12,1-13.95,1-13.95a26.35,26.35,0,0,0-10.42-19.73C145.12,225.25,146.75,213.1,153.44,204.52Z" style="fill:#706a7f;fill-rule:evenodd"/></g><path d="M199.5,257.29c-.39-12.2-.34-30.25-3.81-51-.42-5-35.77-5.48-35.77-5.48-11.88,27.8,20,39.63,20.6,60.46.34,1.57-2.23,8.45-5.19,14.68-5,10.62-6.58,29.26-6.85,37.43a3.89,3.89,0,0,0,4.5,1.27c1.88-.65,7-6.09,15.12-23.2,2-4.27,9.37-22.41,11.11-27.92A28.8,28.8,0,0,0,199.5,257.29Z" style="fill:#686175"/><path d="M115.25,304.9c.74,0,3.36.22,2.72,3.94s-2.33,7.82-1.77,10.15c.66,2.69-1.53,3.88-2.55,1.65-1.43-3.14-7.22-16.24-7.22-16.24s-1.42-3.2,1.2-4.34a2.68,2.68,0,0,1,3.78,1.83A3.73,3.73,0,0,0,115.25,304.9Z" style="fill:#686175"/><path d="M171.55,318.83c.7-.25,3.27-.79,3.77,2.95s.11,8.16,1.34,10.21c1.43,2.37-.29,4.17-1.93,2.34C172.42,331.75,163,321,163,321s-2.31-2.63-.14-4.5a2.68,2.68,0,0,1,4.15.62A3.72,3.72,0,0,0,171.55,318.83Z" style="fill:#686175"/><path d="M184.64,138.4c1,1,5,.44,5.76-.67,0,0,3.77-7.75.86-24.55-.8-4.62-1.9,3.78-9-3.33-.56-.56.28,14.66-10.77,15.68.27.62-.12-.17-.12-.17a.83.83,0,0,0,.12.17c-.41-1-.68-3.67-2.75-2.2-3.56,2.53,1.87,7.67,4.28,5.78,1.5,3.54,3.29,7.8,3.29,7.8l-3,12.67L187,153S184,137.77,184.64,138.4Z" style="fill:#ecaa83"/><path d="M183.41,124.59a.74.74,0,1,1-.76-.72A.74.74,0,0,1,183.41,124.59Z" style="fill:#231f20;opacity:0.21"/><path d="M190.49,124.65a.74.74,0,0,1-1.48,0,.75.75,0,0,1,.72-.76A.76.76,0,0,1,190.49,124.65Z" style="fill:#231f20;opacity:0.21"/><path d="M184.62,139c-.05-.18.13-.39,0-.55s-.78-.4-1.11-.54a8.65,8.65,0,0,1-2.8-1.87c0,.72.62,1.26,1.16,1.75a8.53,8.53,0,0,1,2.5,4.14,3.88,3.88,0,0,0,.89,2.08,11.5,11.5,0,0,0-.22-2.41A17.65,17.65,0,0,0,184.62,139Z" style="fill:#cc9e91"/><path d="M172.32,208.32a1.66,1.66,0,0,1,1.88,2.2,17.52,17.52,0,0,0-.6,2.91,4.55,4.55,0,0,0,1.28,3.65c5,5.21,1.74,9.3.65,10.42a6,6,0,0,1-8.06-.06,10.76,10.76,0,0,1,4.85-19.12Z" style="fill:#8b8fa8"/><path d="M185.46,145c-.48,0,.09,4.7-.89,4.65-3.07-.14-9.43-5.76-9.52-7.74,0,0-6.19,1.95-8.94,4.32-14,12.12-.83,49.19-20,60.38-12.58,7.33,62,28.35,54.78,3.42-3.11-10.69,1.75-13.69-2-25.77-2.85-9.29-2.08-4.89-4.24-15.92-2.86-14.65-7.78-22.09-8.94-23.48C185.61,144.68,185.74,145,185.46,145Z" style="fill:#6fb9a2"/><path d="M189.43,133.51l-5.55-.09S187,135.43,189.43,133.51Z" style="fill:#231f20;opacity:0.21"/><path d="M193.06,122.25c-.6-.11-4.1,0-5.58,0a.49.49,0,0,0-.39.2h-1.4a.6.6,0,0,0-.4-.2c-1.59-.09-5.37-.26-6-.16a.57.57,0,0,0-.52.35.61.61,0,0,0,.1.49l-7.41,2.32a.2.2,0,0,0-.14.25.2.2,0,0,0,.25.14h0l7.46-2.33a10.76,10.76,0,0,0,.74,3.47c.63.91,4.16.62,4.92.44h0c.78-.2,1-2.2,1.12-4l1.18,0c0,1.65.23,3.45,1,3.63a10.47,10.47,0,0,0,3.87.09,1.23,1.23,0,0,0,.71-.38,11,11,0,0,0,.79-3.37.72.72,0,0,0,.23-.64C193.49,122.42,193.33,122.3,193.06,122.25Zm-8.48,4.58h0c-1.14.27-4.11.28-4.5-.27a12.09,12.09,0,0,1-.68-3.53V123l0-.06a.57.57,0,0,1-.2-.33.26.26,0,0,1,.12,0l.08,0c.49-.08,3.39,0,5.93.17a.13.13,0,0,1,.13.14C185.33,125.45,184.93,126.74,184.58,126.83ZM193,123l-.05.06v.07a11.15,11.15,0,0,1-.72,3.24c-.37.5-3.11.41-4.15.14-.32-.08-.66-1.28-.66-3.73h0a.11.11,0,0,1,.11-.11c2.36-.07,5-.1,5.5,0,.11,0,.16.06.16.07A.52.52,0,0,1,193,123Z" style="fill:#629ab7"/><path d="M163.23,180.16l3.93,6.12c1.16,1.8,3.57,5.68,5.55,6.47a12.34,12.34,0,0,0,2.83.56c28.41,4.15,42.83-4.43,43.57-5.17a2.29,2.29,0,0,0,.5-2.83c-.62-.87-1.86-.95-2.93-.95-13.64,0-30.36,2.1-34.9-.86-4.28-6.13-2.72-11.91-5.23-15.74" style="fill:#edbca4"/><path d="M185.46,144.47c.95,0,3.76,4.56,3.41,5.78s.44,6.14-.5,6.23-4.91-6.84-4.91-6.84S184.52,144.48,185.46,144.47Z" style="fill:#7797a7"/><path d="M175.88,139.72c.79.29,8.59,10.31,8.59,10.31s-.78,6.93-1.57,6.94-9.79-14.06-9.79-14.06A3.5,3.5,0,0,1,175.88,139.72Z" style="fill:#7797a7"/><path d="M179.15,178.68A9.27,9.27,0,0,1,177.7,174c0-1-1.78-7-.89-7.52s1.71.43,2.67.57c2.21.3-.68,10.19,8.37,12.47,5.92,1.5,9.21.84,10.38,4.15.69,2-2.64.57-2.93,1-.44.71-1-.15-1.87-.22a38.29,38.29,0,0,1-7.91-1.12,12.93,12.93,0,0,1-6.69-4.17" style="fill:#6aaf98"/><path d="M221.88,184.09a42.24,42.24,0,0,0,6.76-2.11c1.74-.7,4.93-2.62,5.53-1,.38.84-4.69,3-2.33,2.74,2.68-.47,6.32-1.1,8.07-2.57.8-.67,2.31-1.35,2.45-.5s-1,2-1.65,2.54a21.24,21.24,0,0,1-4.16,2.87,13.14,13.14,0,0,1-3.94,1.71c-1.24.25-18.52-.18-17.7.26" style="fill:#ecaa83"/><path d="M179.61,159.25c.73,9.69-1.19,10.89.78,16.34.87,2.41-17.09,9.41-19.34,3.8a46.89,46.89,0,0,1-1.89-5.77c-2.42-9.37.73-25.8,11.74-24.52C170.9,149.1,178.71,149.41,179.61,159.25Z" style="fill:#7797a7"/><path d="M160.68,178.66c2.09,4.24,4.3,8.61,8,11.56s8.7,4.2,13.49,4.94c11.52,1.79,23.65,1.49,34.36-3.11,1.78-.77,4.65-2.37,5.55-4,.55-1-.25-4.15-.83-4.32-4-1.18-7.82-.16-10,.14-5.52.75-8.62.18-14.19.05-6.24-.14-13.73-2.85-16.64-8.37-1.26-2.4-1.25-3.94-2.91-6.08a6.79,6.79,0,0,0-12.15,4.05" style="fill:#7797a7"/><path d="M602.36,145.58a51.58,51.58,0,0,1,10.83,19.62,4.41,4.41,0,0,1-.52,3.48,2.42,2.42,0,0,1-3.07,1,3.24,3.24,0,0,1-.85-.8,17.05,17.05,0,0,1-3.7-8.64" style="fill:#7797a7"/><path d="M596,189.46a79.78,79.78,0,0,1-9,4.44c-7.59,3.45-13.65,6-13.65,6-15.11,14.2-5.6,44.44-1.22,63.36-2.36,1.87-6,4.41-9.33,7.22-8.94,7.64-18.57,29.84-22.15,37.18a3.9,3.9,0,0,0,3.59,3c2,.16,9.49-8.52,23.88-20.82,3.6-3.07,14.87-11.63,18.7-15.95.67-.76,3.38-4.72,3.37-4.73,2.44-12,3.09-35.45,4.58-56.34.76-4.93,7.3-10.69,8.77-16.32C604.3,193,597.37,192.3,596,189.46Z" style="fill:#858097"/><g style="clip-path:url(#h)"><path d="M563.19,209.23s1.31-2.65,4.8-9.39c21.54-1.24,46.11,9.17,50.06,28.69,3.32,16.42-10.38,35.32-25.55,43.33.15-5.24-1.64-13.89-1.64-13.89a26.35,26.35,0,0,0-13.94-17.43C558.91,231.16,558.24,218.92,563.19,209.23Z" style="fill:#706a7f;fill-rule:evenodd"/></g><path d="M618.34,252.42c-2.67-11.9-6-29.64-13.32-49.39-1.34-4.8-36.15,1.33-36.15,1.33-6.46,29.54,27.11,35.17,31.58,55.53.62,1.47-.61,8.71-2.35,15.39-3,11.38-1,30,.29,38a3.89,3.89,0,0,0,4.67.41c1.72-1,5.73-7.3,10.49-25.62,1.2-4.58,5-23.77,5.67-29.51A28.76,28.76,0,0,0,618.34,252.42Z" style="fill:#686175"/><path d="M582.45,208.4a1.68,1.68,0,0,1,1.66.25,1.64,1.64,0,0,1,.6,1.56,18.39,18.39,0,0,0,0,3,4.54,4.54,0,0,0,1.94,3.35c5.85,4.19,3.46,8.81,2.59,10.12a6,6,0,0,1-7.92,1.45,10.75,10.75,0,0,1,1.17-19.69Z" style="fill:#8b8fa8"/><path d="M613.79,103.3c.27-1.42,2.35-1.7,3-3s-.73-3-2.23-3.18a8.22,8.22,0,0,0-4.34,1.15c-5.3,2.47-1.5-3-1.06-5.21.63-3.23-4-3.06-8.1,2.9-.67,1,.34-12.8-14,2.41a71.17,71.17,0,0,0-6.14,8.35c-2.11,3.08-4.17,6.76-4.23,10.31.35,5.69,4.11,7.82,6.36,12.2a17.19,17.19,0,0,0,1.88,3.08h0s4.65,3.93,7,2.53,1.08-8.08,1.08-8.08a6,6,0,0,0-.11-1.14c.39-.44.79-.91,1.23-1.4,4.2-4.76,5.31-7.23,4.34-9.49,3.81,1.51,8.4,3,11.16,2.86a5,5,0,0,0,3.68-2.1,9,9,0,0,0,4.81-5.19C619,107.27,617,103.38,613.79,103.3Z" style="fill:url(#i)"/><path d="M543.08,314.2c.67-.33,3.15-1.19,4.11,2.46s1.13,8.08,2.61,10c1.71,2.18.23,4.17-1.63,2.56-2.61-2.26-13.31-11.77-13.31-11.77s-2.63-2.32-.71-4.45a2.68,2.68,0,0,1,4.19.1A3.72,3.72,0,0,0,543.08,314.2Z" style="fill:#686175"/><path d="M602.06,319.34c.71-.25,3.28-.79,3.78,3s.1,8.16,1.34,10.21c1.43,2.37-.3,4.17-1.94,2.34-2.31-2.57-11.74-13.35-11.74-13.35s-2.31-2.62-.15-4.49a2.67,2.67,0,0,1,4.15.61A3.72,3.72,0,0,0,602.06,319.34Z" style="fill:#686175"/><path d="M600.77,137.4c1,1,5,.44,5.76-.67,0,0,3.77-7.75.86-24.55-.8-4.62-1.9,3.78-9-3.33-.56-.56.28,14.66-10.77,15.68.27.62-.12-.17-.12-.17a.83.83,0,0,0,.12.17c-.41-1-.68-3.67-2.75-2.2-3.56,2.53,1.87,7.67,4.28,5.78,1.5,3.54,3.29,7.8,3.29,7.8l-3,12.67L603.14,152S600.17,136.77,600.77,137.4Z" style="fill:#ecaa83"/><path d="M599.54,123.59a.74.74,0,0,1-.73.75.75.75,0,0,1-.76-.71.76.76,0,0,1,.73-.76A.74.74,0,0,1,599.54,123.59Z" style="fill:#231f20;opacity:0.21"/><path d="M606.62,123.65a.74.74,0,0,1-1.48,0,.75.75,0,0,1,.72-.76A.76.76,0,0,1,606.62,123.65Z" style="fill:#231f20;opacity:0.21"/><path d="M600.75,138c0-.18.13-.39,0-.55s-.78-.4-1.1-.54a8.59,8.59,0,0,1-2.81-1.87c0,.72.62,1.26,1.16,1.75a8.53,8.53,0,0,1,2.5,4.14,3.88,3.88,0,0,0,.89,2.08,11.5,11.5,0,0,0-.22-2.41A17.65,17.65,0,0,0,600.75,138Z" style="fill:#cc9e91"/><path d="M601.59,144c-.48,0,.09,4.7-.89,4.65-3.07-.14-9.43-5.76-9.52-7.74,0,0-6.18,1.95-8.94,4.32-14,12.12-8.06,40.16-20,60.38-4.07,6.88,1.38,12.86,19.07,15.26,14.5,2,39-.61,35.71-11.84-3.11-10.69,1.75-13.69-2-25.77-2.85-9.29-2.09-4.89-4.24-15.92-2.86-14.65-7.78-22.09-8.94-23.48C601.74,143.68,601.87,144,601.59,144Z" style="fill:#6fb9a2"/><path d="M605.56,132.51l-5.55-.09S603.17,134.43,605.56,132.51Z" style="fill:#231f20;opacity:0.21"/><path d="M609.19,121.25c-.6-.11-4.1,0-5.58,0a.49.49,0,0,0-.39.2h-1.4a.57.57,0,0,0-.4-.2c-1.59-.09-5.37-.26-6-.16a.57.57,0,0,0-.52.35.61.61,0,0,0,.1.49l-7.41,2.32a.2.2,0,0,0-.14.25.2.2,0,0,0,.25.14h0l7.45-2.33a10.76,10.76,0,0,0,.74,3.47c.63.91,4.16.62,4.92.44h0c.78-.2,1-2.2,1.12-4l1.18,0c0,1.65.23,3.45.95,3.63a10.52,10.52,0,0,0,3.88.09,1.23,1.23,0,0,0,.71-.38,11,11,0,0,0,.79-3.37.72.72,0,0,0,.23-.64C609.62,121.42,609.46,121.3,609.19,121.25Zm-8.48,4.58h0c-1.14.27-4.11.28-4.49-.27a12.09,12.09,0,0,1-.7-3.53V122l-.06-.06a.6.6,0,0,1-.19-.33.26.26,0,0,1,.12,0l.08,0c.49-.08,3.39,0,5.93.17a.12.12,0,0,1,.13.14C601.46,124.45,601.06,125.74,600.71,125.83ZM609.1,122l-.05.06v.07a11.15,11.15,0,0,1-.72,3.24c-.37.5-3.11.41-4.15.14-.32-.08-.66-1.28-.66-3.73h0a.11.11,0,0,1,.11-.11c2.36-.07,5-.1,5.5,0,.11,0,.16.06.16.07A.52.52,0,0,1,609.1,122Z" style="fill:#629ab7"/><path d="M601.59,143.47c.95,0,3.76,4.56,3.41,5.78s.44,6.14-.5,6.23-4.91-6.84-4.91-6.84S600.65,143.48,601.59,143.47Z" style="fill:#7797a7"/><path d="M592,138.72c.8.29,8.59,10.31,8.59,10.31S599.83,156,599,156s-9.8-14.06-9.8-14.06A3.52,3.52,0,0,1,592,138.72Z" style="fill:#7797a7"/><path d="M680.77,186a4.77,4.77,0,0,1,2,6.41l-24.67,53.91A4.74,4.74,0,0,1,652,249l-.56-.26a4.77,4.77,0,0,1-2-6.41l24.66-53.9a4.75,4.75,0,0,1,6.17-2.64Z" style="fill:#bfbdbd"/><path d="M682.32,186.27c1.69.84,2.12,3.54,1,6L658.4,246.08c-1.15,2.49-3.45,3.83-5.14,3l-.41-.21c-1.69-.84-2.12-3.54-1-6l24.89-53.78c1.15-2.49,3.45-3.83,5.14-3Z" style="fill:#f7f7f8"/><path d="M658.2,238.23c-.13,1.16.89,1.35,1.29.69,4.5-9.06,13.75-28.4,18.51-42.68.25-.75.44-1.82-.3-2.09s-1.3.59-1.59,1.29" style="fill:#bfbdbd"/><g style="clip-path:url(#j)"><path d="M682.22,199.83a24.74,24.74,0,1,1-34.92-2.68A24.74,24.74,0,0,1,682.22,199.83Z" style="fill:#246799;fill-rule:evenodd"/><path d="M685.79,226.52l-1,.1c-7,.26-14.75-1.08-21.75-7.81-8.55-8.25-16.52-10.57-23.42-9.57a24.76,24.76,0,0,0,39.93,25.48A25,25,0,0,0,685.79,226.52Z" style="fill:#f7f7f8;fill-rule:evenodd;opacity:0.15"/><text transform="translate(655.11 227.57) rotate(-39.9)" style="font-size:16.086029052734375px;fill:#f7f7f8;font-family:Nunito-Bold, Nunito Bold;font-weight:700;letter-spacing:0.0500012331462113em">2x1</text></g><path d="M634.1,187.41a17.73,17.73,0,0,0-12.67-21.62,17.51,17.51,0,0,0-10.26.41h0l-1,.36-.09.06c-.28.1-.54.24-.8.36l-.22.09-.69.38-.2.11a8.7,8.7,0,0,0-.83.5h0c-.3.18-.56.38-.85.58l-.14.11c-.22.16-.43.33-.63.5a1.93,1.93,0,0,0-.21.17,6.85,6.85,0,0,0-.56.5c-.08,0-.14.12-.21.17-.22.22-.44.44-.66.68,0,0,0,0,0,0l-.67.75a1.49,1.49,0,0,1-.15.2c-.17.19-.32.4-.46.59l-.19.26-.42.59a1,1,0,0,1-.16.25l-.5.82a.11.11,0,0,1,0,.05c-.17.29-.32.59-.47.89l-.12.27c-.11.23-.2.45-.3.67l-.12.33c-.09.23-.17.46-.25.69a2.49,2.49,0,0,0-.11.29c-.1.34-.2.67-.31,1a17.72,17.72,0,0,0,12.67,21.61c.32.09.63.16.93.22a1.46,1.46,0,0,0,.22,0,4.39,4.39,0,0,0,.69.13,1.43,1.43,0,0,1,.22,0l.72.08h.17a6.44,6.44,0,0,0,.75.05h.13l.81,0h.08l.86,0h0l.88-.07v0a8.3,8.3,0,0,0,.89-.12h0A17.72,17.72,0,0,0,634.1,187.41Z" style="fill-rule:evenodd;opacity:0.08"/><path d="M636.64,186A17.71,17.71,0,1,1,624,164.36,17.73,17.73,0,0,1,636.64,186Z" style="fill:#b5b5b6;fill-rule:evenodd"/><path d="M622.4,199l-.48-.57c-3-4-5.38-9.1-4.28-16,1.36-8.39-.53-14-3.93-17.67A17.72,17.72,0,0,0,615,198.64,18.12,18.12,0,0,0,622.4,199Z" style="fill:#f7f7f8;fill-rule:evenodd;opacity:0.15"/><text transform="matrix(0.96, 0.26, -0.26, 0.96, 605.51, 182.12)" style="font-size:11.511750221252441px;fill:#f7f7f8;font-family:Nunito-Bold, Nunito Bold;font-weight:700;letter-spacing:0.04996593058787029em">25%</text><path d="M607.54,204.3a24.68,24.68,0,0,0-7.73-34A24.42,24.42,0,0,0,586,166.48h0l-1.44.06a.47.47,0,0,1-.16,0c-.41,0-.81.09-1.2.14l-.34,0c-.35.07-.72.13-1.07.21a2.44,2.44,0,0,0-.31.06,10.89,10.89,0,0,0-1.31.32s0,0,0,0c-.48.11-.91.26-1.38.41-.06,0-.16,0-.24.08-.35.12-.69.26-1,.41a1.22,1.22,0,0,0-.35.14,8.26,8.26,0,0,0-1,.43,3.62,3.62,0,0,0-.35.13c-.38.2-.77.4-1.16.63h0c-.4.24-.81.47-1.2.72-.1.06-.19.14-.28.19a8.93,8.93,0,0,0-.87.6,4.22,4.22,0,0,0-.36.27c-.27.19-.54.4-.8.61a1.37,1.37,0,0,1-.32.25l-1,.89,0,0c-.35.32-.68.66-1,1-.09.1-.17.21-.27.31-.24.25-.45.51-.68.76l-.3.38c-.2.27-.41.54-.61.82-.1.11-.19.22-.28.34-.27.41-.55.8-.82,1.2a24.69,24.69,0,0,0,7.73,34c.39.25.77.46,1.15.68.07.05.18.09.27.14a7.21,7.21,0,0,0,.87.45c.1.07.18.09.27.15l.93.42a.85.85,0,0,1,.22.08c.33.14.65.27,1,.38l.17.06c.36.14.7.24,1.07.36l.1,0,1.16.33h0l1.2.27h0c.4.08.83.16,1.22.21h0A24.67,24.67,0,0,0,607.54,204.3Z" style="fill-rule:evenodd;opacity:0.08"/><path d="M608.2,206.2a24.67,24.67,0,1,1-7.74-34A24.67,24.67,0,0,1,608.2,206.2Z" style="fill:#ac9eb6;fill-rule:evenodd"/><path d="M583.83,217.47l-.4-.95c-2.3-6.55-3.33-14.36,1-23,5.34-10.58,5.21-18.86,2.22-25.13a24.68,24.68,0,0,0-2.84,49.1Z" style="fill:#f7f7f8;fill-rule:evenodd;opacity:0.15"/><text transform="matrix(0.84, 0.54, -0.54, 0.84, 568.73, 188.24)" style="font-size:16.04184913635254px;fill:#f7f7f8;font-family:Nunito-Bold, Nunito Bold;font-weight:700;letter-spacing:0.04997913929280954em">50%</text><path d="M624.89,202.87a10.82,10.82,0,0,0-18.27-5.48h0c-.15.14-.3.3-.44.45a.13.13,0,0,1,0,.06l-.34.41-.09.11-.28.4a.76.76,0,0,0-.08.11,5.29,5.29,0,0,0-.32.5h0c-.12.19-.21.37-.31.55l-.06.1c-.07.15-.14.29-.2.44a.56.56,0,0,0-.07.16,3.79,3.79,0,0,0-.18.42s0,.1-.07.15-.12.36-.18.55v0c-.06.2-.12.39-.17.59l0,.15c0,.14-.07.3-.1.45l0,.19c0,.15,0,.29-.07.44a1.11,1.11,0,0,1,0,.17l-.06.59a0,0,0,0,1,0,0c0,.2,0,.41,0,.61s0,.13,0,.19,0,.29,0,.44a1.64,1.64,0,0,0,0,.22c0,.14,0,.29,0,.44s0,.13,0,.19c0,.21.07.42.11.63a10.8,10.8,0,0,0,12.74,8.45l.57-.13.13,0a2.45,2.45,0,0,0,.41-.12.61.61,0,0,1,.13,0l.42-.15.1,0,.43-.17.07,0a4.39,4.39,0,0,0,.44-.21s0,0,0,0l.47-.24,0,0,.46-.27h0a4.63,4.63,0,0,0,.46-.31h0A10.81,10.81,0,0,0,624.89,202.87Z" style="fill-rule:evenodd;opacity:0.08"/><path d="M625,201.49A10.81,10.81,0,1,1,612.29,193,10.81,10.81,0,0,1,625,201.49Z" style="fill:#87acc7;fill-rule:evenodd"/><path d="M620.73,212.43l-.42-.18a12.32,12.32,0,0,1-6.64-7.61c-1.51-5-4-7.55-6.89-8.64a10.82,10.82,0,0,0,9.81,18.23A11.11,11.11,0,0,0,620.73,212.43Z" style="fill:#f7f7f8;fill-rule:evenodd;opacity:0.15"/><text transform="translate(608.21 208.88) rotate(-10.75)" style="font-size:7.028989791870117px;fill:#f7f7f8;font-family:Nunito-Bold, Nunito Bold;font-weight:700;letter-spacing:0.0499466109847051em">2X1</text><path d="M626.53,201c.39-.06.07-1.42.44-1.28,2.22.83,5.33,1.06,7.58,1.54,2,.43,5.66.86,7,1.13,0,0,6.52,1.68,6.61,2.8s-6.22-1.47-6.34-1.06,7.09,3.13,7.22,4.44-6.77-2.54-6.9-2.32c-.28.48,5.58,3,5.25,3.71-.43.94-5.54-2.43-5.86-1.87-.13.22,4.54,2.79,3.77,3.57-.42.44-4.56-2.43-4.56-2.43s-3.1-1.41-5.88-2.7a26,26,0,0,0-3.57-1.07c-2.21-.7-3.59-1.25-5.8-2a.78.78,0,0,1-.35-.18c-.22-.22-.1-.59,0-.88C625.45,201.8,625.84,201.08,626.53,201Z" style="fill:#ecaa83"/><path d="M636.94,201.67c1.83.14,4.65-.53,6.29-.17a6.18,6.18,0,0,0-.8,1.42c-.88,0-3.58-.52-4.44-.39" style="fill:#ecaa83"/><path d="M594.57,163.12c-1.14,4.07,6.06,27.56,36.06,36.81.92-.11-.4,4.59-1.94,5s-30.26-4.29-41-14.06c-5-4.54-8.84-11.58-10.89-17.7-1.39-4.16-4-27.21,10.36-26C587.16,147.1,595.77,146.62,594.57,163.12Z" style="fill:#7797a7"/><path d="M943.31,197.09a78.36,78.36,0,0,1-8.91,4.56c-7.54,3.57-13.56,6.19-13.56,6.19-14.91,14.41-5,44.51-.31,63.36-2.33,1.92-6,4.5-9.23,7.37-8.83,7.76-18.13,30.09-21.6,37.49a3.89,3.89,0,0,0,3.63,2.95c2,.14,9.36-8.66,23.57-21.16,3.56-3.12,14.7-11.84,18.47-16.22.66-.76,3.31-4.77,3.3-4.78,2.27-12,2.58-35.48,3.77-56.39.69-5,7.15-10.8,8.54-16.45C951.67,200.48,944.73,199.91,943.31,197.09Z" style="fill:#858097"/><g style="clip-path:url(#k)"><path d="M910.8,217.33s1.28-2.67,4.67-9.46c21.52-1.55,46.23,8.5,50.46,28,3.56,16.37-9.87,35.46-24.91,43.69.06-5.24-1.85-13.87-1.85-13.87A26.32,26.32,0,0,0,925,248.44C906.84,239.32,906,227.09,910.8,217.33Z" style="fill:#706a7f;fill-rule:evenodd"/></g><path d="M966.57,259.72c-2.84-11.86-6.44-29.55-14-49.19-1.41-4.78-36.13,1.85-36.13,1.85-6,29.63,27.62,34.77,32.38,55.07.64,1.46-.49,8.72-2.13,15.42-2.79,11.42-.54,30,.85,38a3.87,3.87,0,0,0,4.66.34c1.71-1,5.63-7.39,10.13-25.77,1.13-4.6,4.65-23.85,5.24-29.59A28.38,28.38,0,0,0,966.57,259.72Z" style="fill:#686175"/><path d="M930.05,214.18a1.66,1.66,0,0,1,2.29,1.77,18.43,18.43,0,0,0,0,3,4.57,4.57,0,0,0,2,3.32c5.91,4.09,3.58,8.75,2.73,10.07a6,6,0,0,1-7.9,1.57,11.11,11.11,0,0,1-6-8.89A11,11,0,0,1,930.05,214.18Z" style="fill:#8b8fa8"/><path d="M940.58,166.89c8.34,21,48,16.42,48.93,13.88l-.35-3.54s-.11-.49-.47-.55c-35.33-5.53-39-19-39.33-21.52" style="fill:#7797a7"/><path d="M957,107.17c.27-1.42,2.34-1.71,3-3s-.73-3-2.23-3.18a8.2,8.2,0,0,0-4.34,1.15c-5.3,2.47-1.5-3-1.06-5.21.63-3.23-4-3.06-8.1,2.9-.68,1,.34-12.8-14,2.41a71.25,71.25,0,0,0-6.15,8.35c-2.1,3.08-4.16,6.76-4.22,10.31.34,5.69,4.1,7.82,6.35,12.2a18.44,18.44,0,0,0,1.88,3.08h0s4.64,3.93,7,2.53,1.08-8.08,1.08-8.08a6,6,0,0,0-.11-1.14l1.22-1.4c4.2-4.76,5.32-7.23,4.35-9.49,3.8,1.51,8.4,3,11.15,2.86a5,5,0,0,0,3.69-2.1,9,9,0,0,0,4.8-5.19C962.22,111.14,960.18,107.25,957,107.17Z" style="fill:url(#l)"/><path d="M944,141.27c1,1,5,.43,5.76-.67,0,0,3.77-7.75.86-24.55-.8-4.62-1.9,3.78-9-3.33-.56-.56.28,14.66-10.77,15.68.27.62-.13-.17-.13-.17a1.47,1.47,0,0,0,.13.17c-.41-1-.68-3.67-2.75-2.2-3.56,2.53,1.87,7.67,4.28,5.78,1.5,3.54,3.29,7.8,3.29,7.8l-3,12.67,13.69,3.39S943.39,140.64,944,141.27Z" style="fill:#ecaa83"/><path d="M942.77,127.46a.74.74,0,0,1-.73.75.74.74,0,1,1,.73-.75Z" style="fill:#231f20;opacity:0.21"/><path d="M949.85,127.52a.74.74,0,0,1-1.48,0,.75.75,0,0,1,.72-.76A.76.76,0,0,1,949.85,127.52Z" style="fill:#231f20;opacity:0.21"/><path d="M944,141.82c-.05-.18.12-.39,0-.55s-.78-.4-1.11-.54a8.65,8.65,0,0,1-2.8-1.87c0,.72.62,1.26,1.15,1.74a8.55,8.55,0,0,1,2.51,4.15,4,4,0,0,0,.88,2.08,10.86,10.86,0,0,0-.21-2.41A17.65,17.65,0,0,0,944,141.82Z" style="fill:#cc9e91"/><path d="M944.81,147.85c-.47,0,.1,4.7-.88,4.66-3.07-.14-9.43-5.76-9.53-7.74,0,0-6.18,1.95-8.93,4.33-14,12.11-.83,49.18-20,60.36-12.58,7.34,62,28.35,54.78,3.43-3.11-10.69-3-30.66-5.17-41.69-2.86-14.65-8.81-22.09-10-23.48C945,147.55,945.1,147.85,944.81,147.85Z" style="fill:#6fb9a2"/><path d="M952.42,125.12c-.6-.11-4.1,0-5.58,0a.49.49,0,0,0-.39.2H945a.49.49,0,0,0-.39-.2c-1.59-.09-5.37-.27-6-.16a.57.57,0,0,0-.52.35.61.61,0,0,0,.1.49l-7.42,2.32a.21.21,0,0,0-.13.25.19.19,0,0,0,.24.14h0l7.45-2.33a10.76,10.76,0,0,0,.74,3.47c.63.91,4.16.61,4.92.44h0c.78-.21,1-2.21,1.12-4l1.18,0c0,1.65.23,3.45.95,3.63a10.51,10.51,0,0,0,3.88.09,1.23,1.23,0,0,0,.71-.38,11,11,0,0,0,.79-3.37.72.72,0,0,0,.23-.64C952.85,125.29,952.69,125.17,952.42,125.12Zm-8.48,4.58h0c-1.14.26-4.11.28-4.5-.28a12,12,0,0,1-.69-3.52v-.07l-.06-.06c-.11-.11-.21-.28-.19-.33a.33.33,0,0,1,.12-.06h.08c.49-.08,3.39,0,5.93.16a.14.14,0,0,1,.13.15C944.69,128.32,944.29,129.61,943.94,129.7Zm8.39-3.83-.06,0V126a11.15,11.15,0,0,1-.72,3.24c-.37.5-3.11.41-4.15.14-.32-.08-.66-1.28-.66-3.73h0a.13.13,0,0,1,.11-.12c2.36-.06,5-.09,5.49,0a.49.49,0,0,1,.17.06A.5.5,0,0,1,952.33,125.87Z" style="fill:#629ab7"/><path d="M944.82,147.34c.95,0,3.75,4.56,3.41,5.78s.44,6.14-.5,6.23-4.91-6.84-4.91-6.84S943.88,147.35,944.82,147.34Z" style="fill:#7797a7"/><path d="M935.24,142.59c.79.29,8.59,10.31,8.59,10.31s-.78,6.93-1.57,6.94-9.8-14.06-9.8-14.06A3.51,3.51,0,0,1,935.24,142.59Z" style="fill:#7797a7"/><path d="M944.88,186.2c2.54.81,12.79,4,12.09,2-1.17-3.31-4-2.53-10-5.2-8.52-3.8-5.92-12.83-8.13-13.13-1-.14-1.82-1-2.67-.57S938.27,184.1,944.88,186.2Z" style="fill:#6aaf98"/><path d="M939,162.12c.73,9.69-1.19,10.89.78,16.34.87,2.41-17.09,9.41-19.34,3.8a46.89,46.89,0,0,1-1.89-5.77c-2.42-9.37.73-25.8,11.73-24.52C930.25,152,938.07,152.28,939,162.12Z" style="fill:#7797a7"/><path d="M948.62,135.74l-5,.28S946.89,140.62,948.62,135.74Z" style="fill:#f7f7f7"/><path d="M892.21,322.59c.67-.34,3.14-1.24,4.15,2.39s1.25,8.07,2.75,9.93c1.74,2.15.28,4.16-1.6,2.58-2.64-2.23-13.48-11.58-13.48-11.58s-2.65-2.28-.77-4.44a2.68,2.68,0,0,1,4.2,0A3.72,3.72,0,0,0,892.21,322.59Z" style="fill:#686175"/><path d="M951.26,326.87c.7-.26,3.27-.84,3.82,2.89s.22,8.16,1.49,10.2c1.46,2.35-.24,4.17-1.91,2.36-2.34-2.54-11.93-13.17-11.93-13.17s-2.35-2.6-.21-4.5a2.67,2.67,0,0,1,4.16.56A3.72,3.72,0,0,0,951.26,326.87Z" style="fill:#686175"/><path d="M1031.39,186.72c2.56-2.1,9.62-11.74,10.53-12.45s0-41.89,0-41.89l-12.79,4.7-2.55,10.73Z" style="fill:#d6c8bd"/><path d="M978.3,144.77s1.5,39.67,2.11,41.95,50.08-.18,51,0-.45-40.84-.45-40.84Z" style="fill:#cabeb4"/><path d="M991.69,131.5s-13.09,12-13.39,13.27,51.89,1.28,52.64,1.11,11-13.5,11-13.5S997.4,130.63,991.69,131.5Z" style="fill:#e1d2c5"/><path d="M1034.7,141.58v15.48s2.71-3.82,3.46-4.17,0-15.81,0-15.81-49.53-1.14-50.94-1.43-4.13,3.95-4.34,4.15S1034.7,141.58,1034.7,141.58Z" style="fill:#e3e3e3"/><path d="M1028.38,133.15c-2.66-.25-5.35-.19-8-.28-.76,0-.75,1.32,0,1.36a52.41,52.41,0,0,0,8,.18A.64.64,0,0,0,1028.38,133.15Z" style="fill:#d6c8bd"/><path d="M1034.73,133.48c-.75-.33-1.53.05-2.28.18-.59.1-.45,1.24.14,1.21a10.33,10.33,0,0,0,2.14-.31C1035.23,134.42,1035.14,133.66,1034.73,133.48Z" style="fill:#d6c8bd"/><path d="M1036.51,138.82c-.22.24-.45.47-.66.73a3.73,3.73,0,0,0-.55,1.09c-.2.57.53,1,.87.58a7.1,7.1,0,0,0,1-1.82C1037.36,138.92,1036.87,138.43,1036.51,138.82Z" style="fill:#d6c8bd"/><g style="opacity:0.39"><g style="clip-path:url(#m)"><path d="M1009.18,166.09a24.87,24.87,0,0,0-7-13.65c-8-7-25.28-7.58-25.28-7.58s1.19,20.75,1.42,24.42c0,.44,1,18.76,1.17,19.19l24,.68a245.79,245.79,0,0,0,28.13-1.5c2.12-.27-8.29-4.72-13.9-8.76C1013.53,175.74,1010.24,171.65,1009.18,166.09Z" style="fill:#e6e6e6;fill-rule:evenodd"/></g></g><path d="M1019.48,170.43h0a13.16,13.16,0,0,0-1-4.48c-3.88-9.28-3-16.14-13.74-14.48-6.23.95-12.17,8-11.34,17.47.05.5.11,1,.19,1.5h0v.05c1.42,8.38,7.91,14.37,14.37,13.94C1014.7,184,1019.71,177.25,1019.48,170.43Z" style="fill-rule:evenodd;opacity:0.15"/><path d="M1006.42,157.05c7.12-.16,8,5.72,10.89,10.24a5,5,0,0,0,2.71,2.07,12.61,12.61,0,0,0-1-4.48c-3.88-9.29-3-16.15-13.74-14.49-6.22,1-12.17,8-11.34,17.47,0,.51.12,1,.2,1.52C995.64,167.63,997,157.26,1006.42,157.05Z" style="fill-rule:evenodd;fill:url(#n)"/><path d="M994.17,169.41c1.42,8.39,7.91,14.37,14.37,13.94,6.71-.45,11.72-7.17,11.48-14h0a4.86,4.86,0,0,1-2.68-2.07c-2.92-4.51-3.81-10.4-10.94-10.24-9.42.2-10.76,10.59-12.23,12.33Z" style="fill-rule:evenodd;fill:url(#o)"/><path d="M1013.3,168.47c1.17,4.3-1.23,10-4.19,10.81s-7.93-3-9.09-7.28,1.08-7.8,4.74-8.77S1012.14,164.18,1013.3,168.47Z" style="opacity:0.1"/><path d="M1013.45,167.84c1.16,4.3-1.24,10-4.2,10.81s-7.93-3-9.09-7.28,1.08-7.8,4.75-8.77S1012.28,163.55,1013.45,167.84Z" style="fill:url(#p)"/><g style="opacity:0.2"><path d="M1004.76,163.23c3.67-1,7.38,1,8.54,5.24a10.19,10.19,0,0,1,.08,4.6,10.54,10.54,0,0,0,.07-5.23c-1.17-4.29-4.88-6.21-8.54-5.24a6.55,6.55,0,0,0-4.94,5.27A6.57,6.57,0,0,1,1004.76,163.23Z" style="fill:#f5f5f5"/></g><path d="M1009.22,170.46c.37,1.74-.54,3.3-1.61,3.53s-2.69-.81-3.06-2.55.41-3,1.73-3.25S1008.84,168.72,1009.22,170.46Z" style="opacity:0.05"/><path d="M1009.38,170c.38,1.75-.54,3.31-1.61,3.54s-2.68-.81-3.06-2.55.41-3,1.74-3.26S1009,168.23,1009.38,170Z" style="fill:#f5f5f5"/><path d="M1020,169.34h0a4.94,4.94,0,0,1-2.66-2c-2.93-4.55-3.85-10.46-11-10.27-9.38.24-10.73,10.56-12.2,12.32v0c2.45-2.77,3-11.34,12.07-11.52,6.84-.14,7.85,5,10.76,9.56a4.68,4.68,0,0,0,3,1.94" style="fill:#f5f5f5;fill-rule:evenodd;opacity:0.2"/><path d="M1010.76,182.54a15.18,15.18,0,0,1-4.28-11.83c.76-9.51-3.51-14.05-8.75-15.77a15.91,15.91,0,0,0-2.25,3.57,18.17,18.17,0,0,0-2.08,10.42c0,.5.11,1,.19,1.5h0v0c1.42,8.4,7.94,14.4,14.43,14a10.68,10.68,0,0,0,3.72-.94Z" style="fill:#fff;fill-rule:evenodd;opacity:0.15"/><path d="M980.41,187.09a41.69,41.69,0,0,0,6.84-1.82c1.78-.62,5-2.4,5.57-.78.34.87-4.57,2.56-2.74,2.86a25.68,25.68,0,0,0,7.37.06c1-.14,3.93-.61,4,.25s-1.14,1.22-2,1.64c-2.69,1.4-7.14,1.68-8.56,1.91-1.25.2-18.5-1-17.7-.5" style="fill:#ecaa83"/><path d="M920,181.53c2.1,4.24,4.31,8.61,8,11.56s8.71,4.2,13.5,4.94c11.52,1.78,23.65,1.49,34.36-3.11,1.78-.77,4.65-2.37,5.55-4,.54-1-.25-4.14-.83-4.31-4-1.18-7.82-.16-10,.14-5.52.75-8.62.18-14.19.05-6.24-.14-13.73-2.85-16.64-8.37-1.26-2.4-1.25-3.94-2.91-6.08a6.79,6.79,0,0,0-12.16,4.05" style="fill:#7797a7"/><path d="M1034.45,183.6a1.58,1.58,0,0,0-.89-.06,12.21,12.21,0,0,1-5.52-1.2c-1.33-.85-3-4.85-3.38-4.93s-1,.44.36,3.44c0,0-7.23-.7-7.57.21s5.09,1.31,5.09,1.31-5.9,1.34-6.31,2.4,5.56-.47,5.56-.47-5.5,1.47-5.34,2.34,4.91-.49,4.91-.49-4.3,1.24-3.93,2.09,4.66-1,4.66-1a46,46,0,0,1,4.94-1.13,18.63,18.63,0,0,1,2.85,0c1.78,0,2.92-.14,4.71-.17a.8.8,0,0,0,.3-.06c.21-.14.22-.48.2-.76C1035,184.54,1034.93,183.85,1034.45,183.6Z" style="fill:#ecaa83"/><path d="M1086.78,181.13c-14.53,13.86-49.1,5.42-53.66,5.2a.72.72,0,0,1-.62-.57l-.16-2a.63.63,0,0,1,.58-.72c38.53-5.45,44.13-26.61,50.18-27.77C1090.66,156.74,1095.82,172.72,1086.78,181.13Z" style="fill:#efa139;fill-rule:evenodd"/><g style="opacity:0.2"><path d="M1086.78,181.13c-14.53,13.86-49.1,5.42-53.66,5.2a.72.72,0,0,1-.62-.57l-.16-2a.63.63,0,0,1,.58-.72c38.53-5.45,44.13-26.61,50.18-27.77C1090.66,156.74,1095.82,172.72,1086.78,181.13Z" style="fill:#ec733e;fill-rule:evenodd"/></g></g></svg>