<svg xmlns="http://www.w3.org/2000/svg" viewBox="0 0 2165.05 616.14"><path d="M1301.62.47c170.9,11.13,78.35,394.68,283.11,273.34,123.66-73.28,151.14-29.77,248.47,45.8,74.5,57.85,129.67,8,145.41-52.67,14-53.78,18.52-184.26,89.16-141.47,207.49,125.66,111.42,657.3-566.15,438.41C1090.29,431,724.08,491.41,419.32,569.16c-252,64.31-468.77-330.75-134.43-304.36,220,17.36,93.55-346.37,342.73-191.25C1180,417.41,1045.41-16.21,1301.62.47Z" style="fill:#fff;opacity:0.2"/><path d="M846.73,474.84c-.1-10.69,2.92-29.71,26-27.72a7.25,7.25,0,0,0,7.37-4.31c5-11.75,20.46-38.51,54.48-23.4,24,10.68,29.21,23,29.09,31.7a7.14,7.14,0,0,0,9.1,6.83c10.79-3,26.85-5.16,41.08,2.58a7.26,7.26,0,0,0,9.46-2.09c7.56-10.81,26-31.41,48.53-15.27a7.26,7.26,0,0,0,7,.95c9.6-3.84,35-11.58,42.74,10.11a7.18,7.18,0,0,0,8.82,4.37c9.76-2.87,26.63-4.72,31.5,14.41a7.31,7.31,0,0,0,3,4.2l.15.11c5.84,4.05,2.74,15.3-4.37,15.1,0,0-174.35-14.3-307.12-.07C845.9,493,846.76,478.73,846.73,474.84Z" style="fill:#fff;opacity:0.1"/><path d="M1577.46,562.11c2.63.93,5.45-1.14,6.6-3.68,4.63-10.29,22.64-19.55,50.25-5.57,20.77,10.52,22.66,29,22.39,36.78a6.31,6.31,0,0,0,7.9,6.23c9.61-2.48,23.85-4,36.29,3.11a6.41,6.41,0,0,0,8.41-1.65c6.9-9.4,23.64-27.25,43.23-12.51a6.44,6.44,0,0,0,6.14,1c8.57-3.2,31.89-29.17,38.27-9.82a6.35,6.35,0,0,0,7.71,4c8.7-2.34,23.65-3.64,27.58,13.39.35,1.53,11.54,2.68,11.35,8.23.73,8.12-3.1,12.86-12,12.23,0,0-130.75,9.24-271.06-31.54C1547.72,577.6,1559.83,555.79,1577.46,562.11Z" style="fill:#f6f6f7"/><path d="M0,554.32c-.47-12.82,2.53-35.75,30.31-34.11A8.69,8.69,0,0,0,39,514.77c5.58-14.25,23.3-46.87,64.64-29.86,29.19,12,35.79,26.6,35.94,37.11a8.56,8.56,0,0,0,11.14,7.89c12.86-4,32-7.07,49.39,1.73a8.71,8.71,0,0,0,11.28-2.8c8.71-13.22,30.18-38.56,57.74-19.92a8.73,8.73,0,0,0,8.38.91c11.39-4.92,41.65-15.05,51.62,10.73a8.64,8.64,0,0,0,10.73,5c11.62-3.77,31.8-6.54,38.28,16.25a8.78,8.78,0,0,0,3.68,5l.17.12c7.15,4.67,3.71,15.83-4.83,15.83,0,0-63.35,51.68-180.74,28.38S8.69,562.67,8.69,562.67A8.66,8.66,0,0,1,0,554.32Z" style="fill:#a9adbf;opacity:0.43"/><path d="M140.2,383.15c.42-2.46.9-4.66,1.41-6.68C141.24,378.7,140.75,380.92,140.2,383.15Z" style="fill:#efa233;opacity:0.30000000000000004"/><g style="opacity:0.1"><path d="M863.88,459.65c1.45-12.28-6.47-16.32-3.25-24.52,2.48-6.35-19.13,7.39-22.77,15.22s-.38,15.27,5.86,19.17S862.63,470.22,863.88,459.65Z" style="fill:#fff;opacity:0.9"/><path d="M836.11,464.87s8.72,3.89,9.53,21.27c.44,9.41,5.1.39,3.16-9.29-2.18-10.74-9-12.91-11.69-15.64" style="fill:#fff;fill-rule:evenodd"/><path d="M816.54,472.17c-9.52-13.66-2.66-23.5-11.66-31.18-7-6,27.4-3.36,36.68,3.64s10.12,17.91,5.18,26.49S824.72,483.93,816.54,472.17Z" style="fill:#fff"/></g><g style="opacity:0.1"><path d="M615.86,491.05c-1.45-12.28,6.47-16.33,3.26-24.51-2.49-6.36,19.12,7.37,22.77,15.21s.37,15.27-5.86,19.17S617.12,501.62,615.86,491.05Z" style="fill:#3a307c;opacity:0.9"/><path d="M643.64,496.26s-8.72,3.89-9.53,21.27c-.45,9.42-5.11.39-3.16-9.28,2.17-10.74,9-12.91,11.69-15.64" style="fill:#ee7335;fill-rule:evenodd"/><path d="M663.2,503.58c9.52-13.67,2.66-23.51,11.66-31.19,7-6-27.39-3.36-36.67,3.64s-10.12,17.91-5.18,26.49S655,515.33,663.2,503.58Z" style="fill:#ee7335"/></g><path d="M556.9,511.12c1.45-12.28-6.47-16.33-3.26-24.52,2.49-6.36-19.12,7.38-22.77,15.22s-.37,15.26,5.86,19.17S555.65,521.69,556.9,511.12Z" style="fill:#f5f5f5;opacity:0.9"/><path d="M529.12,516.33s8.72,3.89,9.53,21.27c.44,9.42,5.1.39,3.16-9.29-2.17-10.73-9-12.91-11.69-15.64" style="fill:#f5f5f5;fill-rule:evenodd"/><path d="M509.56,523.64c-9.52-13.67-2.67-23.5-11.67-31.19-7-6,27.4-3.35,36.68,3.65s10.12,17.9,5.19,26.49S517.74,535.4,509.56,523.64Z" style="fill:#f5f5f5"/><g style="opacity:0.5"><path d="M550.15,475.29c-2.66-22.42,11.8-29.8,5.94-44.74-4.54-11.61,34.9,13.47,41.56,27.76s.67,27.88-10.71,35S552.43,494.59,550.15,475.29Z" style="fill:#fff;opacity:0.9"/><path d="M600.83,484.8s-15.91,7.1-17.39,38.82c-.8,17.18-9.31.71-5.75-16.95,3.95-19.58,16.38-23.55,21.33-28.54" style="fill:#fff;fill-rule:evenodd"/><path d="M636.54,498.15c17.37-24.95,4.86-42.89,21.28-56.92,12.77-10.9-50-6.12-66.93,6.65s-18.46,32.68-9.46,48.35C590.33,511.69,621.61,519.61,636.54,498.15Z" style="fill:#fff"/></g><g style="opacity:0.1"><path d="M587.19,509.07c1.14-9.75-5.14-13-2.6-19.46,2-5.05-15.18,5.86-18.06,12.08s-.3,12.12,4.65,15.21S586.19,517.46,587.19,509.07Z" style="fill:#3a307c;opacity:0.9"/><path d="M565.14,513.2s6.91,3.09,7.56,16.88c.35,7.47,4,.31,2.5-7.37-1.72-8.52-7.12-10.23-9.27-12.41" style="fill:#ee7335;fill-rule:evenodd"/><path d="M549.61,519c-7.55-10.84-2.11-18.65-9.26-24.75-5.55-4.73,21.75-2.65,29.11,2.9s8,14.2,4.12,21S556.11,528.33,549.61,519Z" style="fill:#ee7335"/></g><g style="opacity:0.1"><path d="M704.18,487.63c1.15-9.75-5.13-13-2.59-19.46,2-5.05-15.17,5.85-18.06,12.07s-.31,12.12,4.65,15.21S703.19,496,704.18,487.63Z" style="fill:#fff;opacity:0.9"/><path d="M682.14,491.76s6.91,3.09,7.56,16.88c.35,7.47,4,.31,2.51-7.37-1.73-8.52-7.13-10.24-9.28-12.41" style="fill:#fff;fill-rule:evenodd"/><path d="M666.61,497.56c-7.55-10.84-2.12-18.65-9.26-24.75-5.55-4.74,21.74-2.66,29.11,2.9s8,14.2,4.12,21S673.1,506.9,666.61,497.56Z" style="fill:#fff"/></g><g style="opacity:0.1"><path d="M695.09,458.66c-2.35-19.89,10.48-26.44,5.28-39.69-4-10.3,31,11.94,36.87,24.63s.59,24.73-9.5,31S697.12,475.78,695.09,458.66Z" style="fill:#fff"/><path d="M740.07,467.1s-14.13,6.3-15.44,34.44c-.71,15.25-8.26.63-5.11-15,3.52-17.37,14.54-20.89,18.93-25.32" style="fill:#fff;fill-rule:evenodd"/><path d="M771.75,479c15.41-22.14,4.3-38.07,18.88-50.51,11.33-9.68-44.36-5.43-59.39,5.91s-16.39,29-8.4,42.88C730.75,491,758.5,498,771.75,479Z" style="fill:#fff"/></g><g style="opacity:0.1"><path d="M2113.59,470.35c1.45-12.28-6.47-16.32-3.26-24.52,2.49-6.35-19.12,7.39-22.77,15.22s-.37,15.27,5.86,19.17S2112.34,480.93,2113.59,470.35Z" style="fill:#fff;opacity:0.9"/><path d="M2085.82,475.57s8.72,3.89,9.53,21.26c.44,9.42,5.1.39,3.15-9.28-2.17-10.73-9-12.91-11.69-15.64" style="fill:#fff;fill-rule:evenodd"/><path d="M2066.25,482.88c-9.52-13.67-2.66-23.51-11.66-31.19-7-6,27.4-3.35,36.68,3.64s10.11,17.91,5.17,26.49S2074.43,494.63,2066.25,482.88Z" style="fill:#fff"/></g><g style="opacity:0.1"><path d="M1918.63,577c-8.67-10-4.06-18.41-11.85-23.75-6-4.15,21.44-4.94,29.4-.17s9.51,13.35,6.31,20.57S1926.1,585.67,1918.63,577Z" style="fill:#fff;opacity:0.9"/><path d="M1946.46,565s-5.41,8.71,4.31,24.64c5.28,8.63-4.29,3.41-8.38-6.36-4.53-10.84.21-16.87,1-20.93" style="fill:#fff;fill-rule:evenodd"/><path d="M1968.24,559.68c.25-17.87-11.76-22.49-8.38-34.74,2.62-9.51-26.37,13.5-30.42,25.3s1.78,22,11.33,26.66S1968.05,575.05,1968.24,559.68Z" style="fill:#fff"/></g><g style="opacity:0.4"><path d="M1913,585.21c14.3-16.55,6.7-30.35,19.54-39.17,10-6.84-35.35-8.14-48.46-.26s-15.69,22-10.42,33.9C1878.86,591.42,1900.66,599.46,1913,585.21Z" style="fill:#f6f6f7;opacity:0.9"/><path d="M1867.1,565.31s8.93,14.35-7.11,40.62c-8.7,14.23,7.08,5.63,13.82-10.48,7.46-17.88-.35-27.82-1.62-34.51" style="fill:#f6f6f7;fill-rule:evenodd"/><path d="M1831.18,556.62c-.4-29.46,19.41-37.09,13.84-57.27-4.33-15.7,43.47,22.26,50.14,41.71s-2.94,36.28-18.68,44C1860.93,592.6,1831.51,582,1831.18,556.62Z" style="fill:#f6f6f7"/></g><g style="opacity:0.1"><path d="M1291.73,440.23c-3.79-32,16.85-42.57,8.48-63.9-6.49-16.58,49.84,19.23,59.35,39.65s1,39.81-15.28,50C1328.23,476,1295,467.79,1291.73,440.23Z" style="fill:#fff"/><path d="M1364.12,453.82s-22.73,10.13-24.85,55.43c-1.14,24.54-13.29,1-8.21-24.21,5.65-28,23.4-33.64,30.46-40.76" style="fill:#fff;fill-rule:evenodd"/><path d="M1415.12,472.87c24.8-35.63,6.93-61.26,30.4-81.29,18.23-15.58-71.42-8.74-95.61,9.5s-26.37,46.68-13.5,69C1349.11,492.2,1393.79,503.52,1415.12,472.87Z" style="fill:#fff"/></g><g style="opacity:0.4"><path d="M1453.91,501.49c-8.87-74.84,39.41-99.49,19.83-149.34-15.16-38.75,116.52,45,138.7,92.66s2.25,93-35.72,116.77C1539.22,585,1461.54,565.9,1453.91,501.49Z" style="fill:#f6f6f7;opacity:0.9"/></g><g style="opacity:0.5"><path d="M1337.28,477.2c1.84-15.7-8.26-20.86-4.16-31.32,3.18-8.12-24.44,9.43-29.1,19.43s-.47,19.52,7.5,24.49S1335.67,490.7,1337.28,477.2Z" style="fill:#f6f6f7;opacity:0.9"/><path d="M1301.81,483.85s11.12,5,12.16,27.17c.56,12,6.51.5,4-11.85-2.77-13.72-11.47-16.5-14.93-20" style="fill:#f6f6f7;fill-rule:evenodd"/><path d="M1276.8,493.19c-12.15-17.45-3.4-30-14.9-39.84-8.93-7.63,35-4.28,46.86,4.66s12.92,22.87,6.62,33.84C1309.15,502.66,1287.26,508.21,1276.8,493.19Z" style="fill:#f6f6f7"/></g></svg>