<svg xmlns="http://www.w3.org/2000/svg" xmlns:xlink="http://www.w3.org/1999/xlink" viewBox="0 0 525.07 474.8"><defs><clipPath id="a"><path d="M176.09,241.62l17.46-5.44s39.91,71.05,39.87,113c0,15.62-22.41,79.73-24.65,80.63s-7.56,1-9.47-5.66c-1.39-4.88-2.46-46.61,5.61-60.29,3.34-5.67-26.84-48.87-26-73.23C180.09,256.43,176.09,241.62,176.09,241.62Z" style="fill:none"/></clipPath><linearGradient id="b" x1="5652.06" y1="288.17" x2="5817.79" y2="312.93" gradientTransform="matrix(-1, -0.02, -0.02, 1, 5876.93, 10.52)" gradientUnits="userSpaceOnUse"><stop offset="0.13" stop-color="#38237e"/><stop offset="1" stop-color="#85239d"/></linearGradient><clipPath id="c"><path d="M209.73,158.29s-1.15-21.17-24.35-14.45c-23,6.66-25.85,9-40.63-11C133.93,118.2,97.57,111.75,85.1,145.9c-8.73,23.92-14.46,23.48-22.93,28.77-16.17,10.1-11.08,31.84.47,42.86,20.48,19.55,41.79,11.46,47.81,10,27.81-6.92,24.41-26,64.19-11.31,42.71,15.74,41.46-6.91,24.1-21.64-8-6.82-10.6-27.16-6-25.16,7.74,3.38,10.18-7.95,13.17-6.48C208.66,164.28,209.85,161.6,209.73,158.29Z" style="fill:none"/></clipPath><clipPath id="d"><path d="M213.71,228.14c-2.48,9,9.65,31.84,11.45,41.05,2.64,13.57,10.78,42.78,8.26,45.78-10.08,12.07-34.61,5.72-56.67-12.78-17.34-14.56-71.48-3.69-72.15-20.82-1-25.92,63.41-29.41,58.6-63.51-9.61-3.77-19.43-11.45-25.13-28-14.37-41.77,19-64.3,27.43-68.43a2.78,2.78,0,0,1,1.61-.11c2.09,1.54,4,5.57,4,5.57-4.33,9.38-18.78,24.29-8.92,45.76,5.23,11.36,14.48,15.73,24.87,16.13h0l.56,0v.07c2,.34,9.3,1.41,14.4.49" style="fill:none;clip-rule:evenodd"/></clipPath><linearGradient id="e" x1="5597.16" y1="209.79" x2="5622.02" y2="156.05" gradientTransform="matrix(-1, 0.01, 0.01, 1, 5959.21, -76.47)" gradientUnits="userSpaceOnUse"><stop offset="0.11" stop-color="#8724a1"/><stop offset="0.14" stop-color="#7e249d"/><stop offset="0.26" stop-color="#652492"/><stop offset="0.38" stop-color="#512389"/><stop offset="0.52" stop-color="#432383"/><stop offset="0.7" stop-color="#3a237f"/><stop offset="1" stop-color="#38237e"/></linearGradient><clipPath id="f"><path d="M333.83,181.39l14,11-7.95,30.11s-16.41-2.74,17.4,45.32c12.83,18.23-4.25,21.24-12.19,19.37-14.44-3.38-15-1.91-39.7,5.14-24.21,4.62-28.29-6.56-38.51-6.18-15.12.55,2.67-65.48,14.45-84.06C302.77,168.3,319,175.36,319,175.36h0Z" style="fill:none"/></clipPath></defs><g style="opacity:0.5"><g style="opacity:0.2"><path d="M252.31,81c-.64,16.36-15.62,33-26.78,32.59S200.73,95.36,201.36,79s12.72-27.1,26.54-26.57S252.94,64.59,252.31,81Z" style="fill:#f8f8f9"/></g><g style="opacity:0.2"><path d="M281.58,64c-.5,12.94-12.35,26.12-21.17,25.77S240.8,75.33,241.3,62.39s10.06-21.43,21-21S282.08,51,281.58,64Z" style="fill:#f8f8f9"/></g><path d="M205.38,107.39c-.28,7.27-6.76,15-11.7,14.85s-10.8-8.45-10.52-15.71,5.44-11.65,11.58-11.41S205.67,100.13,205.38,107.39Z" style="fill:#f7f7f7"/></g><path d="M168.66,126.61a3,3,0,0,0,1.17-.88,22.23,22.23,0,0,1,7.92-4.59c2.46-.51,8.38,1.92,8.92,1.59s.86-1.56-3.77-3.24c0,0,9.55-6.9,9.08-8.22s-7.51,4-7.51,4,5.94-7.67,5.43-9.21-6.37,6.38-6.37,6.38,5.31-7.36,4.28-8.12-5.55,5.73-5.55,5.73,4.07-5.87,2.79-6.36-4.77,6-4.77,6-2.44,3.53-4.95,6.41c-2.33,2.23-7.27,5.86-9.43,7.79a1,1,0,0,0-.31.38c-.13.37.5,1.14.8,1.4C167,126.24,167.84,126.86,168.66,126.61Z" style="fill:#eeaa81"/><path d="M360.16,396.83c4.39,3.32,1.63,13.13-4.43,10.9,0,0-64.29-25.37-69.36-47.16-2.85-12.19-26.22-88-12.73-82.11l36,6.05s5.34,70.93,6.67,76.29c.49,2,8.78,4,15,10.65C342.24,383.12,357.79,395,360.16,396.83Z" style="fill:#38237e;opacity:0.7000000000000001"/><path d="M360.16,396.83c4.39,3.32,1.63,13.13-4.43,10.9,0,0-64.29-25.37-69.36-47.16-2.85-12.19-26.22-88-12.73-82.11l36,6.05s5.34,70.93,6.67,76.29c.49,2,8.78,4,15,10.65C342.24,383.12,357.79,395,360.16,396.83Z" style="fill:#38237e;opacity:0.7000000000000001"/><path d="M176.09,241.62l17.46-5.44s39.91,71.05,39.87,113c0,15.62-23.81,78.37-24.65,80.63-.77,2.07-8.45,1.17-9.47-5.66-.43-2.94.18-9.12.73-20.34.69-14.49-2.13-27,4.88-39.95,3.12-5.8-26.84-48.87-26-73.23C180.09,256.43,176.09,241.62,176.09,241.62Z" style="fill:#b93b88"/><g style="clip-path:url(#a)"><path d="M202.71,365.64s-2.83.13-10.12.35c-11.11-17.5-13.86-43,.69-55.43,12.23-10.46-7-17.25,6.78-8.26,9.29,2.7,22.26,27.77,22.52,37.18C223.12,359,213.17,365.27,202.71,365.64Z" style="fill:#38237e;fill-rule:evenodd;opacity:0.4"/></g><path d="M62.17,174.67c8.47-5.29,14.2-4.85,22.93-28.77,12.47-34.15,48.83-27.7,59.65-13.06,14.78,20,17.63,17.65,40.63,11,8.74-2.53,14.34-1.11,17.94,1.64h0l.09.1c1.77,1.39,5.25,6.36,5.88,7.13,2.28,2.76,4.65,5.76,4.95,9.32.2,2.5-.28,5-.25,7.51.11,7.81,5.76,13.61,7.12,18.48s-3.8,14.32-13.7,9.76a20.55,20.55,0,0,0-7.14-1.85c15.84,14.71,15.76,35.52-25.65,20.26-39.78-14.65-36.38,4.39-64.19,11.31-6,1.5-27.33,9.59-47.81-10C51.09,206.51,46,184.77,62.17,174.67Z" style="fill:url(#b)"/><path d="M206,160.15S204.93,140,182.85,146.4c-21.89,6.33-24.61,8.57-38.68-10.47C133.88,122,99.28,115.86,87.41,148.36c-8.3,22.76-13.75,22.34-21.83,27.38-15.38,9.6-10.53,30.3.46,40.79,19.49,18.6,39.77,10.9,45.51,9.47,26.46-6.58,23.22-24.7,61.08-10.76,40.65,15,39.44-6.57,22.92-20.6-7.64-6.49-10.07-25.84-5.71-23.94,7.36,3.21,9.68-7.57,12.53-6.16C205,165.85,206.14,163.3,206,160.15Z" style="fill:#3d1e7f;opacity:0.29"/><g style="clip-path:url(#c)"><path d="M174.19,179.82s4,3.58,14.19,12.93c-7.8,36.62-40.34,62.4-76.29,58.77-30.28-3-54-26-61-55.49,9.09,3,25,4.52,25,4.52,11.8.43,25-2,36.93-14.16C137.84,161.2,159.53,166.48,174.19,179.82Z" style="fill:#f7f7f7;fill-rule:evenodd;opacity:0.05"/></g><path d="M324.76,166.52c-.21-.88-4.3-1.11-4.78-2.38-1.05-2.83,2.15-22.43,13.51-29.91,5.15-3.39,2.6-3.59,14.74,1.71,11.18,4.89,6.75,21.09,5.66,21.89a28.39,28.39,0,0,1,2.13,5c.75,2.5-7,2.7-10.08,1.15-4.06,3-8.93,6.7-8.93,6.7l-5,16.38-17.81-5.24S325.62,170,324.76,166.52Z" style="fill:#fbc2b0"/><path d="M397.14,322.81c4.06-1.89,10.41,5,5.65,10.84,0,0-45,33.75-66.8,28.62-12.2-2.88-33.19-53.66-42.76-84,0,0,29-28.76,41-14.39s15.32,75.71,15.29,71.69c0-1,8.1-5.47,16.08-6.34C380.57,327.59,394.6,324,397.14,322.81Z" style="fill:#38237e"/><path d="M262.58,105.8a3.09,3.09,0,0,0,0-1.54,23.55,23.55,0,0,1,1.25-9.53c1.14-2.38,6.95-5.76,7-6.42s-.77-1.7-5.12,1.08c0,0,.35-12.37-1.05-12.82s-1.46,8.82-1.46,8.82S260.65,75.54,259,75s1.24,9.37,1.24,9.37-2.73-9.13-4-8.75,1.22,8.28,1.22,8.28-2.29-7.14-3.52-6.39,1.94,7.79,1.94,7.79,1.37,4.3,2.18,8.23a34,34,0,0,1,.26,4.85c.23,3,.51,4.95.74,8a1,1,0,0,0,.11.49c.23.35.73.32,1.15.25C261.22,106.92,262.26,106.64,262.58,105.8Z" style="fill:#fbc2b0"/><path d="M295.77,196c-43.49-12.36-38.7-82.85-38-93a1.54,1.54,0,0,1,1.16-1.46l3.95-.92s1.24-.31,1.52.81c17.4,68.25,55.36,71.19,55.62,75.55C310.47,188.74,329.62,169.65,295.77,196Z" style="fill:#ee603d;fill-rule:evenodd"/><path d="M333.83,181.39l14,11-7.95,30.11s-16.41-2.74,17.4,45.32c12.83,18.23-4.25,21.24-12.19,19.37-14.44-3.38-15-1.91-39.7,5.14-24.21,4.62-28.29-6.56-38.51-6.18-15.12.55,3.1-65.21,14.45-84.06C299.57,171.83,319,175.36,319,175.36h0Z" style="fill:#f9693f"/><path d="M417.29,241.5a3,3,0,0,1,1.43.34,22.06,22.06,0,0,0,9.1.94c2.46-.53,6.87-5.17,7.5-5.1s1.41,1.08-2.13,4.51c0,0,11.54,2.4,11.65,3.79s-8.49-.6-8.49-.6,8.55,4.58,8.71,6.19-8.42-3.22-8.42-3.22,7.86,4.54,7.22,5.66-7.39-3-7.39-3,6.11,3.7,5.14,4.67-6.79-3.52-6.79-3.52-3.68-2.22-7.14-3.82a33.29,33.29,0,0,0-4.44-1.32c-2.76-.87-4.47-1.56-7.23-2.44a.84.84,0,0,1-.43-.22c-.28-.28-.13-.74,0-1.1C416,242.51,416.44,241.61,417.29,241.5Z" style="fill:#fbc2b0"/><path d="M363.81,413.29c-1,.07-4.45.78-2.86,6.11s4.63,11.07,4.34,14.52c-.33,4,2.8,5.45,3.7,2.07,1.27-4.77,6.37-24.6,6.37-24.6s1.24-4.84-2.46-6.14a3.4,3.4,0,0,0-4.64,3.16C368,411.2,366.31,413.13,363.81,413.29Z" style="fill:#38237e;opacity:0.9"/><path d="M411.34,325.83c-.46.91-1.59,4.21,3.8,5.57s11.88,1.67,14.7,3.68c3.27,2.33,6.11.38,3.67-2.13-3.46-3.52-17.9-18-17.9-18s-3.53-3.53-6.53-1a3.39,3.39,0,0,0,.35,5.6C411.71,321.12,412.48,323.59,411.34,325.83Z" style="fill:#38237e;opacity:0.9"/><path d="M335.78,219C357.14,240.71,415,247.21,423,248c.8.07,1-.82,1-.82s.47-4,.49-4.62a1.33,1.33,0,0,0-.8-1.18c-52.66-20.23-71.8-49.74-81.39-52.18C331.88,200,357.72,182.14,335.78,219Z" style="fill:#f9693f;fill-rule:evenodd"/><path d="M281.92,234.07a3,3,0,0,1,1.44-.24,22.18,22.18,0,0,0,8.77-2.66c2.06-1.43,4.32-7.42,4.93-7.59s1.72.44-.21,5c0,0,11.56-2.24,12.21-1s-8.06,2.73-8.06,2.73,9.64.91,10.42,2.34-9,.29-9,.29,9,1.14,8.85,2.42-8,.13-8,.13,7.06,1,6.55,2.32-7.63-.62-7.63-.62-4.25-.62-8.07-.76a31.06,31.06,0,0,0-4.59.5c-2.88.26-4.73.29-7.62.55a1.11,1.11,0,0,1-.48,0c-.37-.16-.41-.65-.4-1C281.07,235.52,281.17,234.5,281.92,234.07Z" style="fill:#eeaa81"/><path d="M203,228.53c24.88,17.27,74.08,10.29,81.4,9.2a1.09,1.09,0,0,0,.93-.91l.06-2.91s.08-.76-1-.93c-55.58-8.81-72.88-43-82.76-43.63C204.38,193.28,208.67,202.34,203,228.53Z" style="fill:#f29926;fill-rule:evenodd"/><path d="M178.4,193.51a15.13,15.13,0,0,0,6.64-2c3.25-1.93,5.22-14.9,4.55-18a25.25,25.25,0,0,0,10.5,5s-.4,9.68,2,11.53.94,6.48,3,5.91c-3,8-5.43,8.59-14.12,7.56S178.17,195.94,178.4,193.51Z" style="fill:#eeaa81"/><path d="M207,437.21c.78-.66,3.73-2.52,6.28,2.4s4.37,11.18,7,13.46c3,2.64,1.78,5.85-1.23,4.06-4.22-2.54-21.67-13.25-21.67-13.25s-4.26-2.61-2.51-6.13a3.39,3.39,0,0,1,5.52-.95C202.54,438.65,205.12,438.84,207,437.21Z" style="fill:#b93b88"/><path d="M105.56,370.61c.93.45,3.83,2.38.4,6.74s-8.4,8.58-9.4,11.89c-1.17,3.85-4.61,4-4.21.56.6-4.9,3.17-25.22,3.17-25.22s.64-4.95,4.55-4.8a3.4,3.4,0,0,1,3.15,4.65C102.4,367.11,103.29,369.55,105.56,370.61Z" style="fill:#b93b88"/><path d="M173.29,457.56c14-.51,30.16,3.55,30.31,7.51s-15.73,9.16-29.71,9.68-22.28-2.92-22.45-7.81S159.31,458.07,173.29,457.56Z" style="fill:#fff;opacity:0.2"/><path d="M421.31,433c-8.58,11-22.1,20.85-25.21,18.43s3.06-17.95,11.64-29,16.54-15.21,20.4-12.2S429.89,421.92,421.31,433Z" style="fill:#fff;opacity:0.2"/><path d="M197.31,294.63c8.19,24.76,14.75,49.08,12.27,57.57S206.7,363.35,168.22,370c-19.29,3.35-53.29,0-55.55-.62s-5.9-7.77,0-8.58c25-3.43,47.88-26.11,63-15.89,0,0-7.58-9.53-19.25-30.15-4.69-8.3-8.65-16.24-10-25.17C144.54,276.38,186.67,262.51,197.31,294.63Z" style="fill:#b93b88"/><path d="M163.2,217.86c-9.61-3.77-19.43-11.45-25.13-28-14.73-42.8,20.69-65.34,28-68.7a.79.79,0,0,1,.77,0c1.77,1.11,3.35,4.24,4,5.31a.91.91,0,0,1,0,.92c-4.58,9.4-18.38,24.17-8.69,45.27,5.23,11.36,14.48,15.73,24.87,16.13h0a3.34,3.34,0,0,1,.56.09c2,.34,8.85,1.5,13.92.49,0,0,22.75,14,13.95,45.26.43,3.14,4.83,25.21,6.38,34.45,3.15,18.69,21.74,19.94,18.82,25.25-7.59,13.77-47.82,28.54-81.73,7.31-19.19-12-52.69-5.85-54.38-20.25C101.58,255.61,168,252,163.2,217.86Z" style="fill:#f1a22a;fill-rule:evenodd"/><g style="clip-path:url(#d)"><path d="M163.2,217.86s-22,5-29.56-6.3c-36.9,2.29-59.06,45.11-61.09,80.73-1.71,30,31.3,41.25,51.33,28.93-1.49-9.31-.52-25.1-.52-25.1,1.39-11.58,5.82-24.09,19.51-34C171.2,241.66,166,222.24,163.2,217.86Z" style="fill:#ee7335;fill-rule:evenodd;opacity:0.2"/></g><path d="M197.22,179.54c1,.28,1.66-.11,2.36.68s.55,2.83.53,3.95a2.78,2.78,0,0,1-.17,1.15c-.33.7-.48.88-1.24.72a3.45,3.45,0,0,1-1.87-1.25c-.5-.59-.31-1.81-.81-2.4-.8-1-3.23-2.22-4.09-3.13a4.89,4.89,0,0,1-1.39-2.47c-.13-.89.86-.58,1.79-.1.75.4,1.42,1.25,2.2,1.71A13.25,13.25,0,0,0,197.22,179.54Z" style="fill:#d59370"/><path d="M185.75,173.37c-3.85-7.72-2.1-8.27-1.34-8.48,1.3-.35,3.19,2.25,4.61.09.71-1.07,1.52-7.4,4.3-5.48.94.65,9.11,4.06,14.5.57.7-.45.64.32.69.68.22,1.69.43,3.83.58,6.5.45,8.15-1.79,12.79-3.19,14.22S190.54,181.87,185.75,173.37Z" style="fill:#eeaa81"/><path d="M198.77,165.76a1.06,1.06,0,0,1-1.06,1.08,1.08,1.08,0,0,1-1.1-1,1.1,1.1,0,0,1,1.06-1.1A1.08,1.08,0,0,1,198.77,165.76Z" style="opacity:0.21"/><path d="M207.09,165.38a1.06,1.06,0,0,1-1.05,1.07,1.07,1.07,0,0,1-1.11-1,1.08,1.08,0,1,1,2.16,0Z" style="opacity:0.21"/><path d="M198.84,171.56c.66,1.62.06,3.29-.93,3.7s-2.73-.33-3.4-1.93-.13-3,1.12-3.45S198.17,170,198.84,171.56Z" style="fill:#ee4c63;opacity:0.21"/><path d="M335.92,148.27a1.08,1.08,0,0,0,1.84,1.12,1.08,1.08,0,0,0-1.84-1.12Z" style="opacity:0.21"/><path d="M329,143.72a1.06,1.06,0,0,0,.36,1.46,1.07,1.07,0,0,0,1.48-.34,1.08,1.08,0,1,0-1.84-1.12Z" style="opacity:0.21"/><path d="M205.43,175.29a.75.75,0,0,0-.47,0,14.45,14.45,0,0,1-1.9.11c-.62,0-1.23,0-1.93-.07a.78.78,0,0,0-.75,1.06,3,3,0,0,0,2.7,2.28h.25a2.87,2.87,0,0,0,2.64-2.44A.76.76,0,0,0,205.43,175.29Z" style="fill:#f7f7f7"/><path d="M182.42,255.83a3.56,3.56,0,0,0-6.16.78,36.44,36.44,0,0,1-3.19,5.48,9.7,9.7,0,0,1-7.27,4c-15.34,1.19-16.08,12.3-15.94,15.65,0,0,.92,10.95,12.9,11.41,8.39.32,16.12-3.28,20.68-9.9C189,275.1,188.61,264.09,182.42,255.83Z" style="fill:#ee7335;opacity:0.2"/><path d="M317.79,294.26a1.56,1.56,0,0,1,2.55-1,17.54,17.54,0,0,0,2.37,1.45,4.24,4.24,0,0,0,3.65,0c6.2-2.74,8.8,1.42,9.44,2.75a5.64,5.64,0,0,1-2.62,7.11,10.12,10.12,0,0,1-15.39-10.37Z" style="fill:#f7f7f7;opacity:0.1"/><path d="M345.62,140.41c-3.18.54-6.47,1.08-9.11.46-5.59-1.31-8.91-4.58-9.08-9-.15-3.81.46-9.72,3.7-12.76,2.91-2.73,8-6.17,12.59-3.12,2.07,1.38.89,5.88,3.95,4.32,8.42-3.67,10.95,1.35,11.53,3.6,2.53,9.89,11.41,7.74,13.46,14,1.63,4.94-6.54,8.63-4.81,12.44a11.6,11.6,0,0,1,1.12,5.3,5.6,5.6,0,0,1-.77,2.84c-.74,1.2-1.94,1.66-2.84,2.69-1.05,1.23-1.47,3-2.08,4.5-1.27,3-2.5,5.48-5.8,6.7-2.2.8-4.43.43-6.7.23-2.9-.26-5.62.49-8.48.37a9.92,9.92,0,0,1-4.26-1.2,2.36,2.36,0,0,1-1.05-.69l-.1,0v0a2,2,0,0,1-.34-1.64c.45-2.29,3.49-4.61,5.56-5.41a6.59,6.59,0,0,1,3.43-.44,8.9,8.9,0,0,1,2.61,1.06c3.43.49,7.88-.46,7.5-2.52-.25-1.38-1.73-2.53-3-1.88a5.57,5.57,0,0,0-1.95,2.6c-.19.52-1,.43-1.51.47a3.53,3.53,0,0,1-1.92-.68s-5-3.2,2.29-8.61c1.19-.88,2.73-2.79,2.26-4s-1.4-.44-2.89-1.91c-1.66-1.63-2.64-3.49-1.2-5.83.42-.69,1.33-1.32,1-2.33S346.73,140.23,345.62,140.41Z" style="fill:url(#e)"/><path d="M328.47,167.27c-.84-.2-1.11-.73-1.93-.45s-1.52,1.76-2,2.56c-.15.28-2.34,3.45-2.36,3.76-.06.63,0,.81.57,1a2.88,2.88,0,0,0,1.83-.13c.58-.22,3-4,3.56-4.25.95-.34,3.18-.26,4.15-.55a4,4,0,0,0,2-1.18c.46-.58-.38-.77-1.22-.8s-1.5.33-2.24.32A9.42,9.42,0,0,1,328.47,167.27Z" style="fill:#faad9d"/><path d="M320.32,155.84c1.41-3.3,1.75-2.83,4.56-2,3.72,1.83,6.2,1.39,8.55,5.19,2.78,5.07-4.22,5-5.58,7.68-2.42,5.58-8.6-.4-8.57-4.72C319.22,159.8,319.33,159.07,320.32,155.84Z" style="fill:#38237e"/><g style="clip-path:url(#f)"><path d="M339.88,222.52c-5-4.79-15.35-2.41-19.84,6.14a22,22,0,0,0,5.25,26.27c4.88,4.05,22.38,13.92,26.38,18.83a15,15,0,0,1,3.11,11.74c-.16,1-2.55,3.83-2.35,4.78.24,1.11-2.23.57-1.42,1.37,5.61,5.48,1.19,6,9,6.6s16.2-3.08,19.76-10.06c3.45-6.78,1.85-15.1-1.37-22a52.11,52.11,0,0,0-12.55-16.81c-9.36-8.29-22.29-13.93-26.66-25.66" style="fill:#ee603d;fill-rule:evenodd"/></g><path d="M345.62,140.41c-3.18.54-6.47,1.08-9.11.46-5.59-1.31-8.91-4.58-9.08-9-.15-3.81.82-9,4-12.08,1.76-1.7,7.85-7,12.29-3.8,1.74,1.27-1.09,4.82,2.1,6,3.49,1.12,5.63-3.44,7.77-3,5.33,1,.71,7.39,3.15,11.8,2.87,5.19,11.26,1.5,10.9,9.41-.18,4.28-1.52,6.34.21,10.15a11.6,11.6,0,0,1,1.12,5.3,5.6,5.6,0,0,1-.77,2.84c-.74,1.2-1.94,1.66-2.84,2.69-1.05,1.23-1.47,3-2.08,4.5-1.27,3-2.5,5.48-5.8,6.7-2.2.8-4.43.43-6.7.23-2.9-.26-5.62.49-8.48.37a9.92,9.92,0,0,1-4.26-1.2,2.36,2.36,0,0,1-1.05-.69l-.1,0v0a2,2,0,0,1-.34-1.64c.45-2.29,3.49-4.61,5.56-5.41a6.59,6.59,0,0,1,3.43-.44,8.9,8.9,0,0,1,2.61,1.06c3.43.49,8.1-.51,7.5-2.52-.42-1.42-1.55-2.5-3-1.88a5.57,5.57,0,0,0-1.95,2.6c-.19.52-1,.46-1.51.47a4.45,4.45,0,0,1-1.92-.63c-.09-.06-5-3.11,2.29-8.66,1.18-.9,2.73-2.79,2.26-4s-1.4-.44-2.89-1.91c-1.66-1.63-2.64-3.49-1.2-5.83.42-.69,1.33-1.32,1-2.33S346.73,140.23,345.62,140.41Z" style="fill:#38237e;opacity:0.51"/><path d="M328.13,157.67a.79.79,0,0,0-.44-.16,15.06,15.06,0,0,1-1.8-.62c-.58-.22-1.11-.51-1.75-.8a.78.78,0,0,0-.74,0,.79.79,0,0,0-.36.64,3,3,0,0,0,1.63,3.15l.23.09a2.88,2.88,0,0,0,3.37-1.26A.77.77,0,0,0,328.13,157.67Z" style="fill:#fbc2b0"/></svg>