<svg xmlns="http://www.w3.org/2000/svg" xmlns:xlink="http://www.w3.org/1999/xlink" viewBox="0 0 211.69 200.92"><defs><linearGradient id="a" x1="56" y1="69.4" x2="111.58" y2="13.82" gradientUnits="userSpaceOnUse"><stop offset="0.3" stop-color="#8916a8"/><stop offset="0.48" stop-color="#8616a7"/><stop offset="0.61" stop-color="#7d16a4"/><stop offset="0.72" stop-color="#6e169e"/><stop offset="0.82" stop-color="#591797"/><stop offset="0.91" stop-color="#3d178d"/><stop offset="0.99" stop-color="#1b1881"/><stop offset="1" stop-color="#181880"/></linearGradient><linearGradient id="b" x1="56.16" y1="84.31" x2="109.96" y2="39.17" gradientUnits="userSpaceOnUse"><stop offset="0.24" stop-color="#f97322"/><stop offset="0.34" stop-color="#f56f28"/><stop offset="0.49" stop-color="#e8623a"/><stop offset="0.66" stop-color="#d44e57"/><stop offset="0.84" stop-color="#b7337f"/><stop offset="1" stop-color="#9b17a7"/></linearGradient><linearGradient id="c" x1="68.04" y1="74.39" x2="100.67" y2="47.01" gradientUnits="userSpaceOnUse"><stop offset="0.11" stop-color="#f9a929"/><stop offset="0.37" stop-color="#f9a529"/><stop offset="0.6" stop-color="#f99a27"/><stop offset="0.82" stop-color="#f98825"/><stop offset="1" stop-color="#f97322"/></linearGradient></defs><title>footer-logo</title><path d="M121.23,61.34h0a39.4,39.4,0,0,0-2.94-13.54C106.57,19.73,109.23-1,76.77,4,58,6.89,40,28.28,42.51,56.82c.14,1.53.34,3.06.59,4.54h0l0,.15C47.39,86.85,67,105,86.54,103.65,106.78,102.29,122,82,121.23,61.34Z" style="fill-rule:evenodd;opacity:0.15"/><path d="M81.76,20.89c21.54-.48,24.08,17.3,32.91,30.94,2,3.11,5.55,5.72,8.21,6.25a38.49,38.49,0,0,0-2.94-13.53C108.22,16.48,110.88-4.24,78.42.74,59.61,3.64,41.62,25,44.16,53.56c.13,1.55.33,3.08.59,4.59C49.18,52.86,53.31,21.52,81.76,20.89Z" style="fill-rule:evenodd;fill:url(#a)"/><path d="M44.76,58.27C49,83.6,68.65,101.7,88.18,100.39,108.44,99,123.6,78.7,122.88,58.07v0c-2.67-.53-6.09-3.19-8.1-6.28C106,38.13,103.25,20.34,81.71,20.82c-28.46.61-32.53,32-37,37.3Z" style="fill-rule:evenodd;fill:url(#b)"/><path d="M102.59,55.42c3.52,13-3.74,30.29-12.69,32.66s-24-9-27.48-22S65.68,42.5,76.77,39.56,99.06,42.42,102.59,55.42Z" style="opacity:0.1"/><path d="M103,53.51c3.52,13-3.75,30.3-12.68,32.67s-24-9-27.48-22,3.26-23.56,14.34-26.5S99.49,40.53,103,53.51Z" style="fill:url(#c)"/><g style="opacity:0.2"><path d="M76.77,39.56c11.09-2.94,22.29,2.86,25.82,15.86a30.77,30.77,0,0,1,.2,13.91A31.67,31.67,0,0,0,103,53.51c-3.52-13-14.73-18.78-25.82-15.84A19.88,19.88,0,0,0,62.26,53.6,20,20,0,0,1,76.77,39.56Z" style="fill:#f6f6f6"/></g><path d="M90.22,61.42c1.12,5.27-1.62,10-4.86,10.67s-8.12-2.43-9.25-7.69,1.24-9,5.25-9.84S89.08,56.15,90.22,61.42Z" style="opacity:0.05"/><path d="M90.71,60c1.13,5.28-1.61,10-4.85,10.68s-8.12-2.43-9.26-7.7,1.24-9,5.26-9.84S89.58,54.69,90.71,60Z" style="fill:#f6f6f6"/><path d="M122.88,58h0c-2.67-.53-6.16-3.23-8-6.16C106,38.12,103.18,20.25,81.64,20.81c-28.37.74-32.45,31.94-36.89,37.25,0,0,0-.1,0,.07,7.38-8.37,9-34.28,36.48-34.82,20.67-.41,23.71,15.13,32.51,28.91a14.21,14.21,0,0,0,9.12,5.84" style="fill:#f6f6f6;fill-rule:evenodd;opacity:0.2"/><path d="M94.89,97.94C87.19,89.38,80.69,78.09,82,62.18,84.26,33.43,71.33,19.72,55.5,14.5a48.52,48.52,0,0,0-6.8,10.82,54.77,54.77,0,0,0-6.3,31.47c.14,1.53.34,3.05.59,4.55h0l0,.16C47.3,86.86,67,105,86.62,103.69a32.67,32.67,0,0,0,11.26-2.86C96.05,99.09,94.89,97.94,94.89,97.94Z" style="fill:#fff;fill-rule:evenodd;opacity:0.15"/><g style="opacity:0.7000000000000001"><path d="M20.4,147.44V130.32h4.07v28.74H20.62v-3.57q-3.16,4.27-9.26,4.27a10.85,10.85,0,0,1-8.22-3.28A11.9,11.9,0,0,1,0,147.86V130.32H4.07v17.54a8.31,8.31,0,0,0,2.19,6A7.63,7.63,0,0,0,12,156.14a8.13,8.13,0,0,0,6.12-2.36A8.76,8.76,0,0,0,20.4,147.44Z" style="fill:#371880"/><path d="M64.89,129.62a10.67,10.67,0,0,1,8.25,3.29,12.18,12.18,0,0,1,3,8.61v17.54h-4.1V141.94A9.37,9.37,0,0,0,70,135.57a7.42,7.42,0,0,0-5.78-2.33,8.28,8.28,0,0,0-8.67,8.7v17.12H51.39V141.94a9.37,9.37,0,0,0-2.07-6.37,7.45,7.45,0,0,0-5.81-2.33,8.28,8.28,0,0,0-8.67,8.7v17.12H30.77V130.32h3.84v3.79a11.36,11.36,0,0,1,9.6-4.49q7.29,0,10.13,6a10.31,10.31,0,0,1,4.19-4.41A12.73,12.73,0,0,1,64.89,129.62Z" style="fill:#371880"/><path d="M92.35,129.62q5.87,0,9,3t3.11,8.68v17.71h-3.93v-3.85a12.51,12.51,0,0,1-9.93,4.55,12,12,0,0,1-8-2.61,8.9,8.9,0,0,1,.28-13.72,13.7,13.7,0,0,1,8.81-2.64,19.55,19.55,0,0,1,8.89,2.19v-2.5a6.65,6.65,0,0,0-2.21-5.22,8.64,8.64,0,0,0-6-2,13.67,13.67,0,0,0-9,3.23H83l-1.79-2.59v-.33a16.55,16.55,0,0,1,5.13-2.89A17.59,17.59,0,0,1,92.35,129.62Zm-1.43,26.46a11.21,11.21,0,0,0,6.67-2.1,6.48,6.48,0,0,0,2.92-5.5v-1.77a19.27,19.27,0,0,0-8.84-2.36A9.59,9.59,0,0,0,85.78,146a5.36,5.36,0,0,0-2.21,4.46,4.79,4.79,0,0,0,2,4A8.37,8.37,0,0,0,90.92,156.08Z" style="fill:#371880"/><path d="M123.85,129.62a11.44,11.44,0,0,1,8.61,3.31,12,12,0,0,1,3.17,8.59v17.54h-4.07V141.94a9,9,0,0,0-2.24-6.34,8,8,0,0,0-6.09-2.36,8.63,8.63,0,0,0-6.34,2.39,8.35,8.35,0,0,0-2.47,6.31v17.12h-4.07V130.32h3.84v3.79Q117.48,129.63,123.85,129.62Z" style="fill:#371880"/><path d="M160.48,130.32h3.87l.23.34-13.64,30.87a15.33,15.33,0,0,1-3.28,5.3,6.64,6.64,0,0,1-4.52,1.43,7.44,7.44,0,0,1-4.26-1.15l-.12-.36,1.21-2.64.36-.11a4.68,4.68,0,0,0,2.75.87,3.38,3.38,0,0,0,2.28-.71,9,9,0,0,0,1.79-3l1.63-3.62-11.56-26.91.22-.34h4.1l9.4,22.42Z" style="fill:#371880"/></g><g style="opacity:0.7000000000000001"><path d="M9.47,184.47v.92H1.86v5.22h6v.93h-6v5.37H9.47v.93H.81V184.47Z" style="fill:#3b2f7c"/><path d="M14.18,197.84h-1V183.93l.93-.13.08.06Z" style="fill:#3b2f7c"/><path d="M30.2,187.3a4.88,4.88,0,0,1,3.72,1.56,5.77,5.77,0,0,1,0,7.67,4.88,4.88,0,0,1-3.72,1.56A4.74,4.74,0,0,1,26,195.9v5H25V187.55h1v2a5,5,0,0,1,1.81-1.63A5,5,0,0,1,30.2,187.3Zm-.08,9.85a3.92,3.92,0,0,0,3-1.28,4.86,4.86,0,0,0,0-6.35,3.92,3.92,0,0,0-3-1.29,4.09,4.09,0,0,0-3,1.21,5,5,0,0,0,0,6.49A4,4,0,0,0,30.12,197.15Z" style="fill:#3b2f7c"/><path d="M49.17,192.69a5.2,5.2,0,0,1-1.56,3.84,5.64,5.64,0,0,1-7.79,0,5.4,5.4,0,0,1,3.89-9.23,5.29,5.29,0,0,1,3.9,1.56A5.2,5.2,0,0,1,49.17,192.69Zm-8.62,3.19a4.57,4.57,0,0,0,6.32,0,4.71,4.71,0,0,0,0-6.37,4.54,4.54,0,0,0-6.32,0,4.66,4.66,0,0,0,0,6.37Z" style="fill:#3b2f7c"/><path d="M61.36,183.93l.92-.13.1.06v14h-1V195.9a5.12,5.12,0,0,1-1.79,1.61,4.94,4.94,0,0,1-2.39.58,4.84,4.84,0,0,1-3.71-1.56,5.81,5.81,0,0,1,0-7.68,5.2,5.2,0,0,1,7.89.57Zm-4.1,13.22a4,4,0,0,0,3-1.22,5,5,0,0,0,0-6.49,4,4,0,0,0-3-1.21,3.91,3.91,0,0,0-3,1.29,4.85,4.85,0,0,0,0,6.35A3.87,3.87,0,0,0,57.26,197.15Z" style="fill:#3b2f7c"/><path d="M76.11,193h-9a4.25,4.25,0,0,0,1.34,3,4.12,4.12,0,0,0,2.92,1.13,5.22,5.22,0,0,0,2.13-.48,4,4,0,0,0,1.65-1.3h.11l.61.51V196a4.74,4.74,0,0,1-1.94,1.54,6.1,6.1,0,0,1-2.54.56,5.25,5.25,0,0,1-3.76-1.48,5.07,5.07,0,0,1-1.56-3.89,5.48,5.48,0,0,1,1.45-3.87,4.76,4.76,0,0,1,3.66-1.55,4.46,4.46,0,0,1,3.77,1.8,5.17,5.17,0,0,1,1.21,3.47A2.45,2.45,0,0,1,76.11,193Zm-4.94-4.8a3.87,3.87,0,0,0-2.79,1.06,4.13,4.13,0,0,0-1.26,2.79h8a4.29,4.29,0,0,0-.83-2.27A3.46,3.46,0,0,0,71.17,188.23Z" style="fill:#3b2f7c"/><path d="M84.92,187.59l0,.08-.36.79-.08,0a1.77,1.77,0,0,0-1-.25,2.39,2.39,0,0,0-2,1,4.19,4.19,0,0,0-.8,2.64v5.91h-1V187.55h1v1.75a3.12,3.12,0,0,1,2.94-2A2.79,2.79,0,0,1,84.92,187.59Z" style="fill:#3b2f7c"/><path d="M102,183.93l.93-.13.1.06v14h-1V195.9a5,5,0,0,1-1.79,1.61,4.94,4.94,0,0,1-2.39.58,4.82,4.82,0,0,1-3.7-1.56,5.78,5.78,0,0,1,0-7.68,5.19,5.19,0,0,1,7.88.57Zm-4.1,13.22a4,4,0,0,0,3-1.22,5,5,0,0,0,0-6.49,4,4,0,0,0-3-1.21,3.92,3.92,0,0,0-3,1.29,4.85,4.85,0,0,0,0,6.35A3.89,3.89,0,0,0,97.9,197.15Z" style="fill:#3b2f7c"/><path d="M116.75,193h-9a4.29,4.29,0,0,0,1.34,3,4.14,4.14,0,0,0,2.92,1.13,5.22,5.22,0,0,0,2.13-.48,4,4,0,0,0,1.65-1.3h.11l.61.51V196a4.68,4.68,0,0,1-1.94,1.54,6.06,6.06,0,0,1-2.54.56,5.25,5.25,0,0,1-3.76-1.48,5.1,5.1,0,0,1-1.55-3.89,5.47,5.47,0,0,1,1.44-3.87,4.76,4.76,0,0,1,3.66-1.55,4.46,4.46,0,0,1,3.77,1.8,5.17,5.17,0,0,1,1.21,3.47A2.45,2.45,0,0,1,116.75,193Zm-4.94-4.8a3.89,3.89,0,0,0-2.79,1.06,4.18,4.18,0,0,0-1.26,2.79h8a4.29,4.29,0,0,0-.83-2.27A3.46,3.46,0,0,0,111.81,188.23Z" style="fill:#3b2f7c"/><path d="M131.37,196.66l.1,0,.35.67,0,.1a3,3,0,0,1-1.85.64,2.73,2.73,0,0,1-2.09-.8,3.19,3.19,0,0,1-.75-2.27v-6.58h-1.81v-.89h1.81v-3.2l.92-.13.08.06v3.27h3.34v.89h-3.34V195c0,1.44.64,2.15,1.9,2.15A1.86,1.86,0,0,0,131.37,196.66Z" style="fill:#3b2f7c"/><path d="M142,193.74v-6.19h1v10.29h-1v-1.65a4,4,0,0,1-3.6,1.9,3.83,3.83,0,0,1-2.88-1.16,4.13,4.13,0,0,1-1.12-3v-6.36h1v6.36a3.18,3.18,0,0,0,.88,2.35,3,3,0,0,0,2.23.89,3.31,3.31,0,0,0,2.48-1A3.39,3.39,0,0,0,142,193.74Z" style="fill:#3b2f7c"/><path d="M158.49,187.3a4.08,4.08,0,0,1,3,1.16,4.12,4.12,0,0,1,1.14,3v6.36h-1v-6.28a3.32,3.32,0,0,0-.9-2.43,3.2,3.2,0,0,0-2.39-.9,3.47,3.47,0,0,0-2.52,1,3.29,3.29,0,0,0-1,2.46v6.19h-1V183.93l.91-.13.1.06v5.3A4,4,0,0,1,158.49,187.3Z" style="fill:#3b2f7c"/><path d="M174.37,193.74v-6.19h1v10.29h-1v-1.65a4,4,0,0,1-3.59,1.9,3.86,3.86,0,0,1-2.89-1.16,4.13,4.13,0,0,1-1.12-3v-6.36h1v6.36a3.18,3.18,0,0,0,.88,2.35,3,3,0,0,0,2.23.89,3.31,3.31,0,0,0,2.48-1A3.39,3.39,0,0,0,174.37,193.74Z" style="fill:#3b2f7c"/><path d="M189.14,193h-9a4.29,4.29,0,0,0,1.34,3,4.14,4.14,0,0,0,2.92,1.13,5.22,5.22,0,0,0,2.13-.48,4,4,0,0,0,1.65-1.3h.11l.61.51V196a4.68,4.68,0,0,1-1.94,1.54,6.06,6.06,0,0,1-2.54.56,5.25,5.25,0,0,1-3.76-1.48,5.1,5.1,0,0,1-1.55-3.89,5.47,5.47,0,0,1,1.44-3.87,4.76,4.76,0,0,1,3.66-1.55,4.46,4.46,0,0,1,3.77,1.8,5.17,5.17,0,0,1,1.21,3.47A2.45,2.45,0,0,1,189.14,193Zm-4.94-4.8a3.89,3.89,0,0,0-2.79,1.06,4.18,4.18,0,0,0-1.26,2.79h8a4.29,4.29,0,0,0-.83-2.27A3.46,3.46,0,0,0,184.2,188.23Z" style="fill:#3b2f7c"/><path d="M193.8,197.84h-1V183.93l.93-.13.08.06Z" style="fill:#3b2f7c"/><path d="M199.39,197.84h-1V183.93l.93-.13.08.06Z" style="fill:#3b2f7c"/><path d="M207.53,187.3a4.2,4.2,0,0,1,3.06,1.06,3.91,3.91,0,0,1,1.1,2.94v6.54h-1v-1.59a4,4,0,0,1-1.61,1.35,4.89,4.89,0,0,1-2.17.49,4.32,4.32,0,0,1-2.86-.91,3.11,3.11,0,0,1,.08-4.8,4.88,4.88,0,0,1,3.09-.92,7.21,7.21,0,0,1,3.47.9v-1.23a2.7,2.7,0,0,0-.86-2.1,3.26,3.26,0,0,0-2.31-.8,5,5,0,0,0-3.44,1.36H204l-.45-.64v-.08a5.3,5.3,0,0,1,1.81-1.15A6,6,0,0,1,207.53,187.3Zm-.55,9.85a4.26,4.26,0,0,0,2.62-.82,2.57,2.57,0,0,0,1.1-2.2v-.82a6.91,6.91,0,0,0-3.45-.95,3.76,3.76,0,0,0-2.34.68,2.13,2.13,0,0,0-.9,1.79,2,2,0,0,0,.83,1.67A3.33,3.33,0,0,0,207,197.15Z" style="fill:#3b2f7c"/></g></svg>