<svg xmlns="http://www.w3.org/2000/svg" xmlns:xlink="http://www.w3.org/1999/xlink" viewBox="0 0 393.96 480.58"><defs><clipPath id="a" transform="translate(0.81)"><path d="M124.18,247.41,141.64,242s39.91,71,39.87,113c0,15.62-22.41,79.73-24.64,80.63s-7.57,1-9.47-5.67c-1.39-4.87-2.47-46.61,5.6-60.28,3.34-5.67-26.83-48.87-26-73.23C128.19,262.22,124.18,247.41,124.18,247.41Z" style="fill:none"/></clipPath><linearGradient id="b" x1="-538.31" y1="220.63" x2="-372.58" y2="245.4" gradientTransform="matrix(-1, -0.02, -0.02, 1, -365.11, -64.13)" gradientUnits="userSpaceOnUse"><stop offset="0.13" stop-color="#38237e"/><stop offset="1" stop-color="#85239d"/></linearGradient><clipPath id="c" transform="translate(0.81)"><path d="M157.83,164.08s-1.15-21.17-24.36-14.45c-23,6.66-25.85,9-40.63-11C82,124,45.67,117.54,33.19,151.69c-8.72,23.92-14.45,23.48-22.93,28.77-16.17,10.1-11.07,31.84.47,42.86,20.48,19.55,41.79,11.46,47.81,10,27.82-6.92,24.41-26,64.2-11.31,42.71,15.74,41.45-6.91,24.1-21.64-8.05-6.82-10.6-27.16-6-25.16,7.74,3.38,10.18-7.95,13.17-6.48C156.75,170.07,158,167.39,157.83,164.08Z" style="fill:none"/></clipPath><clipPath id="d" transform="translate(0.81)"><path d="M161.8,233.93c-2.47,9,9.65,31.84,11.45,41.05,2.65,13.56,10.79,42.77,8.27,45.78-10.09,12.07-34.61,5.72-56.68-12.78-17.34-14.56-71.47-3.69-72.15-20.82-1-25.92,63.41-29.41,58.61-63.51-9.62-3.77-19.43-11.45-25.13-28-14.38-41.77,19-64.3,27.43-68.43a2.75,2.75,0,0,1,1.6-.11c2.09,1.54,4,5.57,4,5.57-4.33,9.38-18.79,24.29-8.92,45.76,5.23,11.36,14.47,15.73,24.86,16.12h0l.56,0v.07c2,.34,9.31,1.41,14.41.49" style="fill:none;clip-rule:evenodd"/></clipPath><linearGradient id="e" x1="-499.03" y1="236.96" x2="-474.18" y2="183.22" gradientTransform="matrix(-1, 0.01, 0.01, 1, -189.08, -54.57)" gradientUnits="userSpaceOnUse"><stop offset="0.11" stop-color="#8724a1"/><stop offset="0.14" stop-color="#7e249d"/><stop offset="0.26" stop-color="#652492"/><stop offset="0.38" stop-color="#512389"/><stop offset="0.52" stop-color="#432383"/><stop offset="0.7" stop-color="#3a237f"/><stop offset="1" stop-color="#38237e"/></linearGradient><clipPath id="f" transform="translate(0.81)"><path d="M281.93,187.18l14,11L288,228.31s-16.4-2.74,17.41,45.32c12.82,18.23-4.26,21.24-12.19,19.37-14.45-3.38-15-1.92-39.7,5.14-24.21,4.61-28.29-6.56-38.52-6.18-15.12.55,2.67-65.48,14.46-84.06,21.44-33.81,37.68-26.75,37.68-26.75h0Z" style="fill:none"/></clipPath></defs><title>footer-bg2</title><path d="M295.71,49.24h0a30.63,30.63,0,0,0-1.18-11C287.6,15.05,291.46-1.15,265.33.06c-15.15.71-31.2,16.14-31.61,39,0,1.22,0,2.44.07,3.65h0l0,.12c1.25,20.43,15.27,36.44,30.85,37C280.81,80.47,294.55,65.64,295.71,49.24Z" transform="translate(0.81)" style="fill:#f8f8f9;fill-rule:evenodd;opacity:0.2"/><path d="M283,43.46c2,12.51-7,27.37-15.55,28.7S245.73,62,243.74,49.54,249.36,27.1,260,25.46,281,31,283,43.46Z" transform="translate(0.81)" style="fill:#f7f7f7;opacity:0.5"/><g style="opacity:0.7000000000000001"><path d="M269.71,49.3c.69,4.33-1.76,8-4.41,8.45s-6.47-2.34-7.16-6.65,1.41-7.24,4.7-7.75S269,45,269.71,49.3Z" transform="translate(0.81)" style="fill:#f7f7f7;opacity:0.4"/></g><path d="M265.17,40.61c.17-16.25-2.7-29-7.63-38.89C245.14,6.31,234.06,20.11,233.72,39c0,1.22,0,2.44.07,3.65h0l0,.12c1.25,20.43,15.27,36.44,30.85,37a25.89,25.89,0,0,0,11.27-2.13A64.4,64.4,0,0,1,265.17,40.61Z" transform="translate(0.81)" style="fill:#f7f7f7;fill-rule:evenodd;opacity:0.12"/><g style="opacity:0.5"><g style="opacity:0.2"><path d="M200.4,86.76c-.63,16.36-15.62,33-26.77,32.59s-24.81-18.2-24.18-34.57S162.17,57.68,176,58.21,201,70.38,200.4,86.76Z" transform="translate(0.81)" style="fill:#f8f8f9"/></g><g style="opacity:0.2"><path d="M229.67,69.74c-.5,12.94-12.35,26.11-21.17,25.77s-19.61-14.39-19.11-27.33,10.06-21.43,21-21S230.18,56.8,229.67,69.74Z" transform="translate(0.81)" style="fill:#f8f8f9"/></g><path d="M153.48,113.18c-.28,7.27-6.76,15-11.7,14.85s-10.81-8.45-10.53-15.71,5.45-11.65,11.58-11.41S153.76,105.92,153.48,113.18Z" transform="translate(0.81)" style="fill:#f7f7f7"/></g><path d="M116.75,132.4a3,3,0,0,0,1.17-.88,22.32,22.32,0,0,1,7.92-4.59c2.47-.51,8.38,1.92,8.93,1.59s.85-1.56-3.77-3.24c0,0,9.54-6.9,9.07-8.22s-7.5,4-7.5,4,5.93-7.67,5.42-9.21-6.37,6.38-6.37,6.38,5.32-7.36,4.28-8.12-5.54,5.73-5.54,5.73,4.06-5.87,2.78-6.36-4.76,6-4.76,6-2.45,3.52-4.95,6.41c-2.34,2.23-7.27,5.86-9.44,7.79a1,1,0,0,0-.3.38c-.14.37.49,1.14.79,1.4C115.12,132,115.93,132.65,116.75,132.4Z" transform="translate(0.81)" style="fill:#eeaa81"/><path d="M308.26,402.62c4.38,3.32,1.62,13.13-4.44,10.9,0,0-64.29-25.37-69.35-47.16-2.85-12.19-26.22-88-12.74-82.11l36,6.05s5.33,70.92,6.67,76.29c.49,2,8.77,4,15,10.65C290.33,388.91,305.88,400.82,308.26,402.62Z" transform="translate(0.81)" style="fill:#38237e;opacity:0.7000000000000001"/><path d="M308.26,402.62c4.38,3.32,1.62,13.13-4.44,10.9,0,0-64.29-25.37-69.35-47.16-2.85-12.19-26.22-88-12.74-82.11l36,6.05s5.33,70.92,6.67,76.29c.49,2,8.77,4,15,10.65C290.33,388.91,305.88,400.82,308.26,402.62Z" transform="translate(0.81)" style="fill:#38237e;opacity:0.7000000000000001"/><path d="M124.18,247.41,141.64,242s39.91,71,39.87,113c0,15.62-23.81,78.36-24.64,80.63-.78,2.07-8.46,1.17-9.47-5.67-.43-2.93.18-9.11.72-20.33.7-14.49-2.12-27,4.88-39.95,3.13-5.8-26.83-48.87-26-73.23C128.19,262.22,124.18,247.41,124.18,247.41Z" transform="translate(0.81)" style="fill:#b93b88"/><g style="clip-path:url(#a)"><path d="M150.8,371.43s-2.83.13-10.12.35c-11.1-17.5-13.86-43,.69-55.43,12.24-10.47-7-17.25,6.78-8.27,9.3,2.71,22.26,27.78,22.53,37.18C171.22,364.77,161.26,371.06,150.8,371.43Z" transform="translate(0.81)" style="fill:#38237e;fill-rule:evenodd;opacity:0.4"/></g><path d="M10.26,180.46c8.48-5.3,14.21-4.85,22.93-28.77C45.67,117.54,82,124,92.84,138.63c14.78,20,17.63,17.65,40.63,11,8.74-2.53,14.34-1.11,17.94,1.64h0a.81.81,0,0,1,.09.1c1.77,1.39,5.25,6.36,5.89,7.13,2.28,2.76,4.64,5.76,5,9.32.2,2.5-.29,5-.26,7.51.12,7.81,5.77,13.61,7.12,18.48s-3.79,14.32-13.69,9.76a20.63,20.63,0,0,0-7.15-1.85c15.84,14.71,15.77,35.52-25.64,20.26-39.79-14.65-36.38,4.39-64.2,11.31-6,1.5-27.33,9.59-47.81-10C-.81,212.3-5.91,190.56,10.26,180.46Z" transform="translate(0.81)" style="fill:url(#b)"/><path d="M154.11,165.94s-1.08-20.15-23.17-13.75c-21.89,6.33-24.6,8.57-38.68-10.47C82,127.79,47.37,121.65,35.51,154.14c-8.31,22.77-13.75,22.35-21.83,27.39-15.39,9.6-10.54,30.29.46,40.79,19.48,18.6,39.76,10.9,45.5,9.47,26.46-6.58,23.22-24.7,61.09-10.76,40.65,15,39.44-6.57,22.91-20.6-7.64-6.49-10.07-25.84-5.71-23.94,7.37,3.21,9.68-7.57,12.54-6.16C153.1,171.64,154.24,169.09,154.11,165.94Z" transform="translate(0.81)" style="fill:#3d1e7f;opacity:0.29"/><g style="clip-path:url(#c)"><path d="M122.28,185.61s4,3.58,14.19,12.93c-7.8,36.62-40.34,62.4-76.29,58.77-30.27-3-54-26-61-55.49,9.1,3,25,4.52,25,4.52,11.8.43,25-2,36.94-14.16C85.94,167,107.62,172.27,122.28,185.61Z" transform="translate(0.81)" style="fill:#f7f7f7;fill-rule:evenodd;opacity:0.05"/></g><path d="M272.86,172.31c-.21-.88-4.31-1.11-4.79-2.38C267,167.1,270.23,147.5,281.58,140c5.15-3.39,2.61-3.59,14.74,1.71,11.19,4.89,6.75,21.08,5.66,21.89a28.89,28.89,0,0,1,2.14,5c.74,2.5-7.05,2.7-10.09,1.15-4,3-8.92,6.7-8.92,6.7l-5,16.38-17.82-5.24S273.72,175.79,272.86,172.31Z" transform="translate(0.81)" style="fill:#fbc2b0"/><path d="M345.24,328.6c4.05-1.89,10.4,5,5.64,10.84,0,0-45,33.75-66.79,28.62-12.2-2.88-33.19-53.66-42.76-84,0,0,29-28.75,41-14.38s15.32,75.7,15.29,71.69c0-1,8.1-5.47,16.09-6.35C328.67,333.38,342.69,329.78,345.24,328.6Z" transform="translate(0.81)" style="fill:#38237e"/><path d="M210.67,111.59a3.09,3.09,0,0,0,0-1.54,23.21,23.21,0,0,1,1.25-9.53c1.14-2.38,6.95-5.76,7-6.42s-.76-1.7-5.11,1.08c0,0,.34-12.37-1-12.82s-1.46,8.82-1.46,8.82-2.59-9.85-4.2-10.41,1.24,9.38,1.24,9.38-2.73-9.13-4-8.75,1.23,8.28,1.23,8.28-2.29-7.14-3.52-6.39S204,91.08,204,91.08s1.37,4.3,2.17,8.23a32.44,32.44,0,0,1,.26,4.84c.23,3,.51,5,.74,8a1,1,0,0,0,.12.49c.22.35.72.32,1.14.25C209.32,112.71,210.35,112.43,210.67,111.59Z" transform="translate(0.81)" style="fill:#fbc2b0"/><path d="M243.87,201.8c-43.5-12.35-38.71-82.84-38.05-93a1.52,1.52,0,0,1,1.15-1.46l3.95-.93s1.24-.3,1.52.82c17.41,68.24,55.37,71.19,55.62,75.55C258.57,194.53,277.72,175.44,243.87,201.8Z" transform="translate(0.81)" style="fill:#ee603d;fill-rule:evenodd"/><path d="M281.93,187.18l14,11L288,228.31s-16.4-2.74,17.41,45.32c12.82,18.23-4.26,21.24-12.19,19.37-14.45-3.38-15-1.92-39.7,5.14-24.21,4.61-28.29-6.56-38.52-6.18-15.12.55,3.11-65.21,14.46-84.06,18.23-30.28,37.68-26.75,37.68-26.75h0Z" transform="translate(0.81)" style="fill:#f9693f"/><path d="M365.39,247.29a3.07,3.07,0,0,1,1.43.34,22.39,22.39,0,0,0,9.1.94c2.45-.53,6.86-5.17,7.5-5.1s1.4,1.08-2.13,4.5c0,0,11.54,2.41,11.65,3.8s-8.5-.6-8.5-.6,8.55,4.58,8.71,6.19-8.42-3.22-8.42-3.22,7.86,4.54,7.23,5.66-7.4-3-7.4-3,6.11,3.7,5.14,4.67-6.79-3.52-6.79-3.52-3.67-2.22-7.14-3.82a33.29,33.29,0,0,0-4.44-1.32c-2.75-.87-4.47-1.56-7.22-2.44a.88.88,0,0,1-.44-.22c-.27-.28-.13-.74,0-1.1C364.05,248.3,364.53,247.4,365.39,247.29Z" transform="translate(0.81)" style="fill:#fbc2b0"/><path d="M311.9,419.08c-1,.06-4.44.78-2.85,6.11s4.63,11.07,4.33,14.52c-.33,4,2.81,5.45,3.71,2.07,1.27-4.77,6.37-24.6,6.37-24.6s1.23-4.84-2.47-6.14a3.39,3.39,0,0,0-4.63,3.16C316.13,417,314.41,418.92,311.9,419.08Z" transform="translate(0.81)" style="fill:#38237e;opacity:0.9"/><path d="M359.43,331.62c-.46.91-1.58,4.21,3.8,5.57s11.88,1.67,14.7,3.68c3.28,2.33,6.12.38,3.67-2.13-3.46-3.52-17.89-18-17.89-18s-3.53-3.53-6.54-1a3.39,3.39,0,0,0,.35,5.6C359.8,326.91,360.58,329.38,359.43,331.62Z" transform="translate(0.81)" style="fill:#38237e;opacity:0.9"/><path d="M283.87,224.8c21.36,21.7,79.18,28.2,87.26,28.94.8.07,1-.82,1-.82s.46-4,.48-4.62a1.31,1.31,0,0,0-.8-1.18c-52.65-20.23-71.79-49.74-81.39-52.19C280,205.83,305.81,187.93,283.87,224.8Z" transform="translate(0.81)" style="fill:#f9693f;fill-rule:evenodd"/><path d="M230,239.86a3.06,3.06,0,0,1,1.45-.24,22.13,22.13,0,0,0,8.76-2.66c2.06-1.43,4.33-7.42,4.93-7.59s1.73.44-.21,5c0,0,11.57-2.24,12.22-1s-8.07,2.73-8.07,2.73,9.65.91,10.42,2.34-9,.28-9,.28,9,1.15,8.84,2.43-8,.13-8,.13,7.06,1,6.55,2.31-7.62-.61-7.62-.61-4.25-.62-8.07-.76a31.07,31.07,0,0,0-4.6.5c-2.88.26-4.73.29-7.61.55a1,1,0,0,1-.49,0c-.36-.16-.4-.64-.4-1C229.17,241.3,229.26,240.29,230,239.86Z" transform="translate(0.81)" style="fill:#eeaa81"/><path d="M151.05,234.32c24.87,17.27,74.07,10.29,81.39,9.2a1.11,1.11,0,0,0,.94-.91l.06-2.91s.07-.76-1-.94c-55.59-8.8-72.89-43-82.76-43.62C152.47,199.06,156.77,208.13,151.05,234.32Z" transform="translate(0.81)" style="fill:#f29926;fill-rule:evenodd"/><path d="M126.49,199.3a15.18,15.18,0,0,0,6.65-2c3.24-1.93,5.22-14.9,4.54-18a25.25,25.25,0,0,0,10.5,5s-.39,9.68,2,11.53.93,6.48,3,5.91c-3,8-5.43,8.58-14.11,7.56S126.27,201.73,126.49,199.3Z" transform="translate(0.81)" style="fill:#eeaa81"/><path d="M155.13,443c.78-.66,3.73-2.52,6.29,2.4s4.36,11.18,7,13.46c3,2.64,1.78,5.85-1.22,4.06-4.22-2.55-21.68-13.26-21.68-13.26s-4.25-2.6-2.51-6.12a3.39,3.39,0,0,1,5.52-1C150.63,444.44,153.22,444.63,155.13,443Z" transform="translate(0.81)" style="fill:#b93b88"/><path d="M53.66,376.4c.92.45,3.83,2.38.39,6.73s-8.39,8.59-9.4,11.9c-1.16,3.85-4.61,4-4.2.56.59-4.91,3.17-25.22,3.17-25.22s.63-4.95,4.54-4.8a3.4,3.4,0,0,1,3.15,4.65C50.49,372.9,51.38,375.34,53.66,376.4Z" transform="translate(0.81)" style="fill:#b93b88"/><path d="M121.38,463.34c14-.5,30.17,3.56,30.31,7.52S136,480,122,480.54s-22.29-2.92-22.45-7.81S107.4,463.86,121.38,463.34Z" transform="translate(0.81)" style="fill:#fff;opacity:0.2"/><path d="M369.4,438.75c-8.57,11-22.09,20.85-25.21,18.43s3.06-17.95,11.64-29S372.37,413,376.23,416,378,427.7,369.4,438.75Z" transform="translate(0.81)" style="fill:#fff;opacity:0.2"/><path d="M145.4,300.42c8.2,24.76,14.76,49.08,12.27,57.57s-2.87,11.15-41.36,17.83c-19.29,3.36-53.29,0-55.54-.61s-5.9-7.77,0-8.58c25-3.43,47.88-26.11,63-15.9,0,0-7.59-9.52-19.25-30.15-4.69-8.29-8.66-16.23-10-25.16C92.63,282.17,134.77,268.3,145.4,300.42Z" transform="translate(0.81)" style="fill:#b93b88"/><path d="M111.3,223.65c-9.62-3.77-19.43-11.45-25.13-28-14.73-42.8,20.68-65.34,28-68.7a.79.79,0,0,1,.77,0c1.76,1.11,3.35,4.24,4,5.31a.91.91,0,0,1,0,.92c-4.58,9.4-18.38,24.17-8.68,45.27,5.23,11.36,14.47,15.73,24.86,16.12h0a4,4,0,0,1,.56.1c2,.34,8.85,1.5,13.93.49,0,0,22.75,14,13.94,45.26.43,3.14,4.83,25.21,6.38,34.45,3.15,18.69,21.75,19.94,18.82,25.25-7.58,13.77-47.82,28.54-81.73,7.31-19.18-12-52.68-5.85-54.38-20.25C49.67,261.4,116.1,257.75,111.3,223.65Z" transform="translate(0.81)" style="fill:#f1a22a;fill-rule:evenodd"/><g style="clip-path:url(#d)"><path d="M111.3,223.65s-22,5-29.57-6.3c-36.9,2.29-59,45.11-61.08,80.73C18.93,328.05,51.94,339.32,72,327c-1.48-9.31-.52-25.1-.52-25.1,1.39-11.58,5.83-24.09,19.51-34C119.29,247.45,114.07,228,111.3,223.65Z" transform="translate(0.81)" style="fill:#ee7335;fill-rule:evenodd;opacity:0.2"/></g><path d="M145.32,185.33c1,.28,1.65-.11,2.35.68s.55,2.83.54,4a3,3,0,0,1-.17,1.15c-.34.7-.49.88-1.24.72a3.48,3.48,0,0,1-1.88-1.25c-.49-.6-.3-1.81-.8-2.4-.81-1-3.24-2.22-4.1-3.13a4.93,4.93,0,0,1-1.39-2.47c-.13-.89.87-.58,1.8-.1.75.4,1.41,1.25,2.2,1.71A13,13,0,0,0,145.32,185.33Z" transform="translate(0.81)" style="fill:#d59370"/><path d="M133.84,179.16c-3.84-7.73-2.1-8.27-1.34-8.48,1.3-.35,3.19,2.25,4.62.09.7-1.07,1.52-7.4,4.29-5.48,1,.65,9.12,4.06,14.5.57.7-.45.64.32.69.68.22,1.69.44,3.83.58,6.5.46,8.15-1.79,12.79-3.19,14.22S138.63,187.66,133.84,179.16Z" transform="translate(0.81)" style="fill:#eeaa81"/><path d="M146.87,171.55a1.08,1.08,0,0,1-2.16,0,1.08,1.08,0,1,1,2.16,0Z" transform="translate(0.81)" style="opacity:0.21"/><path d="M155.19,171.16a1.08,1.08,0,1,1-1.1-1A1.09,1.09,0,0,1,155.19,171.16Z" transform="translate(0.81)" style="opacity:0.21"/><path d="M146.93,177.35c.66,1.62.07,3.29-.93,3.7s-2.73-.33-3.39-1.93-.14-3,1.11-3.45S146.27,175.73,146.93,177.35Z" transform="translate(0.81)" style="fill:#ee4c63;opacity:0.21"/><path d="M284,154.06a1.07,1.07,0,0,0,.37,1.46,1,1,0,0,0,1.47-.34,1.08,1.08,0,0,0-.35-1.48A1.1,1.1,0,0,0,284,154.06Z" transform="translate(0.81)" style="opacity:0.21"/><path d="M277,149.51a1.06,1.06,0,0,0,.36,1.46,1.07,1.07,0,0,0,1.48-.34,1.08,1.08,0,0,0-1.84-1.12Z" transform="translate(0.81)" style="opacity:0.21"/><path d="M153.53,181.08a.78.78,0,0,0-.48,0,14.45,14.45,0,0,1-1.9.11c-.62,0-1.22,0-1.93-.07a.76.76,0,0,0-.74,1.06,3,3,0,0,0,2.7,2.28h.24a2.86,2.86,0,0,0,2.64-2.44A.76.76,0,0,0,153.53,181.08Z" transform="translate(0.81)" style="fill:#f7f7f7"/><path d="M130.51,261.61a3.56,3.56,0,0,0-6.15.79,37.31,37.31,0,0,1-3.19,5.48,9.7,9.7,0,0,1-7.28,4C98.56,273,97.81,284.15,98,287.51c0,0,.92,10.95,12.9,11.41,8.39.32,16.11-3.28,20.67-9.9C137.12,280.89,136.7,269.88,130.51,261.61Z" transform="translate(0.81)" style="fill:#ee7335;opacity:0.2"/><path d="M265.88,300.05a1.59,1.59,0,0,1,1-1.24,1.55,1.55,0,0,1,1.56.27,17.63,17.63,0,0,0,2.38,1.45,4.24,4.24,0,0,0,3.65,0c6.19-2.74,8.79,1.41,9.44,2.75a5.64,5.64,0,0,1-2.63,7.11,10.12,10.12,0,0,1-15.39-10.37Z" transform="translate(0.81)" style="fill:#f7f7f7;opacity:0.1"/><path d="M293.71,146.2c-3.18.53-6.47,1.08-9.1.46-5.6-1.31-8.92-4.58-9.09-9-.15-3.81.46-9.72,3.7-12.76,2.92-2.74,8-6.17,12.6-3.12,2.07,1.38.88,5.88,3.94,4.32,8.42-3.67,11,1.35,11.53,3.6,2.53,9.89,11.42,7.74,13.47,14,1.62,4.94-6.55,8.63-4.82,12.44a11.61,11.61,0,0,1,1.13,5.3,5.81,5.81,0,0,1-.77,2.84c-.74,1.2-1.95,1.66-2.84,2.69-1,1.23-1.47,3-2.08,4.5-1.28,3-2.5,5.48-5.81,6.69-2.2.81-4.43.44-6.69.24-2.91-.26-5.63.49-8.49.37a10,10,0,0,1-4.26-1.2,2.36,2.36,0,0,1-1.05-.69l-.09,0v0a2,2,0,0,1-.35-1.64c.46-2.29,3.49-4.61,5.56-5.41a6.53,6.53,0,0,1,3.44-.44,8.84,8.84,0,0,1,2.6,1.06c3.44.49,7.88-.46,7.5-2.52-.25-1.38-1.72-2.53-2.95-1.88a5.5,5.5,0,0,0-1.95,2.6c-.2.52-1,.43-1.51.47a3.46,3.46,0,0,1-1.92-.68s-5-3.2,2.29-8.62c1.18-.87,2.72-2.78,2.25-4s-1.4-.44-2.89-1.91c-1.66-1.63-2.63-3.49-1.2-5.84.42-.68,1.34-1.31,1-2.32S294.83,146,293.71,146.2Z" transform="translate(0.81)" style="fill:url(#e)"/><path d="M276.57,173.06c-.84-.2-1.12-.73-1.94-.45s-1.52,1.76-2,2.56c-.15.28-2.34,3.45-2.36,3.76-.05.63,0,.81.58,1a2.85,2.85,0,0,0,1.82-.13c.59-.22,3-4,3.56-4.25,1-.34,3.18-.26,4.16-.55a4,4,0,0,0,2-1.18c.46-.58-.39-.77-1.22-.8s-1.51.33-2.25.32A9.34,9.34,0,0,1,276.57,173.06Z" transform="translate(0.81)" style="fill:#faad9d"/><path d="M268.42,161.62c1.41-3.29,1.74-2.82,4.55-2,3.72,1.83,6.21,1.39,8.55,5.19,2.78,5.07-4.22,5-5.58,7.68-2.42,5.58-8.6-.4-8.57-4.72C267.31,165.59,267.42,164.86,268.42,161.62Z" transform="translate(0.81)" style="fill:#38237e"/><g style="clip-path:url(#f)"><path d="M288,228.31c-5-4.79-15.34-2.42-19.83,6.14a22,22,0,0,0,5.25,26.27c4.87,4,22.38,13.92,26.37,18.83a15,15,0,0,1,3.11,11.74c-.15,1-2.54,3.83-2.35,4.78.25,1.11-2.23.57-1.41,1.37,5.6,5.48,1.19,6,9,6.6S324.31,301,327.87,294c3.44-6.78,1.85-15.1-1.38-22a52,52,0,0,0-12.55-16.81c-9.36-8.29-22.29-13.94-26.65-25.66" transform="translate(0.81)" style="fill:#ee603d;fill-rule:evenodd"/></g><path d="M293.71,146.2c-3.18.53-6.47,1.08-9.1.46-5.6-1.31-8.92-4.58-9.09-9-.15-3.81.82-9,4-12.08,1.76-1.71,7.86-7,12.3-3.8,1.74,1.27-1.09,4.82,2.09,6,3.5,1.12,5.63-3.44,7.77-3,5.33,1,.72,7.39,3.16,11.8,2.87,5.19,11.25,1.5,10.9,9.41-.19,4.28-1.53,6.34.2,10.15a11.61,11.61,0,0,1,1.13,5.3,5.81,5.81,0,0,1-.77,2.84c-.74,1.2-1.95,1.66-2.84,2.69-1,1.23-1.47,3-2.08,4.5-1.28,3-2.5,5.48-5.81,6.69-2.2.81-4.43.44-6.69.24-2.91-.26-5.63.49-8.49.37a10,10,0,0,1-4.26-1.2,2.36,2.36,0,0,1-1.05-.69l-.09,0v0a2,2,0,0,1-.35-1.64c.46-2.29,3.49-4.61,5.56-5.41a6.53,6.53,0,0,1,3.44-.44,8.84,8.84,0,0,1,2.6,1.06c3.44.49,8.1-.51,7.5-2.52-.42-1.42-1.55-2.51-2.95-1.88a5.5,5.5,0,0,0-1.95,2.6c-.2.52-1,.46-1.51.47a4.45,4.45,0,0,1-1.93-.63c-.09-.06-5-3.11,2.3-8.67,1.18-.89,2.72-2.78,2.25-4s-1.4-.44-2.89-1.91c-1.66-1.63-2.63-3.49-1.2-5.84.42-.68,1.34-1.31,1-2.32S294.83,146,293.71,146.2Z" transform="translate(0.81)" style="fill:#38237e;opacity:0.51"/><path d="M276.23,163.46a.82.82,0,0,0-.44-.16,13,13,0,0,1-1.8-.63c-.58-.21-1.11-.5-1.76-.8a.79.79,0,0,0-.73.06.76.76,0,0,0-.36.64,3,3,0,0,0,1.63,3.14l.23.1a2.86,2.86,0,0,0,3.36-1.26A.77.77,0,0,0,276.23,163.46Z" transform="translate(0.81)" style="fill:#fbc2b0"/></svg>