<svg xmlns="http://www.w3.org/2000/svg" viewBox="0 0 1752 738.98"><path d="M0,468S29.89,620.26,160,682.9C592.77,891.26,891.71,445.36,1273.12,535,1641.48,621.53,1752,420,1752,420V6c-316.83-59.86-494.24,356.78-876.9,136.13C380.31-143.23,0,142,0,142Z" style="fill:#e6e6e6;opacity:0.30000000000000004"/><path d="M463.23,54.94C292.54,66.06,354.31,453,149.81,331.82c-123.5-73.19,19.22,443.46,372.76,325C857,544.85,1095,548.23,1350.85,612.29c297.18,74.43,367.64-310.54,134.26-286.76-219.25,22.34-200.78-394.09-449.64-239.17C483.8,429.78,719.11,38.28,463.23,54.94Z" style="fill:#e6e6e6;opacity:0.30000000000000004"/><g style="opacity:0.2"><path d="M1249.15,330.77c19.32-49.48-9.29-74.84,12.87-105.38,17.25-23.75-87.41,10.09-111,38.66s-18,63.06,3.71,85.95C1176.2,372.63,1232.56,373.3,1249.15,330.77Z" style="fill:#fff"/></g><path d="M847.91,71.65c-63.68-3-59.2,132-129.9,78.57-42.69-32.25-40.86-6.53-80,17.37-30,18.31-59.54-3.68-62.84-26.79-2.92-20.48.82-68.93-27.09-56-82,37.85-116.12,406.64,126.68,335,158.35-46.75,353.9-75.43,474-18.83,152,71.62,240-42,115.19-46.15-82.09-2.72-20.2-132-118.83-85C926.48,374,943.38,76.14,847.91,71.65Z" style="fill:#fff;opacity:0.2"/></svg>