<svg xmlns="http://www.w3.org/2000/svg" xmlns:xlink="http://www.w3.org/1999/xlink" viewBox="0 0 431.88 356.63"><defs><linearGradient id="a" x1="65.55" y1="192.31" x2="341.3" y2="192.31" gradientUnits="userSpaceOnUse"><stop offset="0" stop-color="#fff"/><stop offset="0.03" stop-color="#fff" stop-opacity="0.93"/><stop offset="0.14" stop-color="#fff" stop-opacity="0.72"/><stop offset="0.26" stop-color="#fff" stop-opacity="0.53"/><stop offset="0.37" stop-color="#fff" stop-opacity="0.36"/><stop offset="0.49" stop-color="#fff" stop-opacity="0.23"/><stop offset="0.61" stop-color="#fff" stop-opacity="0.13"/><stop offset="0.73" stop-color="#fff" stop-opacity="0.06"/><stop offset="0.86" stop-color="#fff" stop-opacity="0.01"/><stop offset="1" stop-color="#fff" stop-opacity="0"/></linearGradient><linearGradient id="b" x1="191.53" y1="146.05" x2="175.6" y2="82.32" gradientUnits="userSpaceOnUse"><stop offset="0.25" stop-color="#0080b0"/><stop offset="0.41" stop-color="#097bac"/><stop offset="0.66" stop-color="#226ea1"/><stop offset="0.99" stop-color="#4b598f"/><stop offset="1" stop-color="#4d588e"/></linearGradient><clipPath id="c"><path d="M189.36,184.3a77.55,77.55,0,0,1-9.65,2.67c-8.11,2-11.85,2.92-11.85,2.92-17.88.27-17.75,38.2-15.68,64.94a49.92,49.92,0,0,1,16.61,6.31c4.68-11.27,9.59-33.79,15-54.13,1.67-4.7,9.18-9.14,11.68-14.39C196.86,189.3,190.18,187.35,189.36,184.3Z" style="fill:none"/></clipPath></defs><g style="isolation:isolate"><path d="M339.61,202.29h0a122.11,122.11,0,0,0-15.57-42.68C272.59,73.48,273.08,5,164.76,35.25,102,52.77,49.65,130,70,221.57q1.65,7.4,3.85,14.52v0l.18.5C99,317,173.18,367.37,239.07,354.68,307.34,341.54,350.56,269,339.61,202.29Z" style="fill-rule:evenodd;fill:url(#a)"/><path d="M353,273.19c-3.8-6.55-.34-10.76-4.13-14.57-2.95-3,12.55-.52,16.5,3a9,9,0,0,1,1.37,12.2C364.23,277.49,356.3,278.83,353,273.19Z" style="fill:#bfd3e1;opacity:0.9"/><path d="M369.9,269.36s-3.95,4.31-.17,14.27c2,5.4-2.77,1.46-4-4.45-1.39-6.56,1.91-9.43,2.76-11.64" style="fill:#bfd3e1;fill-rule:evenodd"/><path d="M382.68,268.7c2-10-4.22-13.86-1-20.37,2.48-5.06-16.22,4.79-19.73,11s-1.33,12.53,3.53,16.16S380.94,277.31,382.68,268.7Z" style="fill:#bfd3e1"/><g style="opacity:0.4"><path d="M350.18,255.06c-8.82-15.21-.79-25-9.59-33.81-6.84-6.89,29.11-1.19,38.27,7s9.12,19.7,3.19,28.3S357.79,268.14,350.18,255.06Z" style="fill:#f8f8f9;opacity:0.9"/><path d="M389.34,246.17s-9.16,10-.4,33.1c4.75,12.54-6.43,3.4-9.36-10.32-3.23-15.22,4.42-21.89,6.4-27" style="fill:#f8f8f9;fill-rule:evenodd"/><path d="M419,244.64c4.69-23.2-9.81-32.15-2.4-47.26,5.74-11.74-37.63,11.11-45.77,25.48s-3.09,29.06,8.2,37.47S415,264.6,419,244.64Z" style="fill:#f8f8f9"/></g><path d="M229.66,296.29l89.76,5.35c11.1.7,19.79-7.24,20.13-18.4l5.89-197.68a12.38,12.38,0,0,0-11.72-12.4l-85.37-1.59A18.39,18.39,0,0,0,229.27,89L214.61,279C214,287.58,221.08,295.75,229.66,296.29Z" style="fill:#d1cfcf;opacity:0.8"/><path d="M224,290.51l93.66,5.59a15.6,15.6,0,0,0,17-15.53l5.93-198.7a8.73,8.73,0,0,0-8.26-8.74l-89.1-1.65A15.55,15.55,0,0,0,227.12,86.2l-14.73,191A12.83,12.83,0,0,0,224,290.51Z" style="fill:#fff"/><polygon points="220.51 258.32 327.59 264.42 333.26 86.44 234.74 84.18 220.51 258.32" style="fill:#d1cfcf;opacity:0.61"/><path d="M267.88,276.83a6.43,6.43,0,0,0,3.79,7.4,4.8,4.8,0,0,0,6.5-3.48,6.4,6.4,0,0,0-3.79-7.39A4.8,4.8,0,0,0,267.88,276.83Z" style="fill:#d1cfcf;opacity:0.8"/><polygon points="226.64 84.14 346.23 87.07 347.97 95.56 223.41 92.8 226.64 84.14" style="fill:#eea897"/><path d="M297.1,107.77c-.29,5.56-6.37,10-13.58,9.79h0c-7.21-.15-12.83-4.78-12.54-10.34l.33-6.28,26.12.55Z" style="fill:#bfbdbd"/><path d="M245.22,100.39l-.33,6.28c-.29,5.56-6.37,10-13.58,9.8h0c-7.2-.16-12.8-4.78-12.52-10.35l.33-6.28Z" style="fill:#bfbdbd"/><polygon points="298.42 94.16 297.43 101.49 271.31 100.94 273.56 93.64 298.42 94.16" style="fill:#d7d7d7"/><polygon points="223.87 92.59 248.72 93.12 245.22 100.39 219.12 99.84 223.87 92.59" style="fill:#d7d7d7"/><path d="M349.78,103l-.33,6.28c-.29,5.56-6.36,9.94-13.57,9.79h0c-7.21-.15-12.81-4.78-12.52-10.34l.32-6.28Z" style="fill:#bfbdbd"/><polygon points="322.62 94.9 347.48 95.42 349.78 103.03 323.68 102.48 322.62 94.9" style="fill:#d7d7d7"/><path d="M323.2,108.31c-.29,5.57-6.38,10-13.58,9.8s-12.81-4.78-12.52-10.34l.33-6.28,26.1.54Z" style="fill:#eea897"/><path d="M271,107.22c-.29,5.56-6.36,10-13.56,9.8h0c-7.21-.16-12.82-4.79-12.53-10.35l.33-6.28,26.09.55Z" style="fill:#eea897"/><g style="opacity:0.9"><polygon points="323.28 94.69 323.52 102.03 297.43 101.49 298.42 94.16 323.28 94.69" style="fill:#f6c3b3"/><polygon points="273.56 93.64 271.31 100.94 245.22 100.39 248.72 93.12 273.56 93.64" style="fill:#f6c3b3"/></g><path d="M324.19,184.94a6.35,6.35,0,0,1-6.6,6.21L242,187a6.53,6.53,0,0,1-6-6.9l1.55-36a6.34,6.34,0,0,1,6.59-6.2l75.58,4.12a6.53,6.53,0,0,1,6,6.9Z" style="fill:#366e9f;opacity:0.09"/><path d="M320.63,214.06a6.36,6.36,0,0,1-6.6,6.21l-75.19-4.1a6.53,6.53,0,0,1-6-6.9l0-.88a6.35,6.35,0,0,1,6.59-6.21l75.2,4.1a6.53,6.53,0,0,1,6,6.9Z" style="fill:#366e9f;opacity:0.09"/><path d="M319.36,236.31a6.35,6.35,0,0,1-6.59,6.21l-75.2-4.1a6.54,6.54,0,0,1-6-6.9l0-.88a6.35,6.35,0,0,1,6.6-6.21l75.19,4.1a6.53,6.53,0,0,1,6,6.9Z" style="fill:#366e9f;opacity:0.09"/><path d="M323.58,182.17a6.38,6.38,0,0,1-6.6,6.22l-75.58-4.13a6.53,6.53,0,0,1-6-6.9l1.56-36a6.35,6.35,0,0,1,6.59-6.21l75.58,4.13a6.54,6.54,0,0,1,6,6.9Z" style="fill:#f7f7f7"/><path d="M320,211.29a6.36,6.36,0,0,1-6.6,6.21l-75.2-4.1a6.54,6.54,0,0,1-6-6.9l0-.89a6.35,6.35,0,0,1,6.6-6.2l75.2,4.1a6.53,6.53,0,0,1,6,6.9Z" style="fill:#f7f7f7"/><path d="M318.75,233.54a6.36,6.36,0,0,1-6.6,6.21L237,235.65a6.53,6.53,0,0,1-6-6.9l0-.88a6.37,6.37,0,0,1,6.6-6.22l75.2,4.11a6.54,6.54,0,0,1,6,6.9Z" style="fill:#f7f7f7"/><path d="M283.84,242.37a10.05,10.05,0,0,0-15.42-8.77h0c-.17.1-.34.22-.49.33l-.06,0-.39.29-.1.09-.35.29a.76.76,0,0,1-.09.09l-.39.38v0c-.13.13-.27.27-.4.42l-.05.08c-.1.12-.2.23-.3.36s-.05.08-.09.12-.17.23-.24.35a.54.54,0,0,1-.09.12,3.64,3.64,0,0,0-.28.47h0a4.91,4.91,0,0,0-.28.5,1.12,1.12,0,0,0-.05.13c-.06.13-.13.26-.18.39a.37.37,0,0,0-.07.16,3.89,3.89,0,0,0-.16.38,1.42,1.42,0,0,0,0,.16c-.07.18-.12.35-.17.52,0,0,0,0,0,0-.05.19-.09.37-.14.56l0,.17c0,.14-.06.27-.08.42l0,.18a3,3,0,0,0-.05.42s0,.11,0,.18a5.68,5.68,0,0,0,0,.59,10.07,10.07,0,0,0,9.8,10.32c.18,0,.35,0,.53,0h.54l.12,0,.4,0,.11,0,.41-.07a.12.12,0,0,0,.07,0c.15,0,.31-.06.45-.09h0l.48-.13h0l.48-.16h0c.16-.06.32-.11.47-.18h0A10.08,10.08,0,0,0,283.84,242.37Z" style="fill-rule:evenodd;opacity:0.08"/><path d="M285.31,239.89a10.06,10.06,0,1,1-9.8-10.32A10.07,10.07,0,0,1,285.31,239.89Z" style="fill:#aac1d0;fill-rule:evenodd"/><path d="M275.11,234h0Z" style="fill:#999"/><g style="opacity:0.7000000000000001"><g style="opacity:0.7000000000000001"><path d="M278.14,238.15l.09-.8a3,3,0,1,0-6-.63l-.09.82a1.74,1.74,0,0,0-1.29,1.48l-.28,2.74a1.79,1.79,0,0,0,1.65,1.93l3.87.41.7.07a1.81,1.81,0,0,0,2-1.55l.28-2.73A1.75,1.75,0,0,0,278.14,238.15Zm-4.54-.6-.52-.06.07-.67a2.1,2.1,0,0,1,4.18.44l-.08.67Z" style="fill:#f7f7f7"/></g></g><path d="M273.87,240.89c0,.32-.28.54-.47.52a.56.56,0,0,1-.39-.62c0-.32.24-.49.49-.47S273.9,240.56,273.87,240.89Z" style="fill:#f7f7f7"/><path d="M275.33,241c0,.32-.27.55-.47.53a.56.56,0,0,1-.38-.62c0-.33.23-.5.48-.47S275.37,240.72,275.33,241Z" style="fill:#f7f7f7"/><path d="M276.81,241.19c0,.33-.29.55-.48.53a.56.56,0,0,1-.39-.62c0-.32.24-.49.49-.47A.47.47,0,0,1,276.81,241.19Z" style="fill:#f7f7f7"/><path d="M279.13,248.92l-.35-.25a11.47,11.47,0,0,1-4.43-8.29c-.34-4.81-2.11-7.69-4.47-9.26a10.06,10.06,0,0,0,5.1,18.57A10.25,10.25,0,0,0,279.13,248.92Z" style="fill:#f7f7f8;fill-rule:evenodd;opacity:0.15"/><path d="M315.76,196.39A13.65,13.65,0,0,0,294,186.05h0c-.21.16-.43.32-.63.49a.46.46,0,0,0-.07.07c-.17.14-.34.28-.5.44l-.14.13c-.14.14-.29.28-.42.43l-.13.13c-.16.18-.33.36-.49.55h0c-.16.21-.33.41-.48.63a.44.44,0,0,0-.08.11c-.13.17-.24.34-.36.51a1.74,1.74,0,0,1-.11.18c-.1.16-.21.33-.3.5l-.1.17c-.13.21-.23.43-.34.65l0,0c-.11.23-.21.46-.31.7a1.34,1.34,0,0,0-.07.18,3.93,3.93,0,0,0-.2.54l-.09.23c-.05.18-.11.36-.16.53s0,.15-.07.22c-.05.24-.12.48-.17.72a.08.08,0,0,1,0,0c-.05.25-.09.51-.13.76l0,.23-.06.57c0,.08,0,.17,0,.26l0,.56a1,1,0,0,0,0,.25,7.09,7.09,0,0,0,0,.8,13.66,13.66,0,0,0,14.28,13l.71-.06.19,0,.54-.07.16,0,.55-.1.14,0,.56-.14a.29.29,0,0,0,.1,0c.19,0,.4-.1.59-.17l.05,0,.62-.22h0l.63-.26h0c.22-.09.43-.2.63-.29h0A13.61,13.61,0,0,0,315.76,196.39Z" style="fill-rule:evenodd;opacity:0.08"/><path d="M319.14,190.83a13.65,13.65,0,1,1-14.29-13A13.64,13.64,0,0,1,319.14,190.83Z" style="fill:#aac1d0;fill-rule:evenodd"/><path d="M309.59,186.19c-.22,2.11-2.27,4.27-3.71,4.11s-3-2.68-2.78-4.8a3.27,3.27,0,1,1,6.49.69Z" style="fill:#f7f7f7;opacity:0.7000000000000001"/><path d="M311.07,197c-.17,1.66-2.17,3.63-6.18,3.21s-5.65-2.77-5.48-4.44l.17-1.57a3,3,0,0,1,3.34-2.7l5.61.59a3,3,0,0,1,2.7,3.34Z" style="fill:#f7f7f7;opacity:0.7000000000000001"/><path d="M311.66,203.66c-.31-.18-.49-.31-.49-.31a15.44,15.44,0,0,1-6.81-10.75c-.95-6.49-3.62-10.2-7-12.1a13.65,13.65,0,0,0,14.26,23.16Z" style="fill:#f7f7f8;fill-rule:evenodd;opacity:0.15"/><path d="M346.63,253.25a21.58,21.58,0,0,0-34.35-16.34h0c-.34.26-.68.51-1,.78a.6.6,0,0,0-.12.11c-.26.22-.52.45-.78.7a2.09,2.09,0,0,0-.22.2c-.22.22-.45.44-.66.67l-.21.21c-.26.28-.52.58-.77.88l0,0c-.26.31-.52.64-.76,1l-.13.18c-.19.26-.38.53-.56.8l-.18.29c-.16.25-.33.51-.47.78,0,.09-.11.18-.16.28-.2.33-.37.67-.54,1,0,0,0,0,0,.05-.17.36-.33.73-.49,1.11a1.62,1.62,0,0,0-.11.28,5.58,5.58,0,0,0-.32.86,3,3,0,0,0-.13.36c-.09.28-.18.56-.26.84,0,.12-.06.23-.1.34-.09.38-.2.77-.28,1.14a.15.15,0,0,1,0,.06c-.08.39-.14.81-.21,1.21,0,.13,0,.24,0,.36,0,.3-.07.6-.1.89,0,.13,0,.28,0,.42,0,.3,0,.59,0,.89a2.54,2.54,0,0,0,0,.39c0,.42,0,.84,0,1.27a21.6,21.6,0,0,0,22.58,20.53c.38,0,.75-.05,1.13-.09l.29,0,.85-.11.26,0c.28-.05.58-.1.86-.17l.22,0c.3-.07.6-.13.88-.22a.34.34,0,0,0,.16,0c.31-.08.64-.17.94-.27l.08,0c.33-.11.66-.22,1-.35h0l1-.41h0l1-.46h0A21.54,21.54,0,0,0,346.63,253.25Z" style="fill-rule:evenodd;opacity:0.08"/><path d="M348.13,248.31a21.57,21.57,0,1,1-22.57-20.53A21.55,21.55,0,0,1,348.13,248.31Z" style="fill:#aac1d0;fill-rule:evenodd"/><path d="M334.39,236.73,321,235.33a5.2,5.2,0,0,0-5.57,4.77L314,254.41l-.21,2a5.19,5.19,0,0,0,4.45,5.83l13.35,1.41a5.2,5.2,0,0,0,5.57-4.78l1.5-14.3.22-2A5.21,5.21,0,0,0,334.39,236.73Z" style="fill:#f7f7f7;opacity:0.7000000000000001"/><path d="M322.16,244.14a1.64,1.64,0,0,1-3.27-.34,1.66,1.66,0,0,1,1.81-1.47A1.64,1.64,0,0,1,322.16,244.14Z" style="fill:#aac1d0"/><path d="M321.65,249a1.64,1.64,0,1,1-1.46-1.81A1.64,1.64,0,0,1,321.65,249Z" style="fill:#aac1d0"/><path d="M321.14,253.88a1.64,1.64,0,1,1-1.46-1.81A1.65,1.65,0,0,1,321.14,253.88Z" style="fill:#aac1d0"/><path d="M333.59,245.94l-9.16-1a.58.58,0,0,1-.52-.64.58.58,0,0,1,.64-.52l9.16,1a.59.59,0,0,1-.12,1.17Z" style="fill:#aac1d0"/><path d="M333.06,250.88l-9.15-1a.58.58,0,0,1,.12-1.16l9.16,1a.6.6,0,0,1,.52.65A.57.57,0,0,1,333.06,250.88Z" style="fill:#aac1d0"/><path d="M332.55,255.83l-9.16-1a.59.59,0,0,1-.52-.65.57.57,0,0,1,.64-.51l9.16,1a.58.58,0,0,1,.52.64A.58.58,0,0,1,332.55,255.83Z" style="fill:#aac1d0"/><path d="M336.3,268.58l-.76-.49c-4.93-3.53-9.57-8.63-10.78-17-1.48-10.25-5.71-16.12-11-19.12a21.57,21.57,0,0,0,22.53,36.6Z" style="fill:#f7f7f8;fill-rule:evenodd;opacity:0.15"/><path d="M345.07,144.94a12,12,0,0,0-19.15-9.1h0c-.19.14-.38.28-.56.43l-.07.06c-.14.13-.29.25-.43.39a.63.63,0,0,0-.12.11,4.4,4.4,0,0,0-.37.38l-.12.11-.43.49h0c-.14.18-.29.36-.42.55l-.08.1-.31.45-.1.16c-.09.14-.18.28-.26.43l-.09.16c-.11.18-.2.37-.3.56v0c-.1.2-.19.41-.28.62a1,1,0,0,0-.06.16,3.94,3.94,0,0,0-.18.48,1.18,1.18,0,0,0-.07.2c0,.15-.1.32-.14.47s0,.13-.07.19c0,.21-.1.42-.15.63v0c-.05.22-.08.45-.12.67l0,.2c0,.17,0,.33-.05.5s0,.16,0,.23l0,.5v.21c0,.24,0,.47,0,.72a12,12,0,0,0,12.58,11.44l.63-.06h.16l.48-.06.14,0,.48-.09.12,0,.49-.11.09,0c.18-.05.36-.09.53-.15l0,0,.55-.19h0l.56-.23h0l.56-.26h0A12,12,0,0,0,345.07,144.94Z" style="fill-rule:evenodd;opacity:0.06"/><path d="M349.22,140.53a12,12,0,1,1-12.58-11.44A12,12,0,0,1,349.22,140.53Z" style="fill:#aac1d0;fill-rule:evenodd"/><path d="M342.63,151.83l-.43-.27a13.66,13.66,0,0,1-6-9.47c-.83-5.72-3.19-9-6.13-10.66a12,12,0,0,0,7.71,21.67A11.78,11.78,0,0,0,342.63,151.83Z" style="fill:#f7f7f8;fill-rule:evenodd;opacity:0.15"/><path d="M342.76,136.55c0,1.66-1.42,3.5-2.55,3.5s-2.55-1.84-2.55-3.5a2.56,2.56,0,1,1,5.1,0Z" style="fill:#f7f7f8;opacity:0.30000000000000004"/><path d="M344.78,144.8c0,1.32-1.38,3-4.53,3s-4.61-1.68-4.61-3v-1.23A2.37,2.37,0,0,1,338,141.2h4.4a2.37,2.37,0,0,1,2.37,2.37Z" style="fill:#f7f7f8;opacity:0.30000000000000004"/><path d="M340,136.55c0,1.66-1.41,3.5-2.54,3.5s-2.55-1.84-2.55-3.5a2.55,2.55,0,1,1,5.09,0Z" style="fill:#f7f7f8;opacity:0.4"/><path d="M342.07,144.8c0,1.32-1.39,3-4.54,3s-4.61-1.68-4.61-3v-1.23a2.37,2.37,0,0,1,2.37-2.37h4.41a2.37,2.37,0,0,1,2.37,2.37Z" style="fill:#f7f7f8;opacity:0.4"/><path d="M337.46,136.54c0,1.67-1.41,3.5-2.55,3.5s-2.54-1.83-2.54-3.5a2.55,2.55,0,1,1,5.09,0Z" style="fill:#f7f7f8;opacity:0.7000000000000001"/><path d="M339.49,144.8c0,1.31-1.39,3-4.54,3s-4.61-1.69-4.61-3v-1.23a2.37,2.37,0,0,1,2.37-2.37h4.41a2.37,2.37,0,0,1,2.37,2.37Z" style="fill:#f7f7f8;opacity:0.7000000000000001"/><path d="M334.91,140h.14a14.26,14.26,0,0,0-1.84-5.56,2.75,2.75,0,0,0-.84,2.07C332.37,138.21,333.78,140,334.91,140Z" style="fill:#f7f7f8;opacity:0.12"/><path d="M335.19,141.2h-2.48a2.37,2.37,0,0,0-2.37,2.37v1.23c0,1.31,1.46,3,4.61,3a6.19,6.19,0,0,0,2.79-.59A11.23,11.23,0,0,1,335.19,141.2Z" style="fill:#f7f7f8;fill-rule:evenodd;opacity:0.08"/><path d="M219.36,145.92c.94-.28,3-.32,3.13,0,.56.86-1.52,1.53-3.13,2A13.62,13.62,0,0,1,219.36,145.92Z" style="fill:#f6c3b3"/><g style="opacity:0.4"><path d="M404.1,274.25c-.46-3.87,2-5.14,1-7.72-.78-2,6,2.32,7.16,4.79a4.6,4.6,0,0,1-1.84,6C408.51,278.56,404.5,277.57,404.1,274.25Z" style="fill:#bfd3e1;opacity:0.9"/><path d="M412.84,275.89s-2.74,1.22-3,6.69c-.14,3-1.6.12-1-2.92.68-3.38,2.83-4.06,3.68-4.92" style="fill:#bfd3e1;fill-rule:evenodd"/><path d="M419,278.19c3-4.3.84-7.4,3.67-9.81,2.2-1.88-8.62-1.06-11.54,1.14a6.19,6.19,0,0,0-1.63,8.33C411,280.52,416.42,281.89,419,278.19Z" style="fill:#bfd3e1"/></g><g style="opacity:0.7000000000000001"><path d="M413,273.67c-.45-3.87,2-5.15,1-7.72-.78-2,6,2.32,7.17,4.79a4.62,4.62,0,0,1-1.84,6C417.44,278,413.42,277,413,273.67Z" style="fill:#bfd3e1;opacity:0.9"/><path d="M421.77,275.3s-2.75,1.23-3,6.7c-.14,3-1.61.12-1-2.92.69-3.38,2.83-4.07,3.68-4.93" style="fill:#bfd3e1;fill-rule:evenodd"/><path d="M427.92,277.61c3-4.31.84-7.4,3.67-9.82,2.2-1.88-8.62-1.05-11.54,1.15a6.2,6.2,0,0,0-1.63,8.33C420,279.94,425.35,281.3,427.92,277.61Z" style="fill:#bfd3e1"/></g><path d="M405.7,280.57c2.25-2,1.48-4,3.38-4.95,1.48-.75-4.64-1.77-6.57-.94a3.56,3.56,0,0,0-2.05,4.41C401,280.78,403.76,282.28,405.7,280.57Z" style="fill:#bfd3e1;opacity:0.9"/><path d="M399.85,277s.94,2.11-1.73,5.38c-1.44,1.77.86.89,2.08-1.17,1.34-2.29.46-3.78.42-4.71" style="fill:#bfd3e1;fill-rule:evenodd"/><path d="M395.13,275.17c.5-4,3.32-4.68,2.95-7.52-.3-2.21,5.48,3.83,6,6.6a4.76,4.76,0,0,1-3.35,5.61C398.5,280.6,394.7,278.62,395.13,275.17Z" style="fill:#bfd3e1"/><path d="M249.39,149a3.34,3.34,0,0,0-1.34,0c-1.44.15-5.4,0-10.92,4.44-2.52,2-5,4.1-7.47,6.16l.3,1.32,2.73.29S243.74,151.41,249.39,149Z" style="fill:#f6c3b3"/><path d="M237.13,153.43c1-.81,1,.57,2.18,0,1.31-.62,3.71-3,5.15-3.19,4.55-.56-4.33,2.18-3.06,4.11.64,1.21,5.29-.41,5.72.42,1,1.58-3.73,2.41-5.86,3.26-1.76.71-8.08,2.9-9.84,3.61" style="fill:#f6c3b3"/><path d="M50.75,16.4s-2.91,10.19,5.34,9c4.93-.74,20.2-9.91,23.06-.95S71.9,39.08,53.23,39.08,22.12,34.51,9.59,36.6c-11.44,1.91-12.4-11.24-4.2-13.91,7.46-2.43,13.72.57,14.68-6.29S24.63-.33,36.08,0C54.33.55,50.75,16.4,50.75,16.4Z" style="fill:#3573a1;opacity:0.12"/><path d="M105.48,329.34c8.14-.76,17.22-4.32,17-6.62s-9.79-4.13-17.93-3.39-12.69,3.36-12.42,6.2S97.35,330.09,105.48,329.34Z" style="fill:#abafc1;opacity:0.43"/><path d="M185.53,161.1c13.74,17.88,50.66,2.73,50.87,0l-1.3-3.32s-.25-.44-.6-.39c-35.51,4.29-46.79-15.15-47.82-17.49" style="fill:#7797a7"/><path d="M276,158.71a21.58,21.58,0,0,0-35.88-12.65h0v0c-.3.27-.62.56-.91.87a.65.65,0,0,0-.11.12l-.71.77-.18.23c-.21.24-.41.49-.6.74l-.18.22c-.23.32-.46.63-.68,1v0q-.35.51-.66,1.05a2,2,0,0,0-.11.2c-.17.28-.32.57-.47.86-.05.1-.11.2-.15.3-.13.26-.27.55-.38.83a2.59,2.59,0,0,0-.14.29c-.16.35-.29.71-.43,1.07l0,0c-.14.38-.25.76-.37,1.16,0,.09-.06.2-.09.29-.09.3-.17.59-.23.89a2,2,0,0,0-.08.37c-.06.29-.13.58-.17.86,0,.12,0,.24-.07.36-.05.38-.11.77-.16,1.16v.06c0,.4-.06.81-.08,1.22,0,.13,0,.24,0,.37v1.32c0,.29,0,.58,0,.88,0,.13,0,.26,0,.39,0,.42.08.84.15,1.26a21.59,21.59,0,0,0,24.6,18.06q.56-.09,1.11-.21l.29-.06.83-.2.25-.08c.29-.07.56-.15.84-.24l.21-.07c.29-.1.59-.2.86-.31a.6.6,0,0,0,.16,0c.3-.12.61-.24.9-.37l.08-.05c.32-.14.63-.29.93-.44l.05,0c.32-.15.64-.34.95-.51h0c.33-.18.64-.37.94-.56h0A21.54,21.54,0,0,0,276,158.71Z" style="fill:#aac1d0;fill-rule:evenodd;opacity:0.30000000000000004;mix-blend-mode:multiply"/><path d="M290.83,153.64a17.39,17.39,0,0,0-28.92-10.19h0c-.24.24-.5.47-.73.71a.43.43,0,0,0-.09.1c-.19.2-.38.4-.57.62l-.15.19c-.17.19-.33.39-.48.59l-.15.19c-.18.24-.37.5-.54.76h0c-.18.29-.36.57-.52.86,0,.05-.07.1-.1.16-.13.23-.25.46-.37.69a1.92,1.92,0,0,0-.12.25c-.11.21-.22.44-.31.66a1.75,1.75,0,0,0-.11.24c-.13.28-.24.57-.35.86a.08.08,0,0,1,0,0c-.11.31-.21.62-.31.93a2.1,2.1,0,0,0-.06.24,5.86,5.86,0,0,0-.19.72,2.21,2.21,0,0,0-.07.3c-.05.23-.1.46-.13.69s0,.19-.06.28c0,.31-.09.63-.13.94v.05c0,.32,0,.66-.06,1a2.81,2.81,0,0,0,0,.29v1.06c0,.24,0,.48,0,.71s0,.21,0,.32q0,.51.12,1a17.4,17.4,0,0,0,19.83,14.55c.3-.05.6-.1.89-.17l.24,0,.67-.16.2-.07a5.31,5.31,0,0,0,.68-.2l.17-.05c.23-.09.47-.16.69-.25l.13-.05.73-.29.06,0c.25-.11.51-.23.75-.36,0,0,0,0,0,0,.27-.12.52-.27.77-.41h0c.27-.15.52-.31.76-.46h0A17.37,17.37,0,0,0,290.83,153.64Z" style="fill:#aac1d0;fill-rule:evenodd;opacity:0.30000000000000004;mix-blend-mode:multiply"/><path d="M262.94,147.6a25.64,25.64,0,1,1-29.22-21.45A25.6,25.6,0,0,1,262.94,147.6Z" style="fill:#266797;fill-rule:evenodd"/><path d="M244.81,146.94a3.84,3.84,0,0,1-3.59,3.05,3.88,3.88,0,0,1-3.8-3.05,3.83,3.83,0,0,1-3.59,3.05,3.89,3.89,0,0,1-3.8-3.05,3.84,3.84,0,0,1-3.56,3.05v10c0,3.22,3.49,7.36,11,7.36s10.86-4.14,10.86-7.36V150A3.91,3.91,0,0,1,244.81,146.94Z" style="fill:#f7f7f7;opacity:0.7000000000000001"/><path d="M248.61,150a3.88,3.88,0,0,1-3.8-3.05,3.84,3.84,0,0,1-3.59,3.05,3.88,3.88,0,0,1-3.8-3.05,3.83,3.83,0,0,1-3.59,3.05,3.89,3.89,0,0,1-3.8-3.05,3.84,3.84,0,0,1-3.59,3.05,4,4,0,0,1-4-4.23c0-.37,3.53-6.11,3.6-6.49h22.67c.08.32,3.61,6,3.62,6.32A4,4,0,0,1,248.61,150Z" style="fill:#f7f7f7;opacity:0.7000000000000001"/><path d="M252.36,145.59a4,4,0,0,1-3.75,4.4,3.88,3.88,0,0,1-3.8-3.05,3.84,3.84,0,0,1-3.59,3.05,3.88,3.88,0,0,1-3.8-3.05,3.83,3.83,0,0,1-3.59,3.05,3.89,3.89,0,0,1-3.8-3.05,3.84,3.84,0,0,1-3.59,3.05,4,4,0,0,1-4-4.23" style="fill:#fff;opacity:0.7000000000000001"/><path d="M251.49,173c-.6-.28-1-.47-1-.47-6.26-3.57-12.38-9-14.85-18.76-3-11.93-8.75-18.34-15.37-21.23a25.63,25.63,0,0,0,21.19,44.25A25.28,25.28,0,0,0,251.49,173Z" style="fill:#f7f7f8;fill-rule:evenodd;opacity:0.15"/><path d="M197.66,97.35c.27-1.42,2.34-1.71,3-3s-.73-3-2.23-3.19a8.21,8.21,0,0,0-4.34,1.16c-5.3,2.47-1.5-3-1.06-5.21.63-3.24-4-3.07-8.1,2.9-.67,1,.34-12.81-14,2.41a71.17,71.17,0,0,0-6.14,8.35c-2.11,3.08-4.17,6.75-4.23,10.31.35,5.69,4.1,7.82,6.36,12.2a16.68,16.68,0,0,0,1.88,3.07h0s4.65,3.93,7,2.53,1.08-8.07,1.08-8.07a6,6,0,0,0-.11-1.14c.39-.44.79-.91,1.23-1.4,4.2-4.76,5.31-7.23,4.34-9.49,3.81,1.5,8.4,3,11.16,2.86a5.08,5.08,0,0,0,3.68-2.1,9,9,0,0,0,4.81-5.2C202.86,101.31,200.83,97.43,197.66,97.35Z" style="fill:url(#b)"/><path d="M189.36,184.3a77.55,77.55,0,0,1-9.65,2.67c-8.11,2-14.53,3.32-14.53,3.32-17.51,11.11-13.85,42.6-13.09,62-2.67,1.4-6.75,3.2-10.52,5.35-10.22,5.82-23.84,25.82-28.73,32.36a3.89,3.89,0,0,0,3,3.62c1.91.54,10.92-6.59,27.36-16,4.12-2.34,16.79-8.64,21.36-12.17.8-.61,4.21-4,4.2-4,4.65-11.33,9.69-34.23,15.07-54.47,1.67-4.7,9.18-9.14,11.68-14.39C196.86,189.3,190.18,187.35,189.36,184.3Z" style="fill:#858097"/><g style="clip-path:url(#c)"><path d="M153.44,197.56s1.78-2.36,6.47-8.32c21.39,2.82,43.57,17.65,43.78,37.57.19,16.76-16.82,32.75-33.21,37.77,1.12-5.12,1-14,1-14a26.37,26.37,0,0,0-10.42-19.73C145.12,218.3,146.75,206.15,153.44,197.56Z" style="fill:#706a7f;fill-rule:evenodd"/></g><path d="M199.5,250.33c-.39-12.19-.34-30.24-3.81-51-.42-5-35.77-5.47-35.77-5.47-11.88,27.8,20,39.62,20.6,60.46.34,1.56-2.23,8.45-5.19,14.68-5,10.62-6.58,29.26-6.85,37.42a3.89,3.89,0,0,0,4.5,1.28c1.88-.66,7-6.1,15.12-23.2,2-4.28,9.37-22.41,11.11-27.92A28.9,28.9,0,0,0,199.5,250.33Z" style="fill:#686175"/><path d="M115.25,298c.74,0,3.36.22,2.72,3.94s-2.33,7.82-1.77,10.14c.66,2.7-1.53,3.89-2.55,1.66-1.43-3.15-7.22-16.24-7.22-16.24s-1.42-3.2,1.2-4.34a2.68,2.68,0,0,1,3.78,1.82A3.74,3.74,0,0,0,115.25,298Z" style="fill:#686175"/><path d="M171.55,311.87c.7-.24,3.27-.79,3.77,2.95s.11,8.16,1.34,10.22c1.43,2.37-.29,4.16-1.93,2.33C172.42,324.8,163,314,163,314s-2.31-2.63-.14-4.5a2.68,2.68,0,0,1,4.15.62A3.72,3.72,0,0,0,171.55,311.87Z" style="fill:#686175"/><path d="M184.64,131.44c1,1.05,5,.44,5.76-.67,0,0,3.77-7.74.86-24.55-.8-4.61-1.9,3.78-9-3.32-.56-.56.28,14.66-10.77,15.68.27.61-.12-.17-.12-.17a1.25,1.25,0,0,0,.12.17c-.41-1-.68-3.67-2.75-2.2-3.56,2.53,1.87,7.67,4.28,5.77,1.5,3.54,3.29,7.81,3.29,7.81l-3,12.67L187,146S184,130.81,184.64,131.44Z" style="fill:#ecaa83"/><path d="M183.41,117.64a.74.74,0,0,1-1.48,0,.75.75,0,0,1,.72-.76A.76.76,0,0,1,183.41,117.64Z" style="fill:#231f20;opacity:0.21"/><path d="M190.49,117.69a.74.74,0,0,1-1.48,0,.74.74,0,1,1,1.48,0Z" style="fill:#231f20;opacity:0.21"/><path d="M184.62,132c-.05-.19.13-.4,0-.56s-.78-.4-1.11-.53a8.68,8.68,0,0,1-2.8-1.88c0,.73.62,1.26,1.16,1.75a8.52,8.52,0,0,1,2.5,4.15,3.88,3.88,0,0,0,.89,2.08,11.44,11.44,0,0,0-.22-2.41A17.65,17.65,0,0,0,184.62,132Z" style="fill:#cc9e91"/><path d="M172.32,201.37a1.66,1.66,0,0,1,1.88,2.2,17.41,17.41,0,0,0-.6,2.9,4.56,4.56,0,0,0,1.28,3.66c5,5.2,1.74,9.29.65,10.42a6,6,0,0,1-8.06-.07,10.75,10.75,0,0,1,4.85-19.11Z" style="fill:#8b8fa8"/><path d="M185.46,138c-.48,0,.09,4.7-.89,4.66-3.07-.14-9.43-5.76-9.52-7.74,0,0-6.19,2-8.94,4.32-14,12.12-.83,49.19-20,60.37-12.58,7.33,62,28.35,54.78,3.43-3.11-10.69,1.75-13.69-2-25.78-2.85-9.29-2.08-4.88-4.24-15.92-2.86-14.64-7.78-22.08-8.94-23.48C185.61,137.73,185.74,138,185.46,138Z" style="fill:#6fb9a2"/><path d="M189.43,126.56l-5.55-.09S187,128.48,189.43,126.56Z" style="fill:#231f20;opacity:0.21"/><path d="M193.06,115.3c-.6-.11-4.1,0-5.58,0a.53.53,0,0,0-.39.21h-1.4a.57.57,0,0,0-.4-.21c-1.59-.08-5.37-.26-6-.16a.6.6,0,0,0-.52.35.62.62,0,0,0,.1.5l-7.41,2.31a.21.21,0,0,0,.11.4h0l7.46-2.32a10.65,10.65,0,0,0,.74,3.46c.63.91,4.16.62,4.92.44h0c.78-.2,1-2.2,1.12-4l1.18.06c0,1.65.23,3.44,1,3.63a10.69,10.69,0,0,0,3.87.09,1.24,1.24,0,0,0,.71-.39,10.93,10.93,0,0,0,.79-3.36.72.72,0,0,0,.23-.64C193.49,115.46,193.33,115.35,193.06,115.3Zm-8.48,4.58h0c-1.14.26-4.11.28-4.5-.28a12,12,0,0,1-.68-3.52V116l0,0a.6.6,0,0,1-.2-.33s0,0,.12-.06h.08c.49-.08,3.39,0,5.93.16a.13.13,0,0,1,.13.14C185.33,118.49,184.93,119.79,184.58,119.88Zm8.39-3.83-.05,0v.08a11,11,0,0,1-.72,3.23c-.37.5-3.11.42-4.15.15-.32-.08-.66-1.29-.66-3.74h0a.11.11,0,0,1,.11-.11c2.36-.06,5-.09,5.5,0a.38.38,0,0,1,.16.06A.53.53,0,0,1,193,116.05Z" style="fill:#629ab7"/><path d="M163.23,173.21l3.93,6.12c1.16,1.79,3.57,5.67,5.55,6.47a11.82,11.82,0,0,0,2.83.55c28.41,4.16,42.83-4.43,43.57-5.16a2.29,2.29,0,0,0,.5-2.83c-.62-.88-1.86-1-2.93-1-13.64,0-30.36,2.11-34.9-.85-4.28-6.13-2.72-11.91-5.23-15.75" style="fill:#edbca4"/><path d="M185.46,137.52c.95,0,3.76,4.56,3.41,5.78s.44,6.14-.5,6.22-4.91-6.84-4.91-6.84S184.52,137.53,185.46,137.52Z" style="fill:#7797a7"/><path d="M175.88,132.76c.79.3,8.59,10.31,8.59,10.31s-.78,6.94-1.57,7S173.11,136,173.11,136A3.51,3.51,0,0,1,175.88,132.76Z" style="fill:#7797a7"/><path d="M179.15,171.73A9.27,9.27,0,0,1,177.7,167c0-1-1.78-7-.89-7.53s1.71.44,2.67.57c2.21.31-.68,10.2,8.37,12.48,5.92,1.49,9.21.84,10.38,4.15.69,1.95-2.64.57-2.93,1-.44.71-1-.15-1.87-.21a38.29,38.29,0,0,1-7.91-1.12,12.93,12.93,0,0,1-6.69-4.17" style="fill:#6aaf98"/><path d="M221.88,177.14a42.24,42.24,0,0,0,6.76-2.11c1.74-.7,4.93-2.62,5.53-1,.38.85-4.69,3-2.33,2.75,2.68-.47,6.32-1.11,8.07-2.57.8-.67,2.31-1.36,2.45-.5s-1,2-1.65,2.54a21.64,21.64,0,0,1-4.16,2.86,13.16,13.16,0,0,1-3.94,1.72c-1.24.25-18.52-.19-17.7.25" style="fill:#ecaa83"/><path d="M179.61,152.29c.73,9.69-1.19,10.9.78,16.35.87,2.4-17.09,9.4-19.34,3.8a47.46,47.46,0,0,1-1.89-5.77c-2.42-9.38.73-25.8,11.74-24.53C170.9,142.14,178.71,142.46,179.61,152.29Z" style="fill:#7797a7"/><path d="M160.68,171.71c2.09,4.23,4.3,8.61,8,11.56s8.7,4.2,13.49,4.94c11.52,1.78,23.65,1.48,34.36-3.11,1.78-.77,4.65-2.37,5.55-4,.55-1-.25-4.14-.83-4.31-4-1.18-7.82-.16-10,.14-5.52.75-8.62.18-14.19,0-6.24-.15-13.73-2.85-16.64-8.37-1.26-2.4-1.25-3.95-2.91-6.09a6.79,6.79,0,0,0-12.15,4.06" style="fill:#7797a7"/></g></svg>