<svg xmlns="http://www.w3.org/2000/svg" viewBox="0 0 1752 738.98"><path d="M0,468S29.89,620.26,160,682.9C592.77,891.26,891.71,445.36,1273.12,535,1641.48,621.53,1752,420,1752,420V6c-316.83-59.86-494.24,356.78-876.9,136.13C380.31-143.23,0,142,0,142Z" style="fill:#e6e6e6;opacity:0.30000000000000004"/><path d="M463.23,54.94C292.54,66.06,354.31,453,149.81,331.82c-123.5-73.19,19.22,443.46,372.76,325C857,544.85,1095,548.23,1350.85,612.29c297.18,74.43,367.64-310.54,134.26-286.76-219.25,22.34-200.78-394.09-449.64-239.17C483.8,429.78,719.11,38.28,463.23,54.94Z" style="fill:#e6e6e6;opacity:0.30000000000000004"/><path d="M1199.91,407.23s32.28,14.43,67.44,14.43,58.26-14.83,58.26-14.83a2.78,2.78,0,0,0-.93-3.71l0,0a2.94,2.94,0,0,1-1.21-1.62c-2.12-7.47-8.73-6.57-12.53-5.33a2.84,2.84,0,0,1-3.53-1.63c-3.26-8.44-13.18-5.12-16.9-3.51a2.87,2.87,0,0,1-2.75-.29c-9-6.12-16.06,2.18-18.92,6.52a2.87,2.87,0,0,1-3.71.92c-5.67-2.88-12-1.89-16.17-.57a2.81,2.81,0,0,1-3.65-2.58c0-3.44-2.21-8.21-11.79-12.16-13.53-5.58-19.35,5.11-21.16,9.78a2.86,2.86,0,0,1-2.86,1.79c-9.1-.55-10.08,7-9.92,11.16A4.73,4.73,0,0,0,1199.91,407.23Z" style="fill:#fff;opacity:0.7000000000000001"/></svg>