<svg xmlns="http://www.w3.org/2000/svg" xmlns:xlink="http://www.w3.org/1999/xlink" viewBox="0 0 614.79 382.69"><defs><linearGradient id="a" x1="-5764.55" y1="294.57" x2="-5764.55" y2="-37.79" gradientTransform="matrix(-1.05, -0.01, 0.01, 1, -5713.21, 17.5)" gradientUnits="userSpaceOnUse"><stop offset="0" stop-color="#fff"/><stop offset="0.03" stop-color="#fff" stop-opacity="0.93"/><stop offset="0.14" stop-color="#fff" stop-opacity="0.72"/><stop offset="0.26" stop-color="#fff" stop-opacity="0.53"/><stop offset="0.37" stop-color="#fff" stop-opacity="0.36"/><stop offset="0.49" stop-color="#fff" stop-opacity="0.23"/><stop offset="0.61" stop-color="#fff" stop-opacity="0.13"/><stop offset="0.73" stop-color="#fff" stop-opacity="0.06"/><stop offset="0.86" stop-color="#fff" stop-opacity="0.01"/><stop offset="1" stop-color="#fff" stop-opacity="0"/></linearGradient><linearGradient id="b" x1="138.92" y1="64.86" x2="182.5" y2="64.86" gradientUnits="userSpaceOnUse"><stop offset="0" stop-color="#3a2d7e"/><stop offset="0.86" stop-color="#6a3390"/></linearGradient><clipPath id="c"><path d="M170.59,153.17c-6.32,1.16-4.64.78-11.22,1.49-9.39,1-18.47,1.27-18.47,1.27-22.28,10.19-20.43,49.09-22.84,70.52,6.76,2.08,12.14,6.19,17.41,10.2,7-11.91,16.19-36.94,25.39-58.9,2.59-5,11.69-8.82,15.3-14.33C178.23,159.92,171.05,156.7,170.59,153.17Z" style="fill:none"/></clipPath></defs><g style="opacity:0.2"><path d="M499.43,301c-13.64-37,7.88-55.46-8.16-78.43-12.46-17.86,64.75,8.62,81.9,30.18s12.55,47.05-3.83,63.8C553.11,333,511.22,332.78,499.43,301Z" style="fill:#fff;opacity:0.9"/><path d="M589.42,296.37s-24.13,18.56-13.65,73c5.63,29.52-15.55,5-16.72-26.41-1.29-34.89,18.21-46.71,24.56-57.2" style="fill:#fff;fill-rule:evenodd"/></g><path d="M178.16,169.31h0a132.36,132.36,0,0,1,20.24-42.89C259.2,41.78,266.32-29.43,370.77,12.26c60.56,24.17,104.05,109.44,73.59,202.68q-2.46,7.53-5.45,14.72v0l-.23.5C404.91,311.42,325.47,356.71,261.3,337.26,194.79,317.13,159.85,237.59,178.16,169.31Z" style="fill:#e6e6e6;fill-rule:evenodd;opacity:0.30000000000000004"/><path d="M181.84,190h0a123.67,123.67,0,0,1,15.75-43.18C249.66,59.7,249.15-9.56,358.76,21c63.53,17.72,116.47,95.88,95.86,188.52-1.12,5-2.42,9.89-3.9,14.69,0,0,0,0,0,0l-.17.5c-25.25,81.37-100.33,132.31-167,119.47C214.49,330.93,170.77,257.5,181.84,190Z" style="fill-rule:evenodd;fill:url(#a)"/><path d="M252.24,285.78l100.69,8.69c12.45,1.12,22.45-7.54,23.16-20.05L388.61,52.48c.41-7.2-5.66-14-12.8-14.27L280,33.87c-11.57-.5-20.74,7.46-21.95,19L235.85,266C234.85,275.53,242.62,284.93,252.24,285.78Z" style="fill:#d1cfd0;opacity:0.8"/><path d="M246.08,279.12l105.06,9.09c10.51.94,18.95-6.37,19.55-16.95L383.29,48.2a9.81,9.81,0,0,0-9-10.06l-100-4.51a17.45,17.45,0,0,0-18.55,16L233.41,263.79C232.64,271.19,238.65,278.45,246.08,279.12Z" style="fill:#fff"/><polygon points="243.1 242.86 363.21 252.91 374.9 53.12 264.28 47.63 243.1 242.86" style="fill:#d1cfd0;opacity:0.61"/><path d="M295.77,265.07a7.2,7.2,0,0,0,4,8.42,5.4,5.4,0,0,0,7.41-3.71,7.2,7.2,0,0,0-4-8.42A5.4,5.4,0,0,0,295.77,265.07Z" style="fill:#d1cfd0;opacity:0.8"/><polygon points="255.19 47.35 389.46 54.21 391.16 63.8 251.3 56.98 255.19 47.35" style="fill:#efa998"/><path d="M333.64,76c-.49,6.24-7.45,11-15.54,10.6h0c-8.1-.39-14.27-5.76-13.78-12l.55-7L334.19,69Z" style="fill:#bebebe"/><path d="M275.57,66.15l-.55,7c-.49,6.25-7.45,11-15.55,10.61h0c-8.09-.39-14.24-5.75-13.75-12l.55-7Z" style="fill:#bebebe"/><polygon points="335.53 60.75 334.19 68.95 304.87 67.55 307.62 59.42 335.53 60.75" style="fill:#d7d7d7"/><polygon points="251.82 56.77 279.73 58.09 275.57 66.16 246.27 64.76 251.82 56.77" style="fill:#d7d7d7"/><path d="M393,72.24l-.56,7c-.49,6.25-7.45,11-15.54,10.61h0c-8.1-.39-14.25-5.75-13.76-12l.56-7Z" style="fill:#bebebe"/><polygon points="362.7 62.3 390.61 63.63 392.97 72.24 363.67 70.84 362.7 62.3" style="fill:#d7d7d7"/><path d="M362.94,77.39c-.49,6.25-7.46,11-15.54,10.6s-14.25-5.75-13.76-12l.55-7,29.32,1.39Z" style="fill:#efa998"/><path d="M304.32,74.6c-.49,6.24-7.46,11-15.53,10.6h0c-8.1-.39-14.26-5.75-13.77-12l.55-7,29.3,1.4Z" style="fill:#efa998"/><g style="opacity:0.9"><polygon points="363.44 62.09 363.5 70.34 334.19 68.95 335.53 60.75 363.44 62.09" style="fill:#f7c4b4"/><polygon points="307.62 59.42 304.87 67.55 275.57 66.16 279.73 58.09 307.62 59.42" style="fill:#f7c4b4"/></g><path d="M361.77,163.51a7.15,7.15,0,0,1-7.59,6.79l-84.79-6.9a7.35,7.35,0,0,1-6.57-7.93l2.82-40.36a7.14,7.14,0,0,1,7.59-6.78L358,115.22a7.35,7.35,0,0,1,6.57,7.93Z" style="fill:#336da0;opacity:0.09"/><path d="M356.9,196.12a7.13,7.13,0,0,1-7.59,6.78L265,196.05a7.34,7.34,0,0,1-6.57-7.93l.07-1a7.15,7.15,0,0,1,7.6-6.78l84.36,6.86a7.33,7.33,0,0,1,6.56,7.93Z" style="fill:#336da0;opacity:0.09"/><path d="M354.81,221.08a7.13,7.13,0,0,1-7.59,6.78L262.86,221a7.35,7.35,0,0,1-6.57-7.93l.07-1a7.15,7.15,0,0,1,7.6-6.78l84.36,6.86a7.34,7.34,0,0,1,6.56,7.93Z" style="fill:#336da0;opacity:0.09"/><path d="M361.17,160.38a7.15,7.15,0,0,1-7.6,6.78l-84.79-6.89a7.34,7.34,0,0,1-6.57-7.93L265,112a7.15,7.15,0,0,1,7.6-6.78l84.78,6.89A7.34,7.34,0,0,1,364,120Z" style="fill:#f8f8f8"/><path d="M356.3,193a7.15,7.15,0,0,1-7.6,6.78l-84.36-6.86a7.33,7.33,0,0,1-6.57-7.93l.07-1a7.15,7.15,0,0,1,7.6-6.78l84.36,6.86a7.36,7.36,0,0,1,6.57,7.93Z" style="fill:#f8f8f8"/><path d="M354.21,218a7.15,7.15,0,0,1-7.6,6.78l-84.36-6.85a7.35,7.35,0,0,1-6.57-7.94l.07-1a7.15,7.15,0,0,1,7.6-6.78L347.71,209a7.34,7.34,0,0,1,6.57,7.93Z" style="fill:#f8f8f8"/><path d="M314.59,227.12a13.18,13.18,0,0,0-19.91-12h0c-.23.13-.45.27-.66.41l-.08.06-.52.38a.69.69,0,0,0-.13.11c-.16.12-.31.25-.47.36a.46.46,0,0,1-.12.12l-.52.48,0,0-.54.53-.07.11a5.72,5.72,0,0,0-.4.46,1.67,1.67,0,0,0-.12.16c-.12.15-.23.29-.34.45a.76.76,0,0,1-.11.16,4.63,4.63,0,0,0-.39.59,0,0,0,0,0,0,0,5.14,5.14,0,0,0-.38.64.37.37,0,0,0-.07.16c-.09.17-.19.33-.26.5l-.1.21c-.07.18-.16.34-.21.5a1.8,1.8,0,0,0-.08.21c-.09.23-.16.44-.23.67,0,0,0,0,0,0-.08.25-.14.49-.21.73a1.6,1.6,0,0,1-.05.21c0,.18-.07.36-.11.55a1.57,1.57,0,0,1,0,.25c0,.18-.05.35-.08.54a1.64,1.64,0,0,0,0,.23,6.65,6.65,0,0,0-.07.78,13.18,13.18,0,0,0,12.49,13.86c.23,0,.45,0,.69,0h.71a.76.76,0,0,1,.16,0l.52,0,.15,0,.54-.07.1,0,.59-.12h.05c.21,0,.42-.09.63-.16h0l.64-.18h0l.62-.22h0A13.24,13.24,0,0,0,314.59,227.12Z" style="fill-rule:evenodd;opacity:0.08"/><path d="M316.59,223.92a13.19,13.19,0,1,1-12.48-13.87A13.2,13.2,0,0,1,316.59,223.92Z" style="fill:#afd3dc;fill-rule:evenodd"/><path d="M303.44,215.81h0Z" style="fill:#999"/><path d="M310.22,226.74h0a7.55,7.55,0,0,0,.2-2.77c-.68-6.08,1-9.92-5.53-10.8-3.79-.5-8.46,2.6-9.59,8.24-.06.31-.11.61-.15.91h0v0c-.61,5.12,2.15,9.72,6,10.58S309.19,230.76,310.22,226.74Z" style="fill:#fff;fill-rule:evenodd;opacity:0.4"/><path d="M307.33,224.73c-.07,3.2-2.95,6.48-5.14,6.42s-4.95-3.49-4.88-6.68a5.06,5.06,0,0,1,5.12-5.24A5.13,5.13,0,0,1,307.33,224.73Z" style="fill:#fff;opacity:0.4"/><g style="opacity:0.47000000000000003"><path d="M303.76,225.58c0,1.11-.79,1.92-1.47,1.9a1.88,1.88,0,0,1-1.48-2c0-1.1.68-1.73,1.52-1.71A1.53,1.53,0,0,1,303.76,225.58Z" style="fill:#fff"/></g><path d="M303,223.23a21.43,21.43,0,0,0-.14-10c-3.29.57-6.66,3.5-7.59,8.17-.06.31-.11.61-.15.91h0v0c-.61,5.12,2.15,9.72,6,10.58a6.7,6.7,0,0,0,2.89,0A16.18,16.18,0,0,1,303,223.23Z" style="fill:#fff;fill-rule:evenodd;opacity:0.12"/><g style="opacity:0.2"><path d="M45.52,127.71c.59-6.56-3.67-8.6-2.09-13,1.24-3.41-10.06,4.2-11.89,8.42a7.79,7.79,0,0,0,3.39,10.11C38.26,135.2,45,133.35,45.52,127.71Z" style="fill:#fff;opacity:0.9"/><path d="M30.82,130.87s4.69,1.94,5.37,11.18c.37,5,2.72.13,1.54-5-1.3-5.68-5-6.74-6.43-8.16" style="fill:#fff;fill-rule:evenodd"/><path d="M20.52,135c-5.26-7.14-1.75-12.46-6.64-16.43-3.81-3.07,14.52-2.16,19.55,1.43s5.64,9.37,3.13,14S25,141.17,20.52,135Z" style="fill:#fff"/></g><g style="opacity:0.2"><path d="M.32,135.31c-1.27-5,1.78-7.1,0-10.31-1.38-2.49,8.3,2,10.24,5.05a6.1,6.1,0,0,1-1.37,8.24C6.86,140.22,1.42,139.61.32,135.31Z" style="fill:#fff;opacity:0.9"/><path d="M12.08,136S8.69,138,9.31,145.26c.33,3.91-2.09.44-1.81-3.66.31-4.56,3-5.83,4-7.11" style="fill:#fff;fill-rule:evenodd"/><path d="M20.57,137.9c3.19-6.17-.19-9.86,3.11-13.53,2.57-2.85-11.5.12-14.95,3.52A8.2,8.2,0,0,0,8,139.11C10.51,142.35,17.83,143.21,20.57,137.9Z" style="fill:#fff"/></g><path d="M244.59,106.09a3.71,3.71,0,0,0-1.5-.06c-1.62.17-6.07,0-12.28,5-2.83,2.26-5.59,4.61-8.4,6.92l.35,1.49,3.06.32S238.23,108.75,244.59,106.09Z" style="fill:#f7c3b3"/><path d="M230.81,111c1.1-.91,1.16.64,2.46,0,1.46-.69,4.16-3.38,5.78-3.58,5.11-.63-4.87,2.46-3.45,4.62.73,1.35,6-.46,6.44.47,1.15,1.79-4.19,2.71-6.59,3.67-2,.79-9.08,3.25-11.06,4.06" style="fill:#f7c3b3"/><path d="M219.18,136.33a47.11,47.11,0,0,0,7.65-2.39c2-.79,5.57-3,6.25-1.14.43,1-5.3,3.38-2.63,3.1,3-.53,7.15-1.25,9.13-2.9.89-.76,2.61-1.54,2.76-.57s-1.07,2.21-1.86,2.87a24.41,24.41,0,0,1-4.7,3.24,14.91,14.91,0,0,1-4.47,1.94c-1.4.29-18.69.12-17.76.61" style="fill:#f0b293"/><path d="M283,183.1a11.29,11.29,0,0,0-14.64-13.49h0l-.63.24-.07,0-.5.23-.14.07a4.34,4.34,0,0,0-.43.23l-.14.07-.53.32h0c-.19.11-.36.25-.54.36l-.09.08a4.24,4.24,0,0,0-.4.31.83.83,0,0,1-.15.11l-.35.33-.12.11c-.14.14-.29.28-.43.43h0c-.16.16-.3.32-.44.49l-.1.11c-.1.13-.19.26-.3.39a.86.86,0,0,0-.1.16,4.28,4.28,0,0,0-.26.38l-.12.15-.31.54h0c-.1.2-.21.38-.31.58a1.34,1.34,0,0,1-.07.18c-.06.14-.13.28-.18.42a1.89,1.89,0,0,0-.09.21c-.06.14-.1.29-.16.44a1.06,1.06,0,0,1-.06.19c-.06.22-.13.42-.19.64a11.29,11.29,0,0,0,8.09,13.76l.59.13.14,0,.45.08.13,0,.46,0,.11,0,.49,0h.62a5.17,5.17,0,0,0,.57,0h0l.55,0h0l.56-.08h0A11.31,11.31,0,0,0,283,183.1Z" style="fill-rule:evenodd;opacity:0.08"/><path d="M287,179.54a11.3,11.3,0,1,1-8.1-13.76A11.28,11.28,0,0,1,287,179.54Z" style="fill:#ae9eb9;fill-rule:evenodd;opacity:0.7000000000000001"/><path d="M277.94,187.84l-.31-.36a12.86,12.86,0,0,1-2.75-10.17c.85-5.35-.35-8.94-2.52-11.26a11.28,11.28,0,0,0,.87,21.58A10.94,10.94,0,0,0,277.94,187.84Z" style="fill:#f7f7f8;fill-rule:evenodd;opacity:0.15"/><text transform="matrix(1, 0.02, -0.02, 1, 271.94, 180.95)" style="font-size:13.705069541931152px;fill:#fff;font-family:Nunito-Bold, Nunito Bold;font-weight:700;letter-spacing:0.05002140798356001em">$</text><path d="M419.77,137.91l-10,5.41c-19.77,9.24-42.28,3-56.26,1.85-13.26-1.13-27.07,4-35.83,14s-12,24.81-7.4,37.31c2.94,8.11,8.8,14.93,11.62,23.09s.36,17.69-6.85,22.42c-3.11,2-15.52,4.95-23.7-1.12" style="fill:none;stroke:#a1a1a1;stroke-miterlimit:10;stroke-width:0.48017899999999997px;stroke-dasharray:4.033480167388916"/><path d="M298.74,141.09a14.82,14.82,0,0,0-22.19-13.79h0c-.24.15-.5.29-.73.45a.31.31,0,0,0-.09.07l-.59.41-.17.13c-.17.12-.34.26-.51.4a.93.93,0,0,1-.15.13l-.6.54h0c-.2.2-.4.4-.59.61l-.11.12c-.15.16-.29.33-.43.5s-.11.12-.15.18-.27.33-.39.5a1.92,1.92,0,0,1-.13.17c-.16.22-.3.44-.44.66l0,0c-.15.24-.29.48-.43.73l-.09.17a5.1,5.1,0,0,0-.29.57,1.33,1.33,0,0,0-.11.24c-.09.18-.17.37-.24.55s-.06.15-.1.22c-.09.26-.19.51-.28.76a.06.06,0,0,1,0,0c-.09.26-.16.54-.24.81,0,.09,0,.16-.05.24s-.09.4-.14.6l-.06.29c0,.2-.07.4-.1.6l0,.26c0,.29-.07.58-.09.87A14.84,14.84,0,0,0,283,154.92l.78,0h.79l.18,0,.6,0,.15,0c.21,0,.43,0,.63-.08h.1c.23,0,.45-.07.67-.12H287l.7-.16h0l.72-.2h0c.24-.07.48-.16.71-.24h0A14.81,14.81,0,0,0,298.74,141.09Z" style="fill-rule:evenodd;opacity:0.08"/><path d="M303.05,135.51a14.82,14.82,0,1,1-13.82-15.74A14.8,14.8,0,0,1,303.05,135.51Z" style="fill:#ae9eb9;fill-rule:evenodd"/><path d="M293.43,148.43c-.31-.23-.49-.39-.49-.39a16.86,16.86,0,0,1-6.05-12.43c-.22-7.1-2.66-11.43-6-13.89a14.81,14.81,0,0,0,12.57,26.71Z" style="fill:#f7f7f8;fill-rule:evenodd;opacity:0.15"/><text transform="translate(279.6 139.29) rotate(3.63)" style="font-size:17.988420486450195px;fill:#fff;font-family:Nunito-Bold, Nunito Bold;font-weight:700;letter-spacing:0.04999961298311239em">%</text><path d="M168.79,119.84c15.53,20.23,57.29,3.09,57.53,0l-1.48-3.75s-.27-.5-.68-.45c-40.15,4.86-52.91-17.14-54.07-19.79" style="fill:#f2a41e"/><path d="M121.91,221.72c-.91,1.56-8.93,3.34-16.17,6.25-12.33,4.95-30.68,25.26-37.16,31.83a4.4,4.4,0,0,0,2.75,4.52c2.07.9,13.25-5.7,33.12-13.67,5-2,20.14-7.1,25.8-10.34,1-.59,4.14-2.94,5.35-3.8-3.16-5.83-8.34-10.2-13.64-14.86Z" style="fill:#371880"/><path d="M170.59,153.17c-6.32,1.16-4.64.78-11.22,1.49-9.39,1-18.47,1.27-18.47,1.27-22.28,10.19-20.43,49.09-22.84,70.52,6.76,2.08,12.14,6.19,17.41,10.2,7-11.91,16.19-36.94,25.39-58.9,2.59-5,11.69-8.82,15.3-14.33C178.23,159.92,171.05,156.7,170.59,153.17Z" style="fill:#371880"/><path d="M70.05,269.08c.83.09,3.73.77,2.44,4.83S68.67,282.32,69,285c.32,3.11-2.32,4.12-3.12,1.46-1.12-3.75-5.58-19.31-5.58-19.31s-1.11-3.8,2-4.67a3,3,0,0,1,3.95,2.62A4.23,4.23,0,0,0,70.05,269.08Z" style="fill:#371880"/><path d="M153.28,291.86c.8-.29,3.7-.9,4.27,3.33s.12,9.24,1.52,11.56c1.62,2.68-.34,4.71-2.2,2.64-2.6-2.91-13.28-15.09-13.28-15.09s-2.61-3-.16-5.09a3,3,0,0,1,4.7.69A4.2,4.2,0,0,0,153.28,291.86Z" style="fill:#371880"/><path d="M167.78,86.3c1.12,1.18,5.61.5,6.51-.76,0,0,4.27-8.75,1-27.76-.9-5.22,1.1-2.43-10.18-3.76-10.41-1.23-10.45,19.54-12.19,17.73.31.7.72,1.65,1.18,2.72l-1.32-2.91a1.89,1.89,0,0,0,.14.19c-.46-1.07-.69-1.54-.47-.93h0s-2.53-2.17-4.18-.64,3.46,5.45,6.39,5.61c1.7,4,3.71,8.83,3.71,8.83L155,99l15.48,3.84S167.09,85.59,167.78,86.3Z" style="fill:#f0b293"/><path d="M167.92,71.91a.83.83,0,0,1-.82.84.84.84,0,0,1-.86-.81.87.87,0,0,1,.82-.86A.85.85,0,0,1,167.92,71.91Z" style="opacity:0.21"/><path d="M174.4,71.58a.84.84,0,0,1-1.68,0,.85.85,0,0,1,.82-.86A.87.87,0,0,1,174.4,71.58Z" style="opacity:0.21"/><path d="M156.52,78c4.52-8.91-.78-12.47,1.6-15.71,3.5-4.78,1.83,4.08,12,4C190.34,66,181.43,44.91,174,46.54c-8.23,1.78-10.62-6.44-20.15-2.26-8.28,3.63-4.1,9.41-10.09,11.29-5.69,1.79-6.87,15.35-.53,21.11C166.91,98.27,156.52,78,156.52,78Z" style="fill:url(#b)"/><g style="clip-path:url(#c)"><path d="M128.3,162.49s2.36-2.37,8.54-8.33c23.53,6.46,46.1,26.49,43.27,48.84-2.38,18.81-23.9,34.1-43,37.2,2-5.56,3.26-15.48,3.26-15.48A29.76,29.76,0,0,0,131.69,201C115.78,184.43,119.48,171.08,128.3,162.49Z" style="fill:#e6e6e6;fill-rule:evenodd;opacity:0.1"/></g><path d="M167.76,86.93c-.06-.21.14-.45,0-.63s-.88-.45-1.25-.6a9.86,9.86,0,0,1-3.17-2.12c0,.81.7,1.42,1.3,2a9.73,9.73,0,0,1,2.83,4.69,4.44,4.44,0,0,0,1,2.35,12.4,12.4,0,0,0-.24-2.72A21.25,21.25,0,0,0,167.76,86.93Z" style="fill:#e3a48a"/><path d="M170.73,140.2c-4.72,4.36-3.51,3.13-8.69,7.25-7.43,5.82-14.95,10.92-14.95,10.92-13.43,20.5,7.62,47,17,66.46,6.82-1.83,14.83,4.15,21.43,4.73-.45-13.79-1-41.51-4.94-65-.47-5.62.21-12.08.33-18.66C180.8,141.85,173,143,170.73,140.2Z" style="fill:#371880"/><path d="M177.13,176.07a1.89,1.89,0,0,0-1.45-1.22,1.87,1.87,0,0,0-1.78.65,19.24,19.24,0,0,1-2.47,2.27,5.09,5.09,0,0,1-4.29.86c-7.94-1.81-10.06,3.68-10.51,5.4a6.77,6.77,0,0,0,4.71,7.79,12.16,12.16,0,0,0,15.79-15.75Z" style="fill:#e6e6e6;opacity:0.30000000000000004"/><path d="M168.29,93.33c-2.25,0-11.22-.11-11.36-3.06,0,0-4.51,2.13-8.05,3.45-19.3,7.15-11.31,59.83-24.69,69.71s70.15,32.07,61.95,3.88c-3.51-12.09,2-15.49-2.21-29.16-3.23-10.5-2.36-5.52-4.8-18-3.23-16.56-8.79-25-10.11-26.56A.92.92,0,0,0,168.29,93.33Z" style="fill:#f6c24c"/><path d="M164.09,224.83c.39,1.77-3.19,11.48-6.53,18.53-5.7,12-7.45,33.09-7.75,42.32a4.4,4.4,0,0,0,5.09,1.45c2.12-.74,7.93-6.9,17.11-26.24,2.29-4.84,10-18.88,11.92-25.11.36-1.13,1.72-4.87,1.58-6.29-6.27-2.13-13.63-12.83-20.69-12.65C164.82,216.87,164.09,224.81,164.09,224.83Z" style="fill:#371880"/><g style="opacity:0.2"><path d="M188.6,151.53c-14.07,3.45-11.81,5.07-31.78,5.13-22.77.07-23.19-27.38-18.25-45.44,3.15-11.52,6.27-5.53,11.64-14.07,1-1.57,1.18-1,2.84-.18a3.64,3.64,0,0,1,1.35,1.32c2.32,3.28-5.76,2.35-5.27,6.34.79,6.42-1,13.08.75,19.31,1.65,6,6.25,10.65,11,14.63,4.32,3.61,9.08,7,14.58,8.17,4.93,1.08,10.13.14,13.32,4" style="fill:#f17329"/></g><g style="opacity:0.2"><path d="M183.93,138.15a17.09,17.09,0,0,0-7.77-5c-2.47-.75-5-1.26-7.4-2.17-9.42-3.53-3.28-20.18-7.81-20.67-.94-.09-5.81,5.18-6.76,5.25-1.84.16-3,2.27-2.76,4.1a9.43,9.43,0,0,0,2.64,4.76A47,47,0,0,0,166.6,135a28.33,28.33,0,0,0,15.81,3.73" style="fill:#f17329"/></g><path d="M259.66,104.1A28.82,28.82,0,1,1,226.8,80,28.79,28.79,0,0,1,259.66,104.1Z" style="fill:#371880;fill-rule:evenodd"/><path d="M246.78,132.69c-.68-.32-1.08-.54-1.08-.54-7-4-13.92-10.12-16.69-21.07-3.41-13.41-9.85-20.62-17.28-23.88a28.82,28.82,0,0,0,35.05,45.49Z" style="fill:#f7f7f8;fill-rule:evenodd;opacity:0.15"/><path d="M246.68,112.4h0a15.54,15.54,0,0,0-1.18-5.48c-4.76-11.37-3.68-19.77-16.83-17.75-7.62,1.18-14.9,9.84-13.88,21.4.06.62.14,1.24.23,1.84h0l0,.07c1.73,10.26,9.68,17.6,17.59,17.06C240.83,129,247,120.76,246.68,112.4Z" style="fill:#f8f8f8;fill-rule:evenodd;opacity:0.2"/><path d="M240,110.16c1.68,6.22-2.05,14.21-6.32,15.35s-11.54-4-13.22-10.16,1.63-11.65,6.94-13S238.28,104,240,110.16Z" style="fill:#f8f8f8;opacity:0.5"/><g style="opacity:0.7000000000000001"><path d="M233.54,113.83c.58,2.15-.46,4.16-1.78,4.51s-3.4-.84-4-3,.33-3.73,2-4.17S233,111.69,233.54,113.83Z" style="fill:#f8f8f8;opacity:0.4"/></g><path d="M230.56,139.83c-1.76.95,2.91-4.48-.12-4-2.66.29,2.19-2.09,2.27-3.07.06-1.93-4.18.36-6.15,1.15a51.38,51.38,0,0,1-13,3.34l2.4,3.31" style="fill:#f0b293"/><path d="M153.46,92.26c-12.39,2.52-17.24,23.28-14.5,33.88a47,47,0,0,0,13.82,23.47c15.35,14,63.6-7.71,63.82-8.46,0,0-.24-4.23-1.89-4.09-28.69,2.54-45.26-1-47.23-2.3-6.75-4.43-7-19-5.39-24.88" style="fill:#f6c24c"/><path d="M173.19,80.78l-6.27-.11S170.49,83,173.19,80.78Z" style="opacity:0.21"/><path d="M48.51,281.18c10.12,7.14,19.36,18.68,17.35,21.54s-16-2-26.12-9.09-14.15-14-11.65-17.53S38.39,274.05,48.51,281.18Z" style="fill:#371880;opacity:0.2"/><path d="M408.42,119.84c-15.52,20.23-57.28,3.09-57.52,0l1.48-3.75s.27-.5.68-.45c40.15,4.86,52.91-17.14,54.07-19.79" style="fill:#246799"/><path d="M455.3,221.72c.92,1.56,8.93,3.34,16.18,6.25,12.33,4.95,30.68,25.26,37.16,31.83a4.4,4.4,0,0,1-2.75,4.52c-2.07.9-13.25-5.7-33.12-13.67-5-2-20.14-7.1-25.81-10.34-1-.59-4.14-2.94-5.35-3.8,3.17-5.83,8.35-10.2,13.65-14.86Z" style="fill:#686175"/><path d="M406.63,153.17c6.32,1.16,4.64.78,11.22,1.49,9.39,1,18.47,1.27,18.47,1.27,22.28,10.19,20.43,49.09,22.83,70.52-6.75,2.08-12.13,6.19-17.4,10.2-7-11.91-16.19-36.94-25.39-58.9-2.59-5-11.69-8.82-15.3-14.33C399,159.92,406.17,156.7,406.63,153.17Z" style="fill:#686175"/><path d="M507.17,269.08c-.84.09-3.73.77-2.44,4.83s3.82,8.41,3.54,11.1c-.32,3.11,2.32,4.12,3.12,1.46,1.11-3.75,5.58-19.31,5.58-19.31s1.1-3.8-2-4.67a3,3,0,0,0-4,2.62A4.23,4.23,0,0,1,507.17,269.08Z" style="fill:#686175"/><path d="M423.94,291.86c-.8-.29-3.71-.9-4.27,3.33s-.12,9.24-1.52,11.56c-1.62,2.68.34,4.71,2.19,2.64,2.61-2.91,13.29-15.09,13.29-15.09s2.6-3,.16-5.09a3,3,0,0,0-4.7.69A4.2,4.2,0,0,1,423.94,291.86Z" style="fill:#686175"/><path d="M409.44,86.3c-1.13,1.18-5.61.5-6.51-.76,0,0-4.27-8.75-1-27.76.9-5.22-1.11-2.43,10.18-3.76,10.41-1.23,10.44,19.54,12.18,17.73l-1.17,2.72,1.32-2.91a1.81,1.81,0,0,1-.15.19c.47-1.07.7-1.54.48-.93h0s2.53-2.17,4.18-.64-3.46,5.45-6.39,5.61c-1.7,4-3.71,8.83-3.71,8.83L422.24,99l-15.48,3.84S410.13,85.59,409.44,86.3Z" style="fill:#f0b293"/><path d="M409.3,71.91a.82.82,0,0,0,.82.84.84.84,0,0,0,.86-.81.87.87,0,0,0-.83-.86A.85.85,0,0,0,409.3,71.91Z" style="opacity:0.21"/><path d="M402.82,71.58a.84.84,0,0,0,1.68,0,.84.84,0,1,0-1.68,0Z" style="opacity:0.21"/><path d="M420.7,78c-4.52-8.91.78-12.47-1.6-15.71-3.5-4.78-1.83,4.08-12,4-20.26-.22-11.34-21.35-3.87-19.72,8.23,1.78,10.62-6.44,20.14-2.26,8.28,3.63,4.11,9.41,10.1,11.29,5.69,1.79,6.87,15.35.53,21.11C410.31,98.27,420.7,78,420.7,78Z" style="fill:#ef6a45"/><path d="M409.46,86.93c.05-.21-.14-.45,0-.63s.88-.45,1.25-.6a9.86,9.86,0,0,0,3.17-2.12c0,.81-.7,1.42-1.3,2a9.65,9.65,0,0,0-2.83,4.69,4.44,4.44,0,0,1-1,2.35,12.4,12.4,0,0,1,.24-2.72A21.25,21.25,0,0,1,409.46,86.93Z" style="fill:#e3a48a"/><path d="M406.48,140.2c4.73,4.36,3.52,3.13,8.7,7.25,7.43,5.82,14.95,10.92,14.95,10.92,13.43,20.5-7.62,47-17,66.46-6.81-1.83-14.82,4.15-21.42,4.73.44-13.79,1-41.51,4.94-65,.47-5.62-.21-12.08-.34-18.66C396.42,141.85,404.21,143,406.48,140.2Z" style="fill:#686175"/><path d="M408.93,93.33c2.24,0,11.22-.11,11.36-3.06,0,0,4.51,2.13,8,3.45,19.3,7.15,11.31,59.83,24.69,69.71s-70.15,32.07-62,3.88c3.52-12.09-2-15.49,2.22-29.16,3.22-10.5,2.36-5.52,4.79-18,3.23-16.56,8.8-25,10.12-26.56A.92.92,0,0,1,408.93,93.33Z" style="fill:#5f90b5"/><path d="M413.12,224.83c-.38,1.77,3.19,11.48,6.54,18.53,5.7,12,7.45,33.09,7.74,42.32a4.39,4.39,0,0,1-5.09,1.45c-2.12-.74-7.92-6.9-17.1-26.24-2.29-4.84-10-18.88-11.92-25.11-.36-1.13-1.73-4.87-1.58-6.29,6.27-2.13,13.62-12.83,20.69-12.65C412.39,216.87,413.13,224.81,413.12,224.83Z" style="fill:#686175"/><path d="M388.62,151.53c14.07,3.45,11.8,5.07,31.78,5.13,22.76.07,23.19-27.38,18.25-45.44-3.15-11.52-6.27-5.53-11.64-14.07-1-1.57-1.18-1-2.84-.18a3.74,3.74,0,0,0-1.36,1.32c-2.31,3.28,5.77,2.35,5.28,6.34-.79,6.42,1,13.08-.75,19.31-1.65,6-6.26,10.65-11,14.63-4.32,3.61-9.08,7-14.58,8.17-4.93,1.08-10.13.14-13.32,4" style="fill:#246799"/><path d="M393.29,138.15a17.09,17.09,0,0,1,7.77-5c2.47-.75,5-1.26,7.4-2.17,9.42-3.53,3.28-20.18,7.8-20.67.95-.09,5.82,5.18,6.77,5.25,1.84.16,3,2.27,2.76,4.1a9.43,9.43,0,0,1-2.64,4.76A47.15,47.15,0,0,1,410.62,135a28.33,28.33,0,0,1-15.81,3.73" style="fill:#246799"/><path d="M317.56,104.1A28.82,28.82,0,1,0,350.41,80,28.79,28.79,0,0,0,317.56,104.1Z" style="fill:#5f90b5;fill-rule:evenodd"/><path d="M338,103.37a4.31,4.31,0,0,0,4,3.42,4.35,4.35,0,0,0,4.27-3.42,4.31,4.31,0,0,0,4,3.42,4.37,4.37,0,0,0,4.28-3.42,4.29,4.29,0,0,0,4,3.42V118c0,3.62-3.93,8.29-12.4,8.29S334,121.62,334,118V106.77A4.37,4.37,0,0,0,338,103.37Z" style="fill:#f8f8f8;opacity:0.7000000000000001"/><path d="M333.68,106.79a4.36,4.36,0,0,0,4.27-3.42,4.31,4.31,0,0,0,4,3.42,4.35,4.35,0,0,0,4.27-3.42,4.31,4.31,0,0,0,4,3.42,4.37,4.37,0,0,0,4.28-3.42,4.31,4.31,0,0,0,4,3.42c2.35,0,4.39-1.87,4.47-4.75,0-.42-4-6.87-4.05-7.3H333.52c-.07.36-4,6.75-4.06,7.11C329.39,104.72,331.32,106.73,333.68,106.79Z" style="fill:#f8f8f8;opacity:0.7000000000000001"/><path d="M329.46,101.85c-.07,2.87,1.86,4.88,4.22,4.94a4.36,4.36,0,0,0,4.27-3.42,4.31,4.31,0,0,0,4,3.42,4.35,4.35,0,0,0,4.27-3.42,4.31,4.31,0,0,0,4,3.42,4.37,4.37,0,0,0,4.28-3.42,4.31,4.31,0,0,0,4,3.42c2.35,0,4.39-1.87,4.47-4.75" style="fill:#fff;opacity:0.7000000000000001"/><path d="M330.44,132.69c.68-.32,1.08-.54,1.08-.54,7-4,13.92-10.12,16.69-21.07,3.4-13.41,9.85-20.62,17.27-23.88a28.81,28.81,0,0,1-35,45.49Z" style="fill:#f7f7f8;fill-rule:evenodd;opacity:0.15"/><path d="M346.66,139.83c1.76.95-2.91-4.48.12-4,2.66.29-2.19-2.09-2.27-3.07-.06-1.93,4.18.36,6.15,1.15a51.27,51.27,0,0,0,13,3.34l-2.4,3.31" style="fill:#f0b293"/><path d="M423.76,92.26c12.38,2.52,17.23,23.28,14.49,33.88a46.88,46.88,0,0,1-13.81,23.47c-15.35,14-63.6-7.71-63.82-8.46,0,0,.24-4.23,1.88-4.09,28.69,2.54,45.27-1,47.24-2.3,6.74-4.43,7-19,5.39-24.88" style="fill:#5f90b5"/><path d="M404,80.78l6.27-.11S406.73,83,404,80.78Z" style="opacity:0.21"/><path d="M528.71,281.18c-10.13,7.14-19.37,18.68-17.35,21.54s16-2,26.12-9.09,14.15-14,11.65-17.53S538.83,274.05,528.71,281.18Z" style="fill:#371880;opacity:0.2"/><path d="M521.26,81.75c-.51.36-.39.79-.8.94s.92.47,1.33.34a.74.74,0,0,0,.52-.87A.69.69,0,0,0,521.26,81.75Z" style="fill:#afd3dc;opacity:0.58"/><path d="M519.53,80.53c-.17.6-.61.63-.63,1.08s-.74-.72-.76-1.15a.74.74,0,0,1,.64-.78A.7.7,0,0,1,519.53,80.53Z" style="fill:#afd3dc;opacity:0.58"/><path d="M502.16,86.26c-1.1-6.87,3.26-9.32,1.27-13.85-1.55-3.52,10.92,3.72,13.15,8a8.23,8.23,0,0,1-2.87,10.91C510.34,93.67,503.1,92.18,502.16,86.26Z" style="fill:#afd3dc;opacity:0.58"/><path d="M521.64,100c6.84-1.29,7.68-6.23,12.62-5.88,3.83.26-7.19-9-12-9.66a8.22,8.22,0,0,0-9.3,6.38C511.92,94.77,515.76,101.09,521.64,100Z" style="fill:#afd3dc;opacity:0.58"/><path d="M519.45,97.48c-1.36,4.76-4.91,5-5,8.56-.06,2.75-5.94-5.67-6.08-9.13a5.85,5.85,0,0,1,5.12-6.18C516.37,90.25,520.61,93.38,519.45,97.48Z" style="fill:#afd3dc;opacity:0.58"/><path d="M504.39,86.88c-4,2.89-3.1,6.33-6.39,7.59-2.56,1,7.35,3.67,10.65,2.63a5.86,5.86,0,0,0,4.1-6.9C512.23,87.33,507.85,84.4,504.39,86.88Z" style="fill:#afd3dc;opacity:0.58"/><path d="M603.75,56.09c-.4.29-.3.63-.64.76s.74.37,1.07.26a.57.57,0,0,0,.41-.69A.56.56,0,0,0,603.75,56.09Z" style="fill:#afd3dc;opacity:0.58"/><path d="M602.37,55.11c-.13.49-.49.51-.5.87s-.6-.57-.61-.92a.59.59,0,0,1,.52-.62A.55.55,0,0,1,602.37,55.11Z" style="fill:#afd3dc;opacity:0.58"/><path d="M588.47,59.7c-.88-5.49,2.62-7.45,1-11.08-1.25-2.81,8.73,3,10.51,6.43a6.6,6.6,0,0,1-2.29,8.73C595,65.63,589.23,64.44,588.47,59.7Z" style="fill:#afd3dc;opacity:0.58"/><path d="M604.06,70.68c5.47-1,6.14-5,10.09-4.71,3.07.21-5.75-7.22-9.6-7.73a6.58,6.58,0,0,0-7.44,5.11C596.28,66.51,599.35,71.56,604.06,70.68Z" style="fill:#afd3dc;opacity:0.58"/><path d="M602.3,68.67c-1.08,3.82-3.92,4-4,6.86,0,2.19-4.75-4.54-4.86-7.31a4.69,4.69,0,0,1,4.09-4.95C599.85,62.89,603.24,65.39,602.3,68.67Z" style="fill:#afd3dc;opacity:0.58"/><path d="M590.26,60.2c-3.23,2.31-2.48,5.06-5.11,6.07-2,.78,5.88,2.94,8.52,2.1a4.68,4.68,0,0,0,3.27-5.52C596.53,60.56,593,58.21,590.26,60.2Z" style="fill:#afd3dc;opacity:0.58"/></svg>