<svg xmlns="http://www.w3.org/2000/svg" viewBox="0 0 1752 738.98"><title>sec4-bg</title><path d="M0,468S29.89,620.26,160,682.9C592.77,891.26,891.71,445.36,1273.12,535,1641.48,621.53,1752,420,1752,420V6c-316.83-59.86-494.24,356.78-876.9,136.13C380.31-143.23,0,142,0,142Z" style="fill:#e6e6e6;opacity:0.30000000000000004"/><path d="M463.23,54.94C292.54,66.06,354.31,453,149.81,331.82c-123.5-73.19,19.22,443.46,372.76,325C857,544.85,1095,548.23,1350.85,612.29c297.18,74.43,367.64-310.54,134.26-286.76-219.25,22.34-200.78-394.09-449.64-239.17C483.8,429.78,719.11,38.28,463.23,54.94Z" style="fill:#e6e6e6;opacity:0.30000000000000004"/></svg>